<?xml version="1.0" encoding="utf-8"?>
<!-- Generator: Adobe Illustrator 24.3.0, SVG Export Plug-In . SVG Version: 6.00 Build 0)  -->
<svg version="1.1" xmlns="http://www.w3.org/2000/svg" xmlns:xlink="http://www.w3.org/1999/xlink" x="0px" y="0px"
	 viewBox="0 0 750 500" enable-background="new 0 0 750 500" xml:space="preserve">
<g id="Background_Complete">
	<g>
		<path fill="#EBEBEB" d="M466.99,443.86c4.79-2.69,10.94-2.79,15.82-0.26c4.88,2.53,8.34,7.61,8.9,13.08
			C481.61,456.69,471.66,454.33,466.99,443.86"/>
		<g>
			<path fill="#EBEBEB" d="M478.76,433.51c6.76,2.21,14.59,0.81,20.15-3.63c5.56-4.43,8.68-11.75,8.03-18.83
				C494.11,413.57,482.07,419.05,478.76,433.51"/>
			<g>
				<path fill="#E0E0E0" d="M434.79,450.6c-0.01-0.02,0.21-0.1,0.63-0.25c0.47-0.16,1.08-0.37,1.84-0.62
					c1.61-0.52,3.93-1.28,6.78-2.27c5.7-1.97,13.53-4.83,21.97-8.51c4.21-1.85,8.18-3.73,11.73-5.53c3.54-1.83,6.68-3.58,9.25-5.15
					c2.55-1.61,4.58-2.96,5.87-4.04c1.32-1.04,1.97-1.72,2.01-1.67c0.01,0.01-0.14,0.18-0.46,0.5c-0.32,0.31-0.76,0.8-1.43,1.33
					c-1.27,1.13-3.28,2.54-5.81,4.19c-2.56,1.62-5.68,3.41-9.22,5.26c-3.55,1.83-7.52,3.73-11.74,5.58
					c-8.46,3.68-16.32,6.5-22.06,8.38c-2.87,0.95-5.21,1.65-6.83,2.11c-0.77,0.22-1.39,0.39-1.87,0.53
					C435.03,450.57,434.8,450.62,434.79,450.6z"/>
			</g>
		</g>
		<g>
			<path fill="#E0E0E0" d="M479.96,449.74c-0.05,0.07-1.22-0.74-3.24-1.83c-2.01-1.09-4.91-2.4-8.27-3.32
				c-3.37-0.92-6.53-1.27-8.81-1.35c-2.29-0.09-3.71,0.02-3.72-0.08c0-0.04,0.35-0.09,0.99-0.16c0.64-0.08,1.58-0.13,2.73-0.13
				c2.31-0.01,5.52,0.29,8.94,1.22c3.41,0.94,6.33,2.32,8.31,3.5c0.99,0.59,1.77,1.11,2.29,1.5
				C479.71,449.48,479.98,449.71,479.96,449.74z"/>
		</g>
	</g>
	<g>
		<path fill="#EBEBEB" d="M241.73,404.78c-2.43,6.49-1.39,14.17,2.7,19.77c4.09,5.6,11.08,8.94,18,8.59
			C260.52,420.55,255.67,408.59,241.73,404.78"/>
		<g>
			<path fill="#E0E0E0" d="M239.76,398.6c0.08-0.02,0.43,1.38,1.15,3.57c0.72,2.19,1.89,5.17,3.55,8.28c1.67,3.1,3.5,5.72,4.93,7.54
				c1.43,1.82,2.4,2.88,2.33,2.94c-0.03,0.02-0.29-0.22-0.76-0.67c-0.47-0.45-1.11-1.15-1.86-2.03c-1.51-1.77-3.42-4.39-5.1-7.53
				c-1.68-3.14-2.8-6.18-3.44-8.42c-0.32-1.12-0.54-2.04-0.66-2.68C239.77,398.96,239.72,398.61,239.76,398.6z"/>
		</g>
	</g>
	<g>
		<path fill="#EBEBEB" d="M41.89,152.44c-3.77,10.05-2.15,21.95,4.18,30.62s17.17,13.84,27.89,13.31
			C70.99,176.87,63.49,158.36,41.89,152.44"/>
		<g>
			<path fill="#E0E0E0" d="M38.83,142.88c0.03-0.01,0.2,0.52,0.47,1.49c0.26,0.97,0.67,2.36,1.22,4.07
				c1.1,3.41,2.89,8.04,5.47,12.86c2.59,4.82,5.45,8.88,7.69,11.68c1.11,1.4,2.05,2.52,2.71,3.27c0.66,0.76,1.01,1.19,0.98,1.22
				c-0.03,0.02-0.43-0.36-1.13-1.08c-0.71-0.71-1.69-1.79-2.85-3.17c-2.32-2.76-5.25-6.81-7.86-11.66c-2.6-4.86-4.35-9.55-5.36-13
				c-0.51-1.73-0.87-3.14-1.07-4.13C38.9,143.43,38.8,142.88,38.83,142.88z"/>
		</g>
	</g>
	<g>
		<path fill="#EBEBEB" d="M75.68,351.48c-5.4,4.35-8.4,11.49-7.73,18.39c0.67,6.9,4.99,13.33,11.13,16.56
			C83.82,374.62,85.74,361.87,75.68,351.48"/>
		<g>
			<path fill="#E0E0E0" d="M77.12,345.16c0.08,0.03-0.33,1.4-0.82,3.66c-0.49,2.26-1.01,5.41-1.16,8.93c-0.14,3.52,0.1,6.71,0.41,9
				c0.3,2.29,0.6,3.7,0.51,3.72c-0.03,0.01-0.14-0.33-0.31-0.96c-0.17-0.63-0.37-1.55-0.57-2.7c-0.4-2.29-0.71-5.52-0.56-9.08
				c0.15-3.56,0.73-6.75,1.32-9c0.29-1.13,0.57-2.03,0.79-2.64C76.95,345.49,77.09,345.15,77.12,345.16z"/>
		</g>
	</g>
	<g>
		<path fill="#EBEBEB" d="M261.26,98.62c6.2,3.09,13.95,2.83,19.94-0.66c5.99-3.49,10.03-10.11,10.39-17.03
			C278.87,81.55,266.49,85.14,261.26,98.62"/>
		<g>
			<path fill="#E0E0E0" d="M254.91,99.95c-0.01-0.09,1.41-0.28,3.67-0.78c2.26-0.49,5.34-1.35,8.6-2.68
				c3.26-1.34,6.05-2.9,8.01-4.13c1.96-1.23,3.11-2.09,3.16-2.02c0.02,0.03-0.24,0.27-0.75,0.69c-0.5,0.42-1.25,0.98-2.21,1.64
				c-1.92,1.32-4.72,2.95-8.01,4.31c-3.3,1.35-6.43,2.16-8.73,2.56c-1.15,0.2-2.08,0.33-2.73,0.38
				C255.28,99.97,254.92,99.99,254.91,99.95z"/>
		</g>
	</g>
	<g>
		<path fill="#EBEBEB" d="M235.34,96.81c8.93-1.92,16.71-8.55,20.01-17.07c3.3-8.52,2.02-18.66-3.29-26.1
			C239.46,64.73,229.64,78.61,235.34,96.81"/>
		<g>
			<path fill="#E0E0E0" d="M229.89,103.39c-0.03-0.03,0.28-0.39,0.84-1.03c0.57-0.63,1.38-1.57,2.34-2.75
				c1.93-2.36,4.42-5.77,6.69-9.83c2.26-4.07,3.85-7.98,4.84-10.87c0.5-1.44,0.87-2.62,1.11-3.44c0.25-0.82,0.4-1.27,0.43-1.26
				c0.03,0.01-0.05,0.47-0.24,1.31c-0.18,0.84-0.5,2.04-0.95,3.5c-0.9,2.93-2.46,6.9-4.73,11c-2.29,4.1-4.84,7.51-6.86,9.82
				c-1.01,1.16-1.86,2.06-2.48,2.66C230.27,103.1,229.91,103.42,229.89,103.39z"/>
		</g>
	</g>
	<g>
		<path fill="#EBEBEB" d="M317.37,439.37c1.89,3.72,5.72,6.38,9.87,6.85c4.15,0.47,8.48-1.28,11.14-4.49
			C332.02,437.46,324.74,434.74,317.37,439.37"/>
		<g>
			<path fill="#E0E0E0" d="M313.83,437.73c0.08-0.15,3.09,1.6,7.2,2.64c4.1,1.07,7.58,0.98,7.58,1.14c0,0.06-0.86,0.17-2.27,0.13
				c-1.41-0.03-3.35-0.24-5.44-0.77c-2.08-0.54-3.89-1.29-5.14-1.93C314.51,438.29,313.8,437.79,313.83,437.73z"/>
		</g>
	</g>
	<g>
		<path fill="#EBEBEB" d="M410.07,80.33c2.57,3.29,6.85,5.16,11.01,4.81c4.16-0.34,8.07-2.89,10.06-6.56
			C424.07,75.63,416.41,74.36,410.07,80.33"/>
		<g>
			<path fill="#E0E0E0" d="M406.28,79.41c0.05-0.16,3.34,0.98,7.57,1.2c4.23,0.26,7.63-0.51,7.66-0.34c0.01,0.06-0.81,0.33-2.2,0.57
				c-1.39,0.24-3.34,0.41-5.49,0.29c-2.15-0.12-4.07-0.51-5.42-0.9C407.05,79.83,406.26,79.47,406.28,79.41z"/>
		</g>
	</g>
	<g>
		<path fill="#EBEBEB" d="M650.31,111.09c6.68,1.84,14.23,0.11,19.44-4.46c5.2-4.57,7.9-11.84,6.94-18.69
			C664.32,90.97,652.86,96.87,650.31,111.09"/>
		<g>
			<path fill="#E0E0E0" d="M644.33,113.61c-0.03-0.08,1.33-0.55,3.45-1.47c2.12-0.92,4.98-2.35,7.92-4.28
				c2.94-1.94,5.38-4,7.07-5.59c1.68-1.58,2.65-2.64,2.71-2.59c0.03,0.02-0.19,0.31-0.6,0.82c-0.41,0.51-1.04,1.21-1.86,2.04
				c-1.63,1.66-4.06,3.8-7.04,5.76c-2.98,1.95-5.9,3.35-8.07,4.18c-1.09,0.42-1.98,0.72-2.6,0.9
				C644.69,113.56,644.34,113.64,644.33,113.61z"/>
		</g>
	</g>
	<g>
		<path fill="#EBEBEB" d="M673.97,415.88c11.74-2.71,21.87-11.62,26.05-22.93c4.18-11.3,2.29-24.66-4.87-34.36
			C678.75,373.48,666.09,392,673.97,415.88"/>
		<g>
			<path fill="#E0E0E0" d="M666.91,424.68c-0.03-0.02,0.37-0.51,1.11-1.36c0.75-0.84,1.8-2.09,3.05-3.66
				c1.26-1.57,2.68-3.5,4.18-5.7c1.47-2.21,3.01-4.71,4.47-7.41c1.44-2.71,2.67-5.37,3.7-7.82c1.01-2.46,1.83-4.71,2.44-6.63
				c0.62-1.92,1.08-3.48,1.37-4.57c0.3-1.09,0.48-1.69,0.51-1.68c0.03,0.01-0.08,0.62-0.32,1.73c-0.23,1.11-0.64,2.69-1.21,4.63
				c-0.57,1.94-1.36,4.22-2.35,6.71c-1.01,2.48-2.24,5.16-3.69,7.88c-1.47,2.72-3.03,5.22-4.53,7.43c-1.53,2.2-2.99,4.12-4.29,5.66
				c-1.3,1.55-2.39,2.77-3.19,3.57C667.39,424.27,666.94,424.7,666.91,424.68z"/>
		</g>
	</g>
</g>
<g id="Background_Simple">
	<path fill="#EBEBEB" d="M247.01,60.83c-7.94-6.51-20.91-5.47-27.89,2.07l0,0c-6.05,5.33-4.19,20.44,3.32,27.46
		c7.5,7.01,20.9,5.99,27.43-1.94C256.39,80.49,254.95,67.34,247.01,60.83z"/>
	<path fill="#EBEBEB" d="M428.23,74.59c8.28,3.39,17.21-4.53,26.11-3.6c4.55,0.47,8.49,3.2,12.74,4.9c4.24,1.7,12.61,2.16,14.3-3.5
		c3.86-6.86-2.46-15.12-8.6-19.78c-6.14-4.67-17.15-6.2-24.85-6.61c-5.52-0.3-11.22,0.21-16.22,2.59c-5,2.38-9.21,6.84-10.26,12.27
		C420.4,66.28,423.11,72.5,428.23,74.59z"/>
	<g>
		
			<ellipse transform="matrix(0.9858 -0.1677 0.1677 0.9858 -21.1025 22.5769)" fill="#EBEBEB" cx="123.1" cy="136.21" rx="47.71" ry="47.71"/>
	</g>
	<g>
		<path fill="#EBEBEB" d="M195.31,359.77c-18.11-22.04-37.72-34.08-55.93-35.74c-19.54-1.3-40.69,6.79-50.37,23.81
			c-9.68,17.02-3.34,42.61,15.02,49.44c7.54,2.81,16.22,2.46,23.1,6.64c10.7,6.52,12.89,21.13,21.03,30.66
			c10,11.7,28.78,13.7,42.14,6.07c13.37-7.63,21.08-23.27,21.25-38.66C211.72,386.6,205.08,371.66,195.31,359.77z"/>
	</g>
	<g>
		
			<ellipse transform="matrix(0.9998 -0.0222 0.0222 0.9998 -5.7672 15.0553)" fill="#EBEBEB" cx="675.48" cy="267.39" rx="49.39" ry="49.39"/>
	</g>
</g>
<g id="Capa_8">
	<g>
		<path fill="#E8505B" d="M538.22,289.8c-6.32-35.25-36.58-66.03-72.27-68.94c-19.45-1.58-39,4.55-58.37,2.21
			c-16.25-1.96-31.68-10.1-42.48-22.4c-15.98-18.2-21.42-44.09-38.35-61.42c-23.34-23.88-64.08-24.26-92.47-6.69
			c-28.4,17.57-45.57,49.28-53.43,81.73l-0.31,9.87c-1.71,33.66,7.14,72.79,26.68,102.79c19.79,30.4,32.8,42.95,68.86,64.81
			c30.62,18.56,90.58,26.72,126.38,27.58c35.8,0.86,72.57-9.81,99.5-33.42C528.87,362.32,544.54,325.05,538.22,289.8z"/>
		<g opacity="0.8">
			<path fill="#FFFFFF" d="M538.22,289.8c-6.32-35.25-36.58-66.03-72.27-68.94c-19.45-1.58-39,4.55-58.37,2.21
				c-16.25-1.96-31.68-10.1-42.48-22.4c-15.98-18.2-21.42-44.09-38.35-61.42c-23.34-23.88-64.08-24.26-92.47-6.69
				c-28.4,17.57-45.57,49.28-53.43,81.73l-0.31,9.87c-1.71,33.66,7.14,72.79,26.68,102.79c19.79,30.4,32.8,42.95,68.86,64.81
				c30.62,18.56,90.58,26.72,126.38,27.58c35.8,0.86,72.57-9.81,99.5-33.42C528.87,362.32,544.54,325.05,538.22,289.8z"/>
		</g>
	</g>
	<g>
		
			<ellipse transform="matrix(0.1436 -0.9896 0.9896 0.1436 67.464 904.2719)" fill="#E8505B" cx="556.22" cy="413.16" rx="17.25" ry="17.25"/>
		
			<ellipse transform="matrix(0.1436 -0.9896 0.9896 0.1436 67.464 904.2719)" opacity="0.8" fill="#FFFFFF" cx="556.22" cy="413.16" rx="17.25" ry="17.25"/>
	</g>
</g>
<g id="_x34_04">
	<g>
		<g>
			<path fill="#E8505B" d="M435.16,280.45c0.33,34.43-7.18,60.75-22.52,78.97c-15.35,18.22-36.36,27.45-63.03,27.7
				c-26.8,0.26-48.1-8.57-63.91-26.49c-15.81-17.91-23.88-44.08-24.22-78.52l-0.58-60.56c-0.33-34.31,7.18-60.63,22.52-78.97
				c15.34-18.33,36.41-27.63,63.21-27.89c26.67-0.26,47.92,8.63,63.73,26.67c15.81,18.04,23.89,44.21,24.22,78.52L435.16,280.45z
				 M390.33,213.53c-0.21-21.68-4-37.7-11.37-48.04c-7.37-10.35-18.03-15.45-31.97-15.32c-13.94,0.13-24.47,5.44-31.58,15.93
				c-7.11,10.49-10.57,26.57-10.36,48.25l0.71,73.58c0.21,21.81,4.03,37.91,11.47,48.32c7.43,10.41,18.12,15.54,32.07,15.41
				c13.94-0.13,24.44-5.44,31.49-15.93c7.05-10.49,10.47-26.69,10.26-48.62L390.33,213.53z"/>
		</g>
		<g opacity="0.4">
			<path d="M435.16,280.45c0.33,34.43-7.18,60.75-22.52,78.97c-15.35,18.22-36.36,27.45-63.03,27.7
				c-26.8,0.26-48.1-8.57-63.91-26.49c-15.81-17.91-23.88-44.08-24.22-78.52l-0.58-60.56c-0.33-34.31,7.18-60.63,22.52-78.97
				c15.34-18.33,36.41-27.63,63.21-27.89c26.67-0.26,47.92,8.63,63.73,26.67c15.81,18.04,23.89,44.21,24.22,78.52L435.16,280.45z
				 M390.33,213.53c-0.21-21.68-4-37.7-11.37-48.04c-7.37-10.35-18.03-15.45-31.97-15.32c-13.94,0.13-24.47,5.44-31.58,15.93
				c-7.11,10.49-10.57,26.57-10.36,48.25l0.71,73.58c0.21,21.81,4.03,37.91,11.47,48.32c7.43,10.41,18.12,15.54,32.07,15.41
				c13.94-0.13,24.44-5.44,31.49-15.93c7.05-10.49,10.47-26.69,10.26-48.62L390.33,213.53z"/>
		</g>
		<g>
			<path fill="#E8505B" d="M460.62,280.21c0.33,34.43-7.18,60.75-22.52,78.97c-15.35,18.22-36.36,27.45-63.03,27.7
				c-26.8,0.26-48.1-8.57-63.91-26.49c-15.81-17.91-23.88-44.08-24.22-78.52l-0.58-60.56c-0.33-34.31,7.18-60.63,22.52-78.97
				c15.34-18.33,36.41-27.63,63.21-27.89c26.67-0.26,47.92,8.63,63.73,26.67c15.81,18.04,23.89,44.21,24.22,78.52L460.62,280.21z
				 M415.79,213.29c-0.21-21.68-4-37.7-11.37-48.04c-7.37-10.35-18.03-15.45-31.97-15.32c-13.94,0.13-24.47,5.44-31.58,15.93
				c-7.11,10.49-10.57,26.57-10.36,48.25l0.71,73.58c0.21,21.81,4.03,37.91,11.47,48.32c7.43,10.41,18.12,15.54,32.07,15.41
				c13.94-0.13,24.44-5.44,31.49-15.93c7.05-10.49,10.47-26.69,10.26-48.62L415.79,213.29z"/>
		</g>
		<g>
			<path fill="#E8505B" d="M286.55,224.92c0.05,0.13-5.86,2.48-13.2,5.24c-7.35,2.76-13.34,4.89-13.39,4.75
				c-0.05-0.13,5.86-2.48,13.21-5.24C280.51,226.91,286.5,224.78,286.55,224.92z"/>
		</g>
		<g>
			<path fill="#E8505B" d="M288.02,248.85c0.05,0.13-5.86,2.48-13.2,5.24c-7.35,2.76-13.34,4.89-13.39,4.75
				c-0.05-0.13,5.86-2.48,13.21-5.24C281.97,250.84,287.97,248.71,288.02,248.85z"/>
		</g>
		<g>
			<path fill="#E8505B" d="M289.49,272.78c0.05,0.13-5.86,2.48-13.2,5.24c-7.35,2.76-13.34,4.89-13.39,4.75
				c-0.05-0.13,5.86-2.48,13.21-5.24C283.44,274.77,289.44,272.64,289.49,272.78z"/>
		</g>
		<g>
			<path fill="#E8505B" d="M290.96,296.71c0.05,0.13-5.86,2.48-13.2,5.24c-7.35,2.76-13.34,4.89-13.39,4.75
				c-0.05-0.13,5.86-2.48,13.21-5.24C284.91,298.7,290.91,296.57,290.96,296.71z"/>
		</g>
		<g>
			<path fill="#E8505B" d="M292.43,320.64c0.01,0.03-0.31,0.19-0.92,0.45c-0.6,0.26-1.48,0.62-2.56,1.05
				c-2.17,0.87-5.19,2.03-8.53,3.29c-3.34,1.26-6.38,2.37-8.59,3.14c-1.1,0.39-2,0.7-2.62,0.9c-0.62,0.2-0.97,0.3-0.99,0.26
				c-0.01-0.03,0.31-0.19,0.92-0.45c0.6-0.26,1.48-0.62,2.56-1.05c2.17-0.87,5.19-2.03,8.53-3.29c3.34-1.26,6.38-2.37,8.58-3.14
				c1.1-0.39,2-0.7,2.62-0.9C292.06,320.7,292.41,320.6,292.43,320.64z"/>
		</g>
		<g>
			<path fill="#E8505B" d="M299.26,342.53c0.03,0.07-1.13,0.57-3.03,1.33c-1.89,0.76-4.52,1.78-7.44,2.88
				c-2.92,1.1-5.57,2.06-7.49,2.73c-1.93,0.67-3.13,1.06-3.16,0.99c-0.03-0.07,1.13-0.57,3.03-1.33c1.89-0.76,4.52-1.78,7.44-2.88
				c2.91-1.1,5.56-2.06,7.49-2.73C298.03,342.84,299.24,342.46,299.26,342.53z"/>
		</g>
		<g>
			<path fill="#E8505B" d="M313.89,362.61c0.03,0.07-1,0.52-2.69,1.21c-1.68,0.68-4.03,1.59-6.62,2.57
				c-2.6,0.98-4.96,1.83-6.68,2.43c-1.72,0.6-2.79,0.93-2.82,0.86c-0.03-0.07,1-0.52,2.69-1.21c1.68-0.68,4.03-1.59,6.62-2.57
				c2.6-0.98,4.96-1.83,6.68-2.43C312.79,362.88,313.86,362.54,313.89,362.61z"/>
		</g>
		<g>
			<path fill="#E8505B" d="M338.2,375.78c0.03,0.07-1,0.52-2.69,1.21s-4.03,1.59-6.62,2.57c-2.6,0.98-4.96,1.83-6.68,2.43
				c-1.72,0.6-2.79,0.93-2.82,0.86c-0.03-0.07,1-0.52,2.69-1.21c1.68-0.68,4.03-1.59,6.62-2.57c2.6-0.98,4.96-1.83,6.68-2.43
				C337.1,376.04,338.17,375.71,338.2,375.78z"/>
		</g>
		<g>
			<path fill="#E8505B" d="M411.52,324.71c0.06,0.13-7.53,3.67-16.95,7.91c-9.42,4.24-17.11,7.56-17.17,7.43
				c-0.06-0.13,7.53-3.67,16.95-7.91C403.78,327.91,411.46,324.58,411.52,324.71z"/>
		</g>
		<g>
			<path fill="#E8505B" d="M416.5,304.21c0.06,0.13-6.21,3.08-13.99,6.58c-7.79,3.5-14.15,6.23-14.21,6.1
				c-0.06-0.13,6.21-3.08,14-6.58C410.08,306.81,416.44,304.08,416.5,304.21z"/>
		</g>
		<g>
			<path fill="#E8505B" d="M418.79,281.18c0.06,0.13-6.21,3.08-13.99,6.58c-7.79,3.5-14.15,6.23-14.21,6.1
				c-0.06-0.13,6.21-3.08,14-6.58C412.37,283.78,418.73,281.04,418.79,281.18z"/>
		</g>
		<g>
			<path fill="#E8505B" d="M421.08,258.14c0.06,0.13-6.21,3.08-13.99,6.58c-7.79,3.5-14.15,6.23-14.21,6.1
				c-0.06-0.13,6.21-3.08,14-6.58C414.66,260.74,421.02,258.01,421.08,258.14z"/>
		</g>
		<g>
			<path fill="#E8505B" d="M423.38,235.11c0.06,0.13-6.21,3.08-13.99,6.58c-7.79,3.5-14.15,6.23-14.21,6.1
				c-0.06-0.13,6.21-3.08,14-6.58C416.95,237.71,423.32,234.98,423.38,235.11z"/>
		</g>
		<g>
			<path fill="#E8505B" d="M418.79,214.6c0.06,0.13-6.21,3.08-13.99,6.58c-7.79,3.5-14.15,6.23-14.21,6.1
				c-0.06-0.13,6.21-3.08,14-6.58C412.37,217.2,418.73,214.47,418.79,214.6z"/>
		</g>
		<g>
			<path fill="#E8505B" d="M418.79,192.52c0.06,0.13-6.21,3.08-13.99,6.58c-7.79,3.5-14.15,6.23-14.21,6.1
				c-0.06-0.13,6.21-3.08,14-6.58C412.37,195.12,418.73,192.39,418.79,192.52z"/>
		</g>
		<g>
			<path fill="#E8505B" d="M416.5,171.73c0.06,0.13-6.21,3.08-13.99,6.58c-7.79,3.5-14.15,6.23-14.21,6.1
				c-0.06-0.13,6.21-3.08,14-6.58C410.08,174.33,416.44,171.6,416.5,171.73z"/>
		</g>
		<g>
			<path fill="#E8505B" d="M396.75,157.24c0.06,0.13-3.73,1.96-8.47,4.09c-4.74,2.13-8.63,3.75-8.68,3.62
				c-0.06-0.13,3.73-1.96,8.47-4.09C392.8,158.73,396.69,157.11,396.75,157.24z"/>
		</g>
		<g>
			<path fill="#E8505B" d="M386.19,148.37c0.06,0.13-3.73,1.96-8.47,4.09c-4.74,2.13-8.63,3.75-8.68,3.62
				c-0.06-0.13,3.73-1.96,8.47-4.09C382.24,149.86,386.13,148.24,386.19,148.37z"/>
		</g>
		<g>
			<path fill="#E8505B" d="M287.68,195.91c0.05,0.13-5.86,2.48-13.2,5.24c-7.35,2.76-13.34,4.89-13.39,4.75s5.86-2.48,13.21-5.24
				C281.64,197.9,287.63,195.78,287.68,195.91z"/>
		</g>
		<g>
			<path fill="#E8505B" d="M295.04,166.07c0.05,0.13-6.36,2.67-14.32,5.66c-7.96,2.99-14.45,5.31-14.5,5.17
				c-0.05-0.13,6.36-2.67,14.32-5.66C288.5,168.25,294.99,165.93,295.04,166.07z"/>
		</g>
		<g>
			<path fill="#E8505B" d="M314.27,136.53c0.05,0.13-8.08,3.31-18.16,7.1c-10.08,3.79-18.29,6.75-18.34,6.61
				c-0.05-0.13,8.08-3.31,18.16-7.1C306,139.36,314.22,136.4,314.27,136.53z"/>
		</g>
		<g>
			<path fill="#FFFFFF" d="M456.31,325.04c0,0.01-0.15-0.04-0.42-0.14c-0.29-0.11-0.69-0.27-1.2-0.47c-0.53-0.2-1.22-0.34-2.02-0.57
				c-0.82-0.11-1.76-0.34-2.83-0.34c-4.27-0.28-10.67,1.28-16.86,5.91c-3.14,2.24-6.07,5.31-8.93,8.83
				c-2.87,3.51-5.68,7.48-8.87,11.49c-3.19,3.99-6.86,8.04-11.52,11.17c-4.63,3.14-10.1,5.41-15.94,6.46
				c-5.85,1.08-11.76,0.77-17.19-0.57c-5.45-1.31-10.42-3.45-15.06-5.59c-4.64-2.15-8.98-4.35-13.14-6.15
				c-4.15-1.84-8.17-3.17-11.92-4.06c-3.76-0.86-7.24-1.23-10.3-1.19c-3.06,0.03-5.67,0.5-7.75,1.05c-2.06,0.63-3.61,1.29-4.61,1.81
				c-0.49,0.26-0.86,0.46-1.14,0.6c-0.26,0.13-0.39,0.2-0.4,0.19c0-0.01,0.12-0.09,0.37-0.24c0.27-0.16,0.65-0.37,1.12-0.65
				c0.99-0.56,2.54-1.25,4.6-1.91c2.09-0.59,4.72-1.09,7.8-1.15c3.08-0.07,6.6,0.28,10.39,1.12c3.78,0.87,7.84,2.19,12.01,4.02
				c4.19,1.79,8.53,3.98,13.17,6.11c4.64,2.12,9.58,4.24,14.98,5.53c5.37,1.32,11.2,1.62,16.98,0.56
				c5.77-1.04,11.17-3.28,15.75-6.37c4.61-3.08,8.25-7.08,11.44-11.05c3.19-3.98,6.01-7.94,8.91-11.46
				c2.89-3.52,5.87-6.61,9.05-8.85c6.27-4.64,12.77-6.16,17.08-5.82c1.09,0.02,2.03,0.26,2.86,0.39c0.8,0.24,1.49,0.41,2.02,0.62
				c0.51,0.22,0.9,0.39,1.19,0.52C456.18,324.97,456.32,325.04,456.31,325.04z"/>
		</g>
		<g>
			<path fill="#FFFFFF" d="M462.62,258.3c0.01,0.05-0.71,0.15-1.94,0.56c-1.23,0.42-2.94,1.23-4.83,2.58
				c-1.91,1.33-3.98,3.19-6.41,5.11c-2.45,1.91-5.35,3.75-8.59,5.29c-6.48,3.12-12.99,4.33-17.66,4.56
				c-1.17,0.1-2.23,0.06-3.16,0.08c-0.93-0.04-1.73-0.05-2.39-0.1c-0.6-0.06-1.1-0.11-1.5-0.15c-0.34-0.04-0.52-0.07-0.52-0.09
				c0-0.02,0.18-0.02,0.53-0.02c0.4,0.01,0.9,0.03,1.5,0.05c0.68,0,1.47,0.01,2.38,0.02c0.92-0.05,1.98-0.04,3.14-0.16
				c4.63-0.32,11.05-1.58,17.47-4.67c3.2-1.52,6.08-3.33,8.52-5.2c2.43-1.89,4.54-3.73,6.5-5.04c1.94-1.33,3.71-2.11,4.98-2.48
				c0.64-0.17,1.13-0.28,1.48-0.32C462.43,258.29,462.61,258.28,462.62,258.3z"/>
		</g>
		<g>
			<path fill="#FFFFFF" d="M331.99,281.47c0,0.02-0.19-0.01-0.55-0.08c-0.35-0.08-0.89-0.16-1.55-0.35
				c-1.33-0.39-3.22-1.09-5.36-2.35c-2.14-1.25-4.5-3.03-7-5.11c-2.51-2.07-5.19-4.45-8.26-6.57c-3.08-2.11-6.34-3.62-9.49-4.35
				c-3.14-0.78-6.07-0.95-8.51-0.81c-2.44,0.12-4.4,0.53-5.72,0.87c-1.33,0.34-2.05,0.6-2.07,0.55c-0.01-0.02,0.17-0.09,0.51-0.23
				c0.34-0.13,0.84-0.33,1.5-0.52c1.32-0.4,3.28-0.87,5.75-1.05c2.47-0.18,5.45-0.06,8.65,0.71c3.21,0.72,6.55,2.25,9.67,4.39
				c3.11,2.15,5.79,4.55,8.28,6.63c2.48,2.1,4.79,3.9,6.88,5.17c2.09,1.28,3.93,2.03,5.23,2.47
				C331.26,281.24,332,281.42,331.99,281.47z"/>
		</g>
		<g>
			<path fill="#FFFFFF" d="M332.17,186.94c0.01,0.03-0.58,0.25-1.67,0.61c-0.54,0.19-1.21,0.4-2,0.59c-0.79,0.2-1.68,0.46-2.68,0.64
				c-1,0.21-2.1,0.43-3.3,0.58c-1.19,0.2-2.47,0.29-3.82,0.41c-2.7,0.17-5.69,0.17-8.8-0.11c-3.11-0.31-6.05-0.87-8.67-1.54
				c-1.3-0.37-2.55-0.7-3.68-1.12c-1.15-0.37-2.19-0.79-3.13-1.18c-0.96-0.36-1.78-0.79-2.52-1.13c-0.74-0.34-1.36-0.67-1.85-0.95
				c-1-0.56-1.54-0.88-1.52-0.91c0.02-0.03,0.59,0.23,1.62,0.73c0.51,0.26,1.13,0.56,1.88,0.87c0.74,0.32,1.57,0.72,2.53,1.06
				c0.95,0.37,1.99,0.77,3.13,1.11c1.13,0.4,2.37,0.71,3.66,1.06c2.61,0.64,5.52,1.18,8.6,1.48c3.09,0.28,6.04,0.28,8.72,0.15
				c1.34-0.11,2.61-0.18,3.79-0.36c1.19-0.13,2.28-0.33,3.28-0.51c1.01-0.16,1.89-0.39,2.68-0.57c0.79-0.16,1.46-0.35,2.01-0.5
				C331.54,187.06,332.16,186.91,332.17,186.94z"/>
		</g>
		<g>
			<path fill="#FFFFFF" d="M456.94,186.69c-0.01,0.01-0.16-0.06-0.43-0.2c-0.32-0.18-0.7-0.4-1.16-0.67
				c-0.49-0.3-1.11-0.66-1.86-1.01c-0.74-0.36-1.56-0.83-2.53-1.19c-0.48-0.2-0.98-0.41-1.5-0.62c-0.52-0.21-1.09-0.37-1.67-0.57
				c-1.14-0.42-2.42-0.71-3.74-1.06c-2.68-0.58-5.67-0.99-8.83-1.04c-3.16-0.01-6.16,0.35-8.85,0.88c-1.33,0.32-2.61,0.59-3.76,0.99
				c-0.58,0.19-1.15,0.34-1.68,0.54c-0.52,0.21-1.03,0.41-1.51,0.6c-0.98,0.35-1.8,0.8-2.55,1.15c-0.75,0.34-1.37,0.68-1.87,0.98
				c-0.46,0.26-0.85,0.47-1.17,0.65c-0.27,0.14-0.42,0.21-0.43,0.2c-0.01-0.01,0.12-0.11,0.37-0.29c0.31-0.2,0.68-0.44,1.13-0.74
				c0.49-0.32,1.1-0.7,1.84-1.07c0.74-0.37,1.56-0.85,2.54-1.23c0.49-0.2,0.99-0.41,1.52-0.63c0.53-0.22,1.1-0.38,1.69-0.58
				c1.16-0.43,2.45-0.71,3.79-1.05c2.71-0.56,5.75-0.94,8.95-0.93c3.2,0.05,6.23,0.48,8.93,1.09c1.34,0.36,2.62,0.67,3.77,1.11
				c0.58,0.21,1.15,0.38,1.67,0.61c0.52,0.23,1.02,0.45,1.5,0.66c0.97,0.39,1.79,0.89,2.52,1.27c0.74,0.38,1.34,0.76,1.82,1.1
				c0.44,0.3,0.81,0.55,1.11,0.76C456.83,186.57,456.95,186.67,456.94,186.69z"/>
		</g>
		<g>
			<path fill="#FFFFFF" d="M395.8,118.76c0.01,0.02-0.24,0.16-0.72,0.43c-0.53,0.29-1.23,0.67-2.12,1.15
				c-1.85,0.99-4.53,2.4-7.89,4.07c-6.7,3.31-16.12,7.84-27.26,10.66c-5.57,1.37-11.02,2.11-15.99,2.22
				c-4.97,0.11-9.45-0.34-13.13-1.13c-3.68-0.78-6.57-1.77-8.5-2.6c-0.98-0.38-1.69-0.78-2.2-1c-0.5-0.24-0.75-0.38-0.74-0.39
				c0.01-0.02,0.28,0.09,0.79,0.3c0.52,0.2,1.24,0.57,2.23,0.91c1.94,0.77,4.83,1.7,8.49,2.42c3.66,0.74,8.11,1.15,13.05,1.01
				c4.93-0.14,10.34-0.88,15.87-2.25c11.07-2.8,20.48-7.26,27.22-10.49c3.32-1.64,6.03-2.97,7.96-3.92c0.91-0.44,1.63-0.8,2.17-1.06
				C395.53,118.86,395.8,118.75,395.8,118.76z"/>
		</g>
	</g>
	<g>
		<g>
			<path fill="#E8505B" d="M195.06,293l33.43,1.46l-1.55,35.43l-33.43-1.46l-2.57,58.87l-43.97-1.92l2.57-58.87l-113.56-4.96
				l0.09-26.98l121-173.8l45.42,1.98L195.06,293z M80.05,287.98l71.04,3.1l4.69-107.38l-1.07-0.41l-3.97,7.65L80.05,287.98z"/>
		</g>
		<g opacity="0.4">
			<path d="M195.06,293l33.43,1.46l-1.55,35.43l-33.43-1.46l-2.57,58.87l-43.97-1.92l2.57-58.87l-113.56-4.96l0.09-26.98l121-173.8
				l45.42,1.98L195.06,293z M80.05,287.98l71.04,3.1l4.69-107.38l-1.07-0.41l-3.97,7.65L80.05,287.98z"/>
		</g>
		<g>
			<path fill="#E8505B" d="M223.02,294.22l33.43,1.46l-1.55,35.43l-33.43-1.46l-2.57,58.87l-43.97-1.92l2.57-58.87l-113.56-4.96
				l0.09-26.98l121-173.8l45.42,1.98L223.02,294.22z M108,289.2l71.04,3.1l4.69-107.38l-1.07-0.41l-3.97,7.65L108,289.2z"/>
		</g>
		<g>
			<g>
				<path fill="#E8505B" d="M64.59,300.92c0.01,0.03-0.37,0.25-1.08,0.61c-0.71,0.36-1.75,0.86-3.04,1.47
					c-2.58,1.21-6.17,2.82-10.17,4.51c-4,1.69-7.66,3.14-10.33,4.15c-1.33,0.5-2.41,0.9-3.17,1.16c-0.75,0.26-1.18,0.39-1.19,0.35
					c-0.01-0.03,0.38-0.23,1.12-0.54c0.83-0.35,1.87-0.79,3.11-1.31c2.73-1.14,6.3-2.63,10.26-4.29c3.94-1.68,7.5-3.21,10.22-4.37
					c1.23-0.52,2.27-0.96,3.1-1.31C64.16,301.04,64.58,300.89,64.59,300.92z"/>
			</g>
			<g>
				<path fill="#E8505B" d="M80.87,270.98c0.02,0.03-0.52,0.31-1.51,0.8c-0.99,0.48-2.42,1.15-4.2,1.97
					c-3.56,1.63-8.52,3.8-14.03,6.13c-5.51,2.33-10.52,4.37-14.17,5.79c-1.82,0.71-3.31,1.27-4.34,1.64
					c-1.03,0.37-1.61,0.56-1.62,0.52c-0.01-0.03,0.54-0.29,1.55-0.71c1.09-0.46,2.53-1.06,4.27-1.8c3.69-1.55,8.63-3.63,14.1-5.93
					c5.46-2.32,10.4-4.42,14.08-5.98c1.74-0.74,3.18-1.35,4.27-1.81C80.29,271.16,80.85,270.94,80.87,270.98z"/>
			</g>
			<g>
				<path fill="#E8505B" d="M100.74,244.27c0.01,0.03-0.55,0.32-1.58,0.8c-1.03,0.48-2.53,1.16-4.39,1.97
					c-3.72,1.63-8.9,3.8-14.64,6.13c-5.75,2.33-10.98,4.37-14.78,5.79c-1.9,0.71-3.45,1.27-4.52,1.64
					c-1.07,0.37-1.67,0.56-1.69,0.52c-0.01-0.03,0.56-0.29,1.62-0.71c1.13-0.46,2.64-1.06,4.46-1.8c3.84-1.55,9.01-3.63,14.72-5.93
					c5.7-2.32,10.86-4.42,14.69-5.98c1.82-0.74,3.32-1.35,4.45-1.81C100.13,244.46,100.72,244.24,100.74,244.27z"/>
			</g>
			<g>
				<path fill="#E8505B" d="M180.33,275.11c0.01,0.03-0.37,0.24-1.09,0.59c-0.71,0.35-1.75,0.83-3.05,1.41
					c-2.58,1.17-6.18,2.72-10.19,4.35c-4.01,1.62-7.68,3.01-10.34,3.97c-1.33,0.48-2.42,0.86-3.17,1.1
					c-0.75,0.25-1.18,0.37-1.19,0.33c-0.01-0.03,0.39-0.22,1.12-0.52c0.83-0.34,1.88-0.76,3.11-1.26c2.74-1.09,6.32-2.53,10.28-4.11
					c3.95-1.62,7.52-3.08,10.24-4.2c1.24-0.5,2.28-0.92,3.11-1.26C179.9,275.22,180.31,275.08,180.33,275.11z"/>
			</g>
			<g>
				<path fill="#E8505B" d="M177.09,330.05c0.01,0.03-0.36,0.24-1.05,0.59c-0.69,0.35-1.7,0.83-2.95,1.41
					c-2.5,1.17-5.99,2.72-9.88,4.34c-3.89,1.62-7.44,3.01-10.03,3.97c-1.29,0.48-2.35,0.86-3.08,1.11
					c-0.73,0.25-1.14,0.37-1.16,0.34c-0.01-0.03,0.37-0.22,1.08-0.52c0.81-0.34,1.82-0.76,3.02-1.26c2.66-1.1,6.13-2.53,9.97-4.11
					c3.82-1.62,7.28-3.08,9.93-4.2c1.19-0.5,2.2-0.92,3.02-1.26C176.68,330.16,177.08,330.02,177.09,330.05z"/>
			</g>
			<g>
				<path fill="#E8505B" d="M176.63,349.31c0.01,0.03-0.36,0.24-1.05,0.59c-0.69,0.35-1.7,0.83-2.95,1.41
					c-2.5,1.17-5.99,2.72-9.88,4.34c-3.89,1.62-7.44,3.01-10.03,3.97c-1.29,0.48-2.35,0.86-3.08,1.11
					c-0.73,0.25-1.14,0.37-1.16,0.34s0.37-0.22,1.08-0.52c0.81-0.34,1.82-0.76,3.02-1.26c2.66-1.1,6.13-2.53,9.97-4.11
					c3.82-1.62,7.28-3.08,9.93-4.2c1.19-0.5,2.2-0.92,3.02-1.26C176.21,349.42,176.62,349.27,176.63,349.31z"/>
			</g>
			<g>
				<path fill="#E8505B" d="M176.17,368.56c0.01,0.03-0.36,0.24-1.05,0.59c-0.69,0.35-1.7,0.83-2.95,1.41
					c-2.5,1.17-5.99,2.72-9.88,4.34c-3.89,1.62-7.44,3.01-10.03,3.97c-1.29,0.48-2.35,0.86-3.08,1.11
					c-0.73,0.25-1.14,0.37-1.16,0.34c-0.01-0.03,0.37-0.22,1.08-0.52c0.81-0.34,1.82-0.76,3.02-1.26c2.66-1.1,6.13-2.53,9.97-4.11
					c3.82-1.62,7.28-3.08,9.93-4.2c1.19-0.5,2.2-0.92,3.02-1.26C175.75,368.67,176.15,368.53,176.17,368.56z"/>
			</g>
			<g>
				<path fill="#E8505B" d="M180.85,254.77c0.01,0.03-0.37,0.24-1.09,0.59c-0.71,0.35-1.75,0.83-3.05,1.41
					c-2.58,1.17-6.18,2.72-10.19,4.35c-4.01,1.62-7.68,3.01-10.34,3.97c-1.33,0.48-2.42,0.86-3.17,1.1
					c-0.75,0.25-1.18,0.37-1.19,0.33s0.39-0.22,1.12-0.52c0.83-0.34,1.88-0.76,3.11-1.26c2.74-1.09,6.32-2.53,10.28-4.11
					c3.95-1.62,7.52-3.08,10.24-4.2c1.24-0.5,2.28-0.92,3.11-1.26C180.42,254.88,180.83,254.74,180.85,254.77z"/>
			</g>
			<g>
				<path fill="#E8505B" d="M181.37,234.43c0.01,0.03-0.37,0.24-1.09,0.59c-0.71,0.35-1.75,0.83-3.05,1.41
					c-2.58,1.17-6.18,2.72-10.19,4.35c-4.01,1.62-7.68,3.01-10.34,3.97c-1.33,0.48-2.42,0.86-3.17,1.1
					c-0.75,0.25-1.18,0.37-1.19,0.33c-0.01-0.03,0.39-0.22,1.12-0.52c0.83-0.34,1.88-0.76,3.11-1.26c2.74-1.09,6.32-2.53,10.28-4.11
					c3.95-1.62,7.52-3.08,10.24-4.2c1.24-0.5,2.28-0.92,3.11-1.26C180.94,234.54,181.35,234.4,181.37,234.43z"/>
			</g>
			<g>
				<path fill="#E8505B" d="M181.89,214.09c0.01,0.03-0.35,0.23-1.03,0.56c-0.68,0.33-1.67,0.79-2.9,1.35
					c-2.46,1.11-5.88,2.6-9.7,4.15c-3.82,1.55-7.32,2.86-9.86,3.77c-1.27,0.46-2.3,0.81-3.02,1.05c-0.72,0.23-1.12,0.35-1.13,0.31
					c-0.01-0.03,0.37-0.21,1.06-0.5c0.8-0.32,1.79-0.73,2.96-1.2c2.62-1.04,6.02-2.41,9.79-3.91c3.75-1.54,7.15-2.94,9.75-4.01
					c1.17-0.47,2.16-0.88,2.96-1.2C181.48,214.19,181.87,214.05,181.89,214.09z"/>
			</g>
			<g>
				<path fill="#E8505B" d="M184.19,195.08c0.05,0.13-2.19,1.09-5.01,2.14c-2.82,1.04-5.14,1.78-5.19,1.65
					c-0.05-0.13,2.19-1.09,5.01-2.14C181.81,195.68,184.14,194.94,184.19,195.08z"/>
			</g>
			<g>
				<path fill="#E8505B" d="M120.57,216.59c0.01,0.03-0.55,0.32-1.58,0.8c-1.03,0.48-2.53,1.16-4.39,1.97
					c-3.72,1.63-8.9,3.8-14.64,6.13c-5.75,2.33-10.98,4.37-14.78,5.79c-1.9,0.71-3.45,1.27-4.52,1.64
					c-1.07,0.37-1.67,0.56-1.69,0.52c-0.01-0.03,0.56-0.29,1.62-0.71c1.13-0.46,2.64-1.06,4.46-1.8c3.84-1.55,9.01-3.63,14.72-5.93
					c5.7-2.32,10.86-4.42,14.69-5.98c1.82-0.74,3.32-1.35,4.45-1.81C119.97,216.77,120.56,216.56,120.57,216.59z"/>
			</g>
			<g>
				<path fill="#E8505B" d="M140.41,188.9c0.01,0.03-0.55,0.32-1.58,0.8c-1.03,0.48-2.53,1.16-4.39,1.97
					c-3.72,1.63-8.9,3.8-14.64,6.13c-5.75,2.33-10.98,4.37-14.78,5.79c-1.9,0.71-3.45,1.27-4.52,1.64
					c-1.07,0.37-1.67,0.56-1.69,0.52c-0.01-0.03,0.56-0.29,1.62-0.71c1.13-0.46,2.64-1.06,4.46-1.8c3.84-1.55,9.01-3.63,14.72-5.93
					c5.7-2.32,10.86-4.42,14.69-5.98c1.82-0.74,3.32-1.35,4.45-1.81C139.8,189.09,140.39,188.87,140.41,188.9z"/>
			</g>
			<g>
				<path fill="#E8505B" d="M158.74,161.22c0.01,0.03-0.55,0.32-1.58,0.8c-1.03,0.48-2.53,1.16-4.39,1.97
					c-3.72,1.63-8.9,3.8-14.64,6.13c-5.75,2.33-10.98,4.37-14.78,5.79c-1.9,0.71-3.45,1.27-4.52,1.64
					c-1.07,0.37-1.67,0.56-1.69,0.52c-0.01-0.03,0.56-0.29,1.62-0.71c1.13-0.46,2.64-1.06,4.46-1.8c3.84-1.55,9.01-3.63,14.72-5.93
					c5.7-2.32,10.86-4.42,14.69-5.98c1.82-0.74,3.32-1.35,4.45-1.81C158.14,161.4,158.73,161.18,158.74,161.22z"/>
			</g>
			<g>
				<path fill="#E8505B" d="M177.82,134.6c0.01,0.03-0.55,0.32-1.58,0.8c-1.03,0.48-2.53,1.16-4.39,1.97
					c-3.72,1.63-8.9,3.8-14.64,6.13c-5.75,2.33-10.98,4.37-14.78,5.79c-1.9,0.71-3.45,1.27-4.52,1.64
					c-1.07,0.37-1.67,0.56-1.69,0.52c-0.01-0.03,0.56-0.29,1.62-0.71c1.13-0.46,2.64-1.06,4.46-1.8c3.84-1.55,9.01-3.63,14.72-5.93
					c5.7-2.32,10.86-4.42,14.69-5.98c1.82-0.74,3.32-1.35,4.45-1.81C177.21,134.79,177.8,134.57,177.82,134.6z"/>
			</g>
			<g>
				<path fill="#FFFFFF" d="M228.44,175.27c0.01,0.01-0.19,0.24-0.58,0.66c-0.39,0.42-0.97,1.04-1.81,1.75
					c-1.63,1.45-4.2,3.37-7.77,5.02c-3.56,1.64-8.15,2.93-13.36,3.05c-2.6,0.05-5.34-0.23-8.09-0.91c-2.76-0.65-5.48-1.77-8.18-3.05
					c-5.38-2.62-10.16-5.71-14.83-7.86c-4.64-2.2-9.22-3.29-13.09-3.42c-3.89-0.14-6.98,0.74-8.93,1.67
					c-0.97,0.48-1.71,0.9-2.17,1.24c-0.47,0.32-0.73,0.48-0.74,0.47c-0.01-0.01,0.22-0.2,0.68-0.55c0.44-0.37,1.17-0.82,2.14-1.34
					c1.95-1,5.09-1.95,9.03-1.86c3.93,0.09,8.58,1.15,13.29,3.35c4.72,2.15,9.52,5.23,14.85,7.83c2.67,1.27,5.36,2.38,8.07,3.03
					c2.7,0.67,5.39,0.96,7.96,0.92c5.13-0.09,9.68-1.32,13.21-2.9c3.55-1.58,6.13-3.44,7.79-4.83c0.85-0.68,1.45-1.28,1.87-1.67
					C228.2,175.46,228.43,175.26,228.44,175.27z"/>
			</g>
			<g>
				<path fill="#FFFFFF" d="M214.52,125.83c0.02,0.03-0.44,0.29-1.27,0.74c-0.83,0.45-2.07,1.04-3.63,1.7
					c-1.56,0.67-3.46,1.35-5.6,2c-2.15,0.63-4.55,1.2-7.1,1.63c-2.55,0.41-5.01,0.62-7.25,0.71c-2.24,0.06-4.26,0.02-5.94-0.12
					c-1.69-0.13-3.05-0.29-3.98-0.46c-0.93-0.16-1.44-0.26-1.44-0.3c0.01-0.04,0.53,0,1.46,0.1c0.94,0.11,2.3,0.21,3.97,0.29
					c1.68,0.09,3.68,0.1,5.9,0.01c2.22-0.12,4.65-0.34,7.18-0.75c2.53-0.42,4.91-0.98,7.05-1.58c2.13-0.62,4.03-1.26,5.59-1.88
					c1.57-0.61,2.82-1.14,3.68-1.54C214.02,126,214.5,125.8,214.52,125.83z"/>
			</g>
			<g>
				<path fill="#FFFFFF" d="M143.52,236.89c-0.03,0.02-0.34-0.34-0.9-1.01c-0.62-0.74-1.42-1.69-2.37-2.81
					c-2.02-2.35-4.91-5.53-8.37-8.75c-1.73-1.61-3.49-3.01-5.25-4.04c-1.75-1.03-3.49-1.65-5-1.94c-3.04-0.6-4.95,0.09-4.96-0.03
					c0-0.02,0.11-0.06,0.33-0.13c0.22-0.07,0.55-0.15,0.98-0.23c0.86-0.15,2.15-0.23,3.71,0.03c1.55,0.25,3.36,0.85,5.17,1.89
					c1.81,1.02,3.62,2.45,5.36,4.07c3.48,3.25,6.34,6.48,8.3,8.9c0.98,1.21,1.74,2.22,2.25,2.93
					C143.29,236.46,143.55,236.87,143.52,236.89z"/>
			</g>
			<g>
				<path fill="#FFFFFF" d="M223.29,267.1c0.01,0.02-0.12,0.12-0.39,0.3c-0.27,0.18-0.65,0.46-1.19,0.76
					c-1.05,0.64-2.63,1.46-4.69,2.23c-4.07,1.56-10.29,2.69-16.93,1.34c-6.63-1.36-11.91-4.85-15.04-7.88
					c-1.59-1.52-2.72-2.89-3.44-3.89c-0.37-0.49-0.61-0.9-0.79-1.17c-0.17-0.27-0.26-0.42-0.24-0.43c0.04-0.03,0.43,0.52,1.19,1.47
					c0.76,0.95,1.92,2.28,3.52,3.75c3.16,2.93,8.38,6.31,14.89,7.64c6.51,1.33,12.64,0.28,16.7-1.17c2.05-0.72,3.64-1.48,4.71-2.06
					C222.68,267.41,223.26,267.07,223.29,267.1z"/>
			</g>
			<g>
				<path fill="#FFFFFF" d="M252.42,330.42c0,0-0.11-0.15-0.29-0.46c-0.19-0.33-0.45-0.79-0.79-1.38c-0.64-1.25-1.81-2.96-3.42-5.07
					c-0.43-0.51-0.88-1.04-1.36-1.61c-0.24-0.28-0.48-0.57-0.73-0.86c-0.28-0.27-0.56-0.55-0.85-0.83c-0.58-0.57-1.18-1.16-1.8-1.77
					c-0.67-0.56-1.38-1.14-2.1-1.75c-2.95-2.34-6.6-4.68-10.98-6.53c-4.37-1.83-9.47-3.2-15.05-3.49
					c-5.57-0.32-11.58,0.54-17.43,2.8c-5.85,2.3-11.5,5.78-17.48,9.14c-2.99,1.68-6.09,3.32-9.39,4.65
					c-3.29,1.34-6.8,2.37-10.45,2.74c-3.65,0.42-7.3,0.08-10.79-0.65c-3.49-0.74-6.8-1.97-9.93-3.39
					c-6.28-2.86-11.78-6.63-16.91-10.28c-5.14-3.65-9.98-7.17-14.81-9.99c-4.82-2.81-9.61-4.97-14.23-6.08
					c-4.62-1.1-8.97-1.28-12.71-0.84c-3.75,0.41-6.87,1.48-9.24,2.67c-2.4,1.17-3.95,2.56-5.03,3.45c-0.48,0.48-0.86,0.86-1.12,1.13
					c-0.26,0.25-0.4,0.37-0.4,0.37s0.11-0.14,0.36-0.41c0.26-0.28,0.62-0.67,1.09-1.17c1.06-0.92,2.6-2.35,5.01-3.55
					c2.37-1.23,5.51-2.34,9.29-2.78c3.77-0.48,8.16-0.32,12.83,0.77c4.67,1.1,9.51,3.25,14.36,6.06c4.87,2.82,9.73,6.34,14.87,9.97
					c5.14,3.63,10.62,7.38,16.85,10.21c3.11,1.4,6.38,2.63,9.83,3.35c3.44,0.72,7.03,1.05,10.62,0.64
					c3.59-0.37,7.05-1.38,10.31-2.71c3.27-1.32,6.35-2.95,9.34-4.62c5.97-3.34,11.64-6.82,17.55-9.14c1.49-0.55,2.95-1.09,4.46-1.44
					c0.75-0.19,1.48-0.42,2.23-0.57c0.75-0.12,1.5-0.25,2.24-0.37c2.96-0.49,5.89-0.52,8.7-0.4c5.63,0.32,10.77,1.72,15.16,3.59
					c4.4,1.88,8.06,4.27,11.02,6.64c0.73,0.61,1.43,1.2,2.1,1.77c0.62,0.62,1.22,1.23,1.8,1.8c0.29,0.29,0.57,0.57,0.84,0.84
					c0.25,0.3,0.49,0.59,0.73,0.88c0.47,0.57,0.92,1.11,1.35,1.63c1.59,2.14,2.73,3.88,3.35,5.15c0.32,0.61,0.57,1.07,0.75,1.41
					C252.35,330.25,252.42,330.42,252.42,330.42z"/>
			</g>
			<g>
				<path fill="#FFFFFF" d="M222.2,372.19c0,0.02-0.17,0.06-0.51,0.13c-0.4,0.08-0.88,0.17-1.48,0.28
					c-0.64,0.13-1.43,0.26-2.35,0.34c-0.92,0.09-1.97,0.25-3.14,0.27c-0.59,0.03-1.2,0.05-1.83,0.08c-0.64,0.02-1.3-0.01-1.99-0.02
					c-1.38,0.01-2.84-0.13-4.38-0.25c-3.07-0.34-6.43-0.94-9.87-1.92c-3.43-1.02-6.58-2.32-9.36-3.68
					c-1.37-0.73-2.68-1.39-3.83-2.14c-0.58-0.37-1.16-0.69-1.69-1.05c-0.52-0.36-1.02-0.72-1.5-1.05c-0.97-0.65-1.78-1.34-2.5-1.92
					c-0.74-0.57-1.33-1.1-1.8-1.55c-0.44-0.41-0.8-0.75-1.09-1.03c-0.25-0.24-0.37-0.37-0.36-0.38c0.01-0.01,0.16,0.09,0.43,0.31
					c0.31,0.26,0.69,0.57,1.16,0.96c0.49,0.43,1.1,0.94,1.85,1.48c0.74,0.55,1.55,1.22,2.53,1.84c0.48,0.33,0.99,0.66,1.51,1.02
					c0.53,0.35,1.11,0.67,1.69,1.02c1.16,0.73,2.46,1.37,3.82,2.08c2.76,1.33,5.89,2.61,9.29,3.61c3.4,0.97,6.73,1.58,9.77,1.94
					c1.53,0.13,2.98,0.29,4.34,0.3c0.68,0.01,1.34,0.06,1.97,0.05c0.63-0.02,1.24-0.03,1.82-0.05c1.16,0,2.21-0.13,3.13-0.19
					c0.92-0.06,1.71-0.16,2.35-0.25c0.6-0.07,1.09-0.14,1.49-0.19C222.01,372.18,222.19,372.17,222.2,372.19z"/>
			</g>
		</g>
	</g>
	<g>
		<g>
			<path fill="#E8505B" d="M629.32,293.41l33.3-3.26l3.45,35.29l-33.3,3.26l5.74,58.64l-43.8,4.28l-5.74-58.64l-113.13,11.06
				l-3.71-26.72l95.35-189.09l45.25-4.43L629.32,293.41z M514.74,304.62l70.77-6.92l-10.46-106.97l-1.12-0.25l-2.86,8.14
				L514.74,304.62z"/>
		</g>
		<g opacity="0.4">
			<path d="M629.32,293.41l33.3-3.26l3.45,35.29l-33.3,3.26l5.74,58.64l-43.8,4.28l-5.74-58.64l-113.13,11.06l-3.71-26.72
				l95.35-189.09l45.25-4.43L629.32,293.41z M514.74,304.62l70.77-6.92l-10.46-106.97l-1.12-0.25l-2.86,8.14L514.74,304.62z"/>
		</g>
		<g>
			<path fill="#E8505B" d="M657.17,290.69l33.3-3.26l3.45,35.29l-33.3,3.26l5.74,58.64l-43.8,4.28l-5.74-58.64l-113.13,11.06
				l-3.71-26.72l95.35-189.09l45.25-4.42L657.17,290.69z M542.6,301.89l70.77-6.92L602.91,188l-1.12-0.26l-2.86,8.14L542.6,301.89z"
				/>
		</g>
		<g>
			<g>
				<path fill="#E8505B" d="M501.26,319.61c0.02,0.03-0.33,0.3-0.99,0.75c-0.65,0.46-1.61,1.1-2.8,1.88
					c-2.38,1.56-5.71,3.66-9.43,5.9c-3.73,2.24-7.14,4.19-9.64,5.56c-1.25,0.69-2.26,1.23-2.97,1.59c-0.71,0.36-1.11,0.55-1.13,0.52
					c-0.02-0.03,0.35-0.28,1.03-0.69c0.77-0.46,1.74-1.04,2.89-1.73c2.54-1.51,5.87-3.49,9.55-5.69c3.66-2.22,6.98-4.23,9.51-5.76
					c1.15-0.69,2.11-1.27,2.89-1.74C500.86,319.78,501.25,319.58,501.26,319.61z"/>
			</g>
			<g>
				<path fill="#E8505B" d="M513.16,287.67c0.02,0.03-0.47,0.39-1.38,1c-0.91,0.61-2.23,1.48-3.88,2.54
					c-3.3,2.11-7.9,4.96-13.02,8.04c-5.13,3.08-9.8,5.8-13.21,7.73c-1.71,0.96-3.1,1.73-4.06,2.24c-0.97,0.51-1.51,0.78-1.53,0.75
					c-0.02-0.03,0.49-0.36,1.43-0.92c1.02-0.61,2.36-1.41,3.98-2.38c3.43-2.05,8.04-4.81,13.13-7.85c5.08-3.06,9.67-5.84,13.1-7.9
					c1.62-0.98,2.96-1.78,3.97-2.4C512.61,287.94,513.14,287.64,513.16,287.67z"/>
			</g>
			<g>
				<path fill="#E8505B" d="M529.08,258.44c0.02,0.03-0.5,0.39-1.45,1.01c-0.95,0.62-2.34,1.5-4.07,2.57
					c-3.46,2.13-8.28,5.01-13.63,8.13c-5.36,3.11-10.25,5.87-13.82,7.81c-1.78,0.97-3.24,1.74-4.25,2.26
					c-1.01,0.52-1.58,0.79-1.6,0.76c-0.02-0.03,0.52-0.36,1.5-0.93c1.06-0.61,2.46-1.42,4.16-2.41c3.59-2.07,8.41-4.86,13.74-7.94
					c5.32-3.1,10.13-5.9,13.71-7.99c1.7-0.99,3.1-1.81,4.15-2.42C528.51,258.71,529.06,258.41,529.08,258.44z"/>
			</g>
			<g>
				<path fill="#E8505B" d="M612.22,277.78c0.02,0.03-0.34,0.29-0.99,0.73c-0.66,0.44-1.62,1.07-2.82,1.83
					c-2.4,1.52-5.74,3.56-9.48,5.74c-3.74,2.17-7.18,4.06-9.68,5.39c-1.25,0.66-2.27,1.19-2.98,1.54c-0.71,0.35-1.11,0.53-1.13,0.5
					c-0.02-0.03,0.35-0.27,1.03-0.68c0.78-0.45,1.75-1.02,2.9-1.68c2.55-1.47,5.9-3.39,9.6-5.52c3.68-2.16,7.01-4.11,9.55-5.6
					c1.15-0.67,2.12-1.23,2.9-1.69C611.81,277.95,612.2,277.75,612.22,277.78z"/>
			</g>
			<g>
				<path fill="#E8505B" d="M616.74,332.62c0.02,0.03-0.32,0.29-0.96,0.73c-0.63,0.44-1.56,1.06-2.72,1.81
					c-2.31,1.51-5.55,3.53-9.17,5.69c-3.62,2.16-6.95,4.03-9.37,5.35c-1.21,0.66-2.2,1.18-2.89,1.53c-0.69,0.35-1.08,0.53-1.1,0.49
					c-0.02-0.03,0.34-0.27,1-0.67c0.76-0.45,1.7-1.01,2.81-1.67c2.48-1.46,5.71-3.36,9.29-5.47c3.56-2.14,6.77-4.07,9.24-5.55
					c1.11-0.66,2.05-1.22,2.81-1.67C616.34,332.79,616.72,332.59,616.74,332.62z"/>
			</g>
			<g>
				<path fill="#E8505B" d="M618.99,351.75c0.02,0.03-0.32,0.29-0.96,0.73c-0.63,0.44-1.56,1.06-2.72,1.81
					c-2.31,1.51-5.55,3.53-9.17,5.69c-3.62,2.16-6.95,4.03-9.37,5.35c-1.21,0.66-2.2,1.18-2.89,1.53c-0.69,0.35-1.08,0.53-1.1,0.49
					s0.34-0.27,1-0.67c0.76-0.45,1.7-1.01,2.81-1.67c2.48-1.46,5.71-3.36,9.29-5.47c3.56-2.14,6.77-4.07,9.24-5.55
					c1.11-0.66,2.05-1.22,2.81-1.67C618.59,351.92,618.97,351.72,618.99,351.75z"/>
			</g>
			<g>
				<path fill="#E8505B" d="M621.24,370.88c0.02,0.03-0.32,0.29-0.96,0.73c-0.63,0.44-1.56,1.06-2.72,1.81
					c-2.31,1.51-5.55,3.53-9.17,5.69c-3.62,2.16-6.95,4.03-9.37,5.35c-1.21,0.66-2.2,1.18-2.89,1.53c-0.69,0.35-1.08,0.53-1.1,0.49
					c-0.02-0.03,0.34-0.27,1-0.67c0.76-0.45,1.7-1.01,2.81-1.67c2.48-1.46,5.71-3.36,9.29-5.47c3.56-2.14,6.77-4.07,9.24-5.55
					c1.11-0.66,2.05-1.22,2.81-1.67C620.84,371.05,621.22,370.85,621.24,370.88z"/>
			</g>
			<g>
				<path fill="#E8505B" d="M609.87,257.56c0.02,0.03-0.34,0.29-0.99,0.73c-0.66,0.44-1.62,1.07-2.82,1.83
					c-2.4,1.52-5.74,3.56-9.48,5.74c-3.74,2.17-7.18,4.06-9.68,5.39c-1.25,0.66-2.27,1.19-2.98,1.54c-0.71,0.35-1.11,0.53-1.13,0.5
					c-0.02-0.03,0.35-0.27,1.03-0.68c0.78-0.45,1.75-1.02,2.9-1.68c2.55-1.47,5.9-3.39,9.6-5.52c3.68-2.16,7.01-4.11,9.55-5.6
					c1.15-0.67,2.12-1.23,2.9-1.69C609.46,257.74,609.85,257.53,609.87,257.56z"/>
			</g>
			<g>
				<path fill="#E8505B" d="M607.52,237.35c0.02,0.03-0.34,0.29-0.99,0.73c-0.66,0.44-1.62,1.07-2.82,1.83
					c-2.4,1.52-5.74,3.56-9.48,5.74c-3.74,2.17-7.18,4.06-9.68,5.39c-1.25,0.66-2.27,1.19-2.98,1.54c-0.71,0.35-1.11,0.53-1.13,0.5
					c-0.02-0.03,0.35-0.27,1.03-0.68c0.78-0.45,1.75-1.01,2.9-1.68c2.55-1.47,5.9-3.39,9.6-5.52c3.68-2.16,7.01-4.11,9.55-5.6
					c1.15-0.67,2.12-1.23,2.9-1.69C607.12,237.52,607.51,237.32,607.52,237.35z"/>
			</g>
			<g>
				<path fill="#E8505B" d="M605.18,217.14c0.02,0.03-0.32,0.28-0.94,0.7c-0.63,0.42-1.54,1.02-2.68,1.75
					c-2.28,1.45-5.46,3.4-9.02,5.47c-3.57,2.07-6.84,3.86-9.23,5.12c-1.2,0.63-2.17,1.13-2.85,1.46c-0.68,0.33-1.06,0.5-1.08,0.47
					s0.33-0.26,0.98-0.65c0.75-0.43,1.67-0.97,2.77-1.61c2.44-1.4,5.63-3.23,9.15-5.25c3.5-2.05,6.66-3.91,9.09-5.34
					c1.09-0.63,2.02-1.17,2.77-1.61C604.79,217.3,605.16,217.11,605.18,217.14z"/>
			</g>
			<g>
				<path fill="#E8505B" d="M604.78,197.99c0.07,0.13-2.02,1.39-4.66,2.82c-2.64,1.43-4.84,2.49-4.91,2.36
					c-0.07-0.13,2.02-1.39,4.66-2.82C602.51,198.93,604.71,197.87,604.78,197.99z"/>
			</g>
			<g>
				<path fill="#E8505B" d="M544.82,228.24c0.02,0.03-0.5,0.39-1.45,1.01c-0.95,0.62-2.34,1.5-4.07,2.57
					c-3.46,2.13-8.28,5.01-13.63,8.13c-5.36,3.11-10.25,5.87-13.82,7.81c-1.78,0.97-3.24,1.74-4.25,2.26
					c-1.01,0.52-1.58,0.79-1.6,0.76c-0.02-0.03,0.52-0.36,1.5-0.93c1.06-0.61,2.46-1.42,4.16-2.41c3.59-2.07,8.41-4.86,13.74-7.94
					c5.32-3.1,10.13-5.9,13.71-7.99c1.7-0.99,3.1-1.81,4.15-2.42C544.25,228.51,544.81,228.21,544.82,228.24z"/>
			</g>
			<g>
				<path fill="#E8505B" d="M560.57,198.04c0.02,0.03-0.5,0.39-1.45,1.01c-0.95,0.62-2.34,1.5-4.07,2.57
					c-3.46,2.13-8.28,5.01-13.63,8.13c-5.36,3.11-10.25,5.87-13.82,7.81c-1.78,0.97-3.24,1.74-4.25,2.26
					c-1.01,0.52-1.58,0.79-1.6,0.76c-0.02-0.03,0.52-0.36,1.5-0.93c1.06-0.61,2.46-1.42,4.16-2.41c3.59-2.07,8.41-4.86,13.74-7.94
					c5.32-3.1,10.13-5.9,13.71-7.99c1.7-0.99,3.1-1.81,4.15-2.42C560,198.31,560.55,198.01,560.57,198.04z"/>
			</g>
			<g>
				<path fill="#E8505B" d="M574.83,168.05c0.02,0.03-0.5,0.39-1.45,1.01c-0.95,0.62-2.34,1.5-4.07,2.57
					c-3.46,2.13-8.28,5.01-13.63,8.13c-5.36,3.11-10.25,5.87-13.82,7.81c-1.78,0.97-3.24,1.74-4.25,2.26
					c-1.01,0.52-1.58,0.79-1.6,0.76c-0.02-0.03,0.52-0.36,1.5-0.93c1.06-0.61,2.46-1.42,4.16-2.41c3.59-2.07,8.41-4.86,13.74-7.94
					c5.32-3.1,10.13-5.9,13.71-7.99c1.7-0.99,3.1-1.81,4.16-2.42C574.25,168.32,574.81,168.02,574.83,168.05z"/>
			</g>
			<g>
				<path fill="#E8505B" d="M589.97,139.01c0.02,0.03-0.5,0.39-1.45,1.01c-0.95,0.62-2.34,1.5-4.07,2.57
					c-3.46,2.13-8.28,5.01-13.63,8.13c-5.36,3.11-10.25,5.87-13.82,7.81c-1.78,0.97-3.24,1.74-4.25,2.26
					c-1.01,0.52-1.58,0.79-1.6,0.76c-0.02-0.03,0.52-0.36,1.5-0.93c1.06-0.61,2.46-1.42,4.16-2.41c3.59-2.07,8.41-4.86,13.74-7.94
					c5.32-3.1,10.13-5.9,13.71-7.99c1.7-0.99,3.1-1.81,4.15-2.42C589.4,139.28,589.95,138.98,589.97,139.01z"/>
			</g>
			<g>
				<path fill="#FFFFFF" d="M645.81,172.16c0.01,0.01-0.15,0.26-0.49,0.73c-0.33,0.47-0.82,1.17-1.55,1.99
					c-1.41,1.66-3.69,3.93-6.99,6.06c-3.29,2.12-7.66,4.05-12.8,4.9c-2.57,0.42-5.32,0.52-8.13,0.24c-2.82-0.26-5.68-0.98-8.52-1.87
					c-5.69-1.84-10.86-4.23-15.79-5.7c-4.9-1.53-9.59-1.96-13.45-1.54c-3.87,0.41-6.81,1.71-8.61,2.91
					c-0.89,0.61-1.56,1.13-1.97,1.53c-0.42,0.38-0.66,0.58-0.67,0.57c-0.01-0.01,0.19-0.23,0.6-0.64c0.39-0.43,1.04-0.98,1.93-1.63
					c1.79-1.26,4.76-2.65,8.68-3.11c3.9-0.47,8.66-0.07,13.63,1.45c4.98,1.46,10.16,3.84,15.81,5.66c2.83,0.89,5.64,1.6,8.42,1.86
					c2.77,0.29,5.48,0.19,8.01-0.2c5.07-0.81,9.39-2.67,12.67-4.73c3.29-2.07,5.58-4.27,7.04-5.88c0.75-0.79,1.26-1.47,1.61-1.92
					C645.6,172.38,645.8,172.15,645.81,172.16z"/>
			</g>
			<g>
				<path fill="#FFFFFF" d="M625.07,125.17c0.02,0.03-0.39,0.35-1.15,0.91c-0.76,0.57-1.9,1.32-3.35,2.19
					c-1.45,0.88-3.23,1.82-5.26,2.77c-2.04,0.92-4.33,1.83-6.8,2.61c-2.47,0.76-4.87,1.32-7.08,1.72c-2.21,0.38-4.21,0.62-5.9,0.72
					c-1.69,0.11-3.06,0.14-4,0.1c-0.95-0.02-1.47-0.05-1.47-0.09c0-0.04,0.52-0.07,1.46-0.11c0.94-0.03,2.3-0.11,3.98-0.27
					c1.68-0.15,3.66-0.42,5.84-0.82c2.18-0.43,4.56-0.99,7.01-1.75c2.44-0.77,4.72-1.66,6.76-2.55c2.02-0.91,3.81-1.82,5.27-2.65
					c1.46-0.82,2.63-1.53,3.42-2.04C624.6,125.41,625.05,125.14,625.07,125.17z"/>
			</g>
			<g>
				<path fill="#FFFFFF" d="M570.4,245.11c-0.03,0.03-0.39-0.29-1.03-0.87c-0.72-0.65-1.64-1.47-2.74-2.45
					c-2.33-2.04-5.64-4.78-9.52-7.49c-1.94-1.35-3.88-2.49-5.76-3.26c-1.88-0.77-3.69-1.14-5.22-1.22c-3.1-0.17-4.89,0.78-4.91,0.66
					c-0.01-0.02,0.1-0.08,0.31-0.18c0.21-0.1,0.52-0.23,0.94-0.36c0.83-0.27,2.1-0.53,3.68-0.49c1.57,0.03,3.45,0.37,5.39,1.14
					c1.94,0.76,3.93,1.91,5.88,3.27c3.91,2.72,7.19,5.52,9.47,7.64c1.14,1.06,2.03,1.95,2.63,2.58
					C570.11,244.72,570.43,245.08,570.4,245.11z"/>
			</g>
			<g>
				<path fill="#FFFFFF" d="M653.62,263.81c0.01,0.01-0.11,0.13-0.34,0.35c-0.24,0.21-0.58,0.55-1.07,0.92
					c-0.95,0.78-2.4,1.81-4.33,2.87c-3.81,2.12-9.81,4.11-16.57,3.71c-6.76-0.41-12.47-3.13-16-5.69c-1.79-1.28-3.1-2.48-3.95-3.37
					c-0.44-0.43-0.73-0.81-0.95-1.04c-0.21-0.25-0.31-0.38-0.3-0.39c0.03-0.03,0.5,0.46,1.39,1.29c0.88,0.84,2.22,1.99,4.02,3.21
					c3.54,2.46,9.18,5.07,15.82,5.47c6.64,0.4,12.55-1.5,16.37-3.51c1.93-1,3.4-1.98,4.38-2.7
					C653.07,264.2,653.6,263.77,653.62,263.81z"/>
			</g>
			<g>
				<path fill="#FFFFFF" d="M691.38,322.39c0,0-0.13-0.14-0.35-0.42c-0.23-0.3-0.56-0.72-0.98-1.26c-0.81-1.14-2.21-2.67-4.1-4.54
					c-0.5-0.44-1.02-0.91-1.57-1.4c-0.28-0.24-0.56-0.5-0.85-0.75c-0.31-0.23-0.63-0.46-0.95-0.71c-0.65-0.48-1.33-0.98-2.03-1.5
					c-0.75-0.46-1.52-0.94-2.33-1.43c-3.25-1.9-7.19-3.71-11.79-4.92c-4.59-1.2-9.83-1.84-15.39-1.34
					c-5.56,0.46-11.39,2.16-16.86,5.22c-5.47,3.1-10.57,7.34-16.02,11.5c-2.73,2.08-5.57,4.14-8.64,5.93
					c-3.07,1.79-6.4,3.3-9.96,4.19c-3.55,0.93-7.22,1.11-10.77,0.87c-3.56-0.24-7.01-1-10.31-1.96c-6.62-1.95-12.59-4.91-18.19-7.8
					c-5.6-2.89-10.89-5.7-16.07-7.81c-5.17-2.11-10.22-3.57-14.94-4.02c-4.73-0.44-9.06-0.01-12.7,0.96
					c-3.66,0.93-6.6,2.43-8.77,3.94c-2.21,1.49-3.55,3.09-4.49,4.12c-0.41,0.55-0.73,0.97-0.95,1.28c-0.22,0.29-0.34,0.43-0.34,0.43
					s0.09-0.16,0.3-0.46c0.22-0.31,0.52-0.75,0.92-1.31c0.92-1.05,2.25-2.69,4.46-4.22c2.17-1.56,5.13-3.1,8.81-4.06
					c3.67-1,8.04-1.46,12.81-1.04c4.78,0.43,9.87,1.88,15.07,3.98c5.21,2.1,10.53,4.9,16.13,7.78c5.6,2.87,11.55,5.81,18.11,7.74
					c3.27,0.95,6.69,1.7,10.2,1.94c3.5,0.23,7.11,0.05,10.61-0.86c3.5-0.87,6.78-2.36,9.83-4.13c3.05-1.77,5.87-3.81,8.6-5.89
					c5.44-4.15,10.57-8.39,16.09-11.52c1.39-0.75,2.77-1.49,4.21-2.05c0.71-0.29,1.41-0.62,2.12-0.88c0.73-0.23,1.45-0.45,2.16-0.68
					c2.87-0.9,5.76-1.34,8.56-1.62c5.62-0.48,10.9,0.19,15.52,1.42c4.63,1.25,8.58,3.09,11.84,5.02c0.8,0.5,1.58,0.99,2.33,1.46
					c0.7,0.53,1.38,1.04,2.03,1.53c0.32,0.24,0.64,0.48,0.95,0.72c0.29,0.26,0.57,0.52,0.85,0.76c0.55,0.5,1.07,0.97,1.57,1.42
					c1.88,1.9,3.25,3.46,4.04,4.62c0.4,0.55,0.72,0.98,0.94,1.29C691.28,322.24,691.38,322.39,691.38,322.39z"/>
			</g>
			<g>
				<path fill="#FFFFFF" d="M667.32,368c0.01,0.02-0.16,0.09-0.48,0.2c-0.38,0.13-0.85,0.29-1.42,0.49
					c-0.62,0.22-1.38,0.46-2.28,0.67c-0.9,0.22-1.92,0.52-3.07,0.71c-0.58,0.11-1.18,0.22-1.8,0.34c-0.63,0.11-1.29,0.17-1.97,0.26
					c-1.36,0.2-2.83,0.27-4.38,0.37c-3.09,0.1-6.5-0.02-10.04-0.51c-3.54-0.53-6.84-1.37-9.78-2.33c-1.45-0.53-2.85-1-4.1-1.58
					c-0.63-0.28-1.25-0.52-1.82-0.81c-0.57-0.29-1.11-0.57-1.64-0.83c-1.06-0.5-1.95-1.08-2.75-1.54c-0.81-0.46-1.47-0.9-2-1.28
					c-0.49-0.35-0.9-0.63-1.23-0.87c-0.28-0.2-0.42-0.32-0.41-0.33s0.17,0.07,0.47,0.24c0.34,0.21,0.76,0.47,1.28,0.78
					c0.55,0.35,1.22,0.77,2.04,1.2c0.81,0.44,1.71,0.99,2.77,1.47c0.52,0.25,1.07,0.52,1.64,0.79c0.57,0.27,1.19,0.5,1.82,0.77
					c1.25,0.56,2.63,1.01,4.08,1.52c2.92,0.93,6.2,1.75,9.71,2.27c3.51,0.48,6.88,0.62,9.95,0.55c1.53-0.08,2.99-0.13,4.34-0.32
					c0.68-0.08,1.34-0.13,1.96-0.23c0.62-0.1,1.22-0.21,1.8-0.3c1.15-0.16,2.17-0.44,3.07-0.63c0.91-0.18,1.67-0.4,2.3-0.58
					c0.58-0.16,1.06-0.29,1.45-0.39C667.14,368.02,667.32,367.98,667.32,368z"/>
			</g>
		</g>
	</g>
	<g>
		<g>
			<g>
				<path fill="#455A64" d="M459.08,221.54l-7-1.09l-43.37-13.99l-25.37-7.33c-5.93-2.05-13.61-2.76-21.95,1.49
					c-11.98,6.11-45.05,36.88-45.05,36.88l23.81,24.55l-11.22,49.68c12.55,35.68,37.12,39.77,37.12,39.77s16.14,1.45,35.2-5.82
					c22.82-8.7,46.77-29.09,49.77-37.86c1.8-5.26,3.28-16.32,4.47-28.81l36.12-14.72l9.79-49.97L459.08,221.54z"/>
				<g>
					<path fill="#263238" d="M406.32,309.97c0.01,0.01-0.11,0.12-0.35,0.31c-0.25,0.18-0.59,0.48-1.08,0.79
						c-0.96,0.66-2.42,1.52-4.34,2.33c-3.8,1.64-9.73,2.87-16.02,1.51c-6.29-1.38-11.17-4.97-13.94-8.05
						c-1.41-1.54-2.38-2.93-2.97-3.93c-0.32-0.49-0.5-0.9-0.65-1.17c-0.14-0.27-0.21-0.42-0.19-0.43c0.04-0.02,0.37,0.53,1.01,1.49
						c0.64,0.96,1.65,2.3,3.07,3.79c2.8,2.97,7.62,6.44,13.78,7.79c6.16,1.34,11.99,0.19,15.77-1.34c1.91-0.76,3.39-1.56,4.37-2.16
						C405.77,310.3,406.29,309.94,406.32,309.97z"/>
				</g>
				<g>
					<path fill="#263238" d="M392.6,208.51c0.01,0,0.04,0.08,0.08,0.24c0.05,0.19,0.11,0.42,0.18,0.71
						c0.15,0.62,0.36,1.55,0.61,2.74c0.48,2.39,1.2,5.86,1.43,10.23c0.09,2.18,0.05,4.6-0.41,7.14c-0.46,2.54-1.36,5.2-2.85,7.7
						c-1.5,2.5-3.58,4.78-5.93,6.87c-2.35,2.1-4.95,4.05-7.6,6.06c-5.63,4.24-11.12,8.06-16.03,11.54
						c-4.91,3.47-9.23,6.6-12.69,9.22l-0.11,0.08l-0.11-0.09c-3.09-2.5-5.43-4.66-6.95-6.25c-0.75-0.8-1.29-1.45-1.63-1.92
						c-0.17-0.23-0.27-0.42-0.35-0.55c-0.07-0.13-0.11-0.19-0.1-0.2c0.02-0.01,0.19,0.24,0.53,0.68c0.36,0.44,0.91,1.07,1.68,1.84
						c1.54,1.54,3.92,3.65,7.03,6.11l-0.22,0c3.43-2.66,7.73-5.83,12.63-9.32c4.89-3.5,10.37-7.34,15.99-11.57
						c2.64-2.01,5.24-3.95,7.57-6.02c2.33-2.07,4.38-4.3,5.86-6.74c1.47-2.44,2.37-5.04,2.83-7.53c0.47-2.5,0.53-4.89,0.47-7.05
						c-0.18-4.34-0.84-7.81-1.26-10.21c-0.22-1.16-0.39-2.08-0.52-2.76c-0.05-0.29-0.09-0.53-0.13-0.72
						C392.6,208.6,392.59,208.52,392.6,208.51z"/>
				</g>
			</g>
			<g>
				<path fill="#263238" d="M580.93,231.03c10.16-8.7,13.59-24.37,8.01-36.53c-4.77-0.49-9.54-0.98-14.31-1.48
					c7.26-3.81,11.64-12.48,10.4-20.59c-7.71,8.32-21.06,10.78-31.23,5.75c-6.68-3.3-12.1-9.45-19.44-10.74
					c-6.66-1.17-13.21,1.95-19.59,4.22c-6.37,2.27-14.1,3.52-19.38-0.71c-4.19-3.35-5.48-9.23-5.21-14.58
					c0.27-5.36,1.82-10.58,2.15-15.93c0.65-10.5-3.9-21.08-11.59-28.22c-2.41-7.62-8.18-14.19-15.57-17.31
					c-8.94-3.78-19.87-2.35-27.54,3.59c-3.13,2.42-5.77,5.55-9.32,7.3c-4.01,1.98-8.67,1.98-13.01,3.05
					c-4.34,1.07-8.89,3.94-9.36,8.39l-1.75,9.11c-0.29,0.65-0.6,1.3-0.96,1.92c-3.69,6.47-11.23,10.72-12.87,17.98
					c-0.92,4.07,0.22,8.48-1.15,12.42c-1.81,5.19-7.41,8.11-10.02,12.94c-3.58,6.64-1.15,18.26,4.58,23.17
					c5.73,4.91,17.54,10.1,24.92,11.67c2-7.67,3.77-15.87,5.48-24.26c3.01,2.89,6.16,5.64,9.3,8.37
					c8.22,7.14,16.61,14.39,22.31,23.66c10.83,17.62,11.01,40.98,24.65,56.53c2.67,3.05,5.92,5.77,9.8,6.94
					c3.88,1.18,8.48,0.55,11.35-2.31c3.39-3.38,3.83-9.08,7.57-12.05c4.98-3.95,12.26-0.8,17.62,2.63c3.88,2.48,7.75,5.1,12.15,6.46
					s9.51,1.27,13.24-1.41c3.74-2.68,5.38-8.4,2.68-12.13c-1.08-1.49-2.69-2.53-3.76-4.03c-1.07-1.5-1.38-3.87,0.08-4.98
					c1.62-1.23,3.88-0.04,5.64,0.99c8.55,5.03,19.38,5.99,28.68,2.53c9.3-3.46,16.87-11.26,20.06-20.65
					C590.64,233.5,585.53,232.9,580.93,231.03z"/>
				<g>
					<path fill="#263238" d="M572.02,152.55c0,0,0.48,0.33,1.29,1.11c0.79,0.78,1.96,1.99,2.95,3.89c0.48,0.95,0.9,2.08,1.1,3.37
						c0.18,1.28,0.11,2.76-0.49,4.18c-0.58,1.41-1.59,2.79-3.07,3.73c-0.74,0.46-1.6,0.81-2.52,0.91c-0.93,0.11-1.9-0.04-2.8-0.41
						c-3.71-1.51-5.57-5.8-9.59-7.71c-3.91-2.07-8.91-2.21-13.72-1.11c-4.86,1.11-9.48,3.71-14.22,6.37
						c-4.72,2.64-9.76,5.51-15.55,6.5c-2.86,0.53-5.81,0.56-8.6-0.06c-1.39-0.33-2.73-0.82-3.98-1.48
						c-1.24-0.67-2.36-1.53-3.36-2.49c-1.98-1.95-3.37-4.35-4.31-6.82c-0.95-2.47-1.47-5.02-1.76-7.52
						c-0.53-5.02-0.11-9.79-0.06-14.23c0.09-4.43-0.17-8.6-1.21-12.22c-0.49-1.81-1.16-3.49-1.91-5.01
						c-0.74-1.53-1.56-2.9-2.42-4.13c-1.71-2.46-3.52-4.33-5.12-5.7c-1.59-1.39-2.98-2.27-3.91-2.88c-0.46-0.27-0.82-0.49-1.09-0.64
						c-0.24-0.15-0.37-0.23-0.36-0.24c0-0.01,0.14,0.06,0.39,0.19c0.27,0.15,0.64,0.35,1.12,0.6c0.95,0.59,2.36,1.44,3.99,2.82
						c1.63,1.36,3.47,3.22,5.22,5.69c0.88,1.23,1.73,2.61,2.48,4.15c0.77,1.53,1.45,3.22,1.97,5.05c1.08,3.67,1.36,7.87,1.29,12.32
						c-0.03,4.45-0.43,9.22,0.11,14.17c0.29,2.47,0.82,4.98,1.75,7.4c0.93,2.41,2.28,4.75,4.2,6.63c0.97,0.92,2.04,1.76,3.24,2.4
						c1.2,0.63,2.5,1.11,3.85,1.43c2.71,0.6,5.58,0.57,8.39,0.05c5.68-0.97,10.66-3.79,15.39-6.43c4.74-2.65,9.4-5.27,14.36-6.39
						c2.46-0.54,4.94-0.81,7.33-0.62c1.2,0.06,2.36,0.3,3.49,0.57c1.11,0.34,2.21,0.7,3.2,1.25c4.15,2.03,6.01,6.34,9.53,7.75
						c1.71,0.74,3.61,0.46,5.01-0.44c1.42-0.88,2.41-2.2,2.98-3.56c0.59-1.36,0.67-2.78,0.51-4.04c-0.18-1.26-0.57-2.37-1.04-3.31
						c-0.95-1.88-2.08-3.11-2.84-3.91c-0.39-0.4-0.7-0.69-0.91-0.88C572.12,152.66,572.02,152.55,572.02,152.55z"/>
				</g>
				<g>
					<path fill="#263238" d="M408.55,210.27c0,0-0.04-0.15-0.08-0.45c-0.05-0.3-0.09-0.75-0.27-1.31c-0.3-1.13-0.99-2.77-2.46-4.46
						c-1.49-1.66-3.71-3.35-6.63-4.61c-2.9-1.32-6.49-1.97-10.44-2.72c-3.91-0.77-8.4-1.58-12.42-4.26
						c-3.95-2.67-7.11-7.21-7.92-12.56c-0.82-5.32,0.9-11.3,4.98-15.55c4.14-4.25,9.99-6.35,14.77-10.09
						c1.18-0.96,2.25-2.02,3.15-3.2c0.84-1.22,1.53-2.54,1.92-3.96c0.79-2.84,0.73-5.81,1-8.7c0.13-1.45,0.35-2.89,0.8-4.27
						c0.44-1.38,1.17-2.66,2.11-3.74c1.94-2.13,4.61-3.25,7.15-3.98c2.57-0.75,5.12-1.21,7.54-1.88c2.41-0.67,4.68-1.57,6.58-2.94
						c1.93-1.32,3.53-2.96,4.94-4.62c1.41-1.67,2.61-3.39,3.72-5.06c2.21-3.35,4.1-6.47,6.11-8.97c1.98-2.52,3.99-4.45,5.83-5.76
						c1.84-1.32,3.47-2.02,4.6-2.37c1.13-0.36,1.75-0.44,1.75-0.44c0.01,0.04-0.61,0.15-1.72,0.54c-1.11,0.38-2.72,1.1-4.52,2.43
						c-1.81,1.32-3.78,3.25-5.72,5.77c-1.98,2.5-3.84,5.62-6.03,8.99c-1.11,1.68-2.31,3.42-3.72,5.12c-1.41,1.69-3.03,3.35-5,4.72
						c-1.94,1.41-4.28,2.35-6.71,3.03c-2.44,0.68-4.99,1.15-7.53,1.9c-2.52,0.73-5.08,1.83-6.92,3.85c-0.88,1.03-1.58,2.23-2,3.56
						c-0.43,1.32-0.64,2.73-0.77,4.16c-0.27,2.85-0.19,5.85-1.01,8.8c-0.4,1.47-1.12,2.85-2,4.12c-0.93,1.24-2.04,2.32-3.24,3.3
						c-2.44,1.91-5.12,3.37-7.69,4.89c-2.56,1.51-5.04,3.11-7.04,5.15c-3.97,4.12-5.66,9.95-4.88,15.12
						c0.77,5.21,3.85,9.66,7.69,12.28c3.91,2.63,8.35,3.47,12.25,4.26c3.93,0.76,7.56,1.44,10.49,2.81c2.94,1.3,5.18,3.04,6.67,4.74
						c1.47,1.73,2.14,3.42,2.41,4.57c0.16,0.57,0.19,1.03,0.22,1.33C408.55,210.12,408.55,210.27,408.55,210.27z"/>
				</g>
				<g>
					<path fill="#455A64" d="M488.39,120.5c-0.01,0.03-0.28-0.04-0.77-0.2c-0.49-0.15-1.17-0.43-2-0.81
						c-1.66-0.76-3.85-2.05-5.97-3.87c-2.11-1.82-3.72-3.8-4.72-5.32c-0.5-0.76-0.87-1.4-1.1-1.86c-0.23-0.46-0.34-0.71-0.31-0.73
						c0.08-0.04,0.64,0.93,1.71,2.38c1.06,1.45,2.68,3.35,4.75,5.14c2.08,1.78,4.2,3.1,5.79,3.93
						C487.38,120.01,488.43,120.42,488.39,120.5z"/>
				</g>
				<g>
					<path fill="#455A64" d="M521.64,188.71c-0.02,0.05-0.63-0.15-1.76-0.4c-1.13-0.25-2.79-0.5-4.85-0.6
						c-2.07-0.09-4.53,0-7.27,0.21c-2.74,0.19-5.76,0.47-8.95,0.4c-3.19-0.08-6.25-0.56-8.83-1.66c-2.57-1.09-4.58-2.7-5.92-4.32
						c-1.34-1.63-2.01-3.25-2.28-4.39c-0.13-0.57-0.2-1.02-0.21-1.33c-0.02-0.31-0.03-0.47-0.01-0.47c0.06-0.01,0.09,0.64,0.41,1.75
						c0.32,1.1,1.02,2.65,2.36,4.2c1.33,1.55,3.32,3.08,5.82,4.12c2.51,1.04,5.51,1.5,8.65,1.58c3.15,0.07,6.16-0.19,8.9-0.36
						c2.74-0.18,5.23-0.23,7.32-0.1c2.09,0.14,3.76,0.45,4.88,0.77c0.56,0.16,0.99,0.29,1.28,0.41
						C521.49,188.62,521.64,188.69,521.64,188.71z"/>
				</g>
				<g>
					<path fill="#455A64" d="M580.57,234.18c0,0.01-0.09,0.05-0.29,0.13c-0.2,0.08-0.49,0.21-0.89,0.29
						c-0.8,0.19-2.06,0.29-3.58-0.16c-1.5-0.46-3.24-1.42-4.8-3.03c-1.6-1.59-2.78-3.9-3.86-6.47c-1.09-2.56-2.01-5.51-3.79-8.22
						c-0.84-1.39-1.97-2.64-3.17-3.87c-1.28-1.16-2.66-2.29-4.24-3.21c-6.28-3.78-14.53-5.34-22.95-4.84
						c-8.47,0.44-16.43,2.1-23.8,2.62c-7.36,0.66-14.12-0.15-19.41-2.01c-5.32-1.82-9.04-4.66-11.12-6.97
						c-0.55-0.55-0.96-1.12-1.33-1.59c-0.38-0.47-0.66-0.89-0.87-1.25c-0.2-0.33-0.36-0.59-0.49-0.8c-0.11-0.18-0.16-0.28-0.15-0.28
						c0.01,0,0.07,0.08,0.2,0.25c0.13,0.2,0.31,0.45,0.53,0.77c0.22,0.34,0.51,0.76,0.9,1.21c0.38,0.46,0.8,1.01,1.36,1.55
						c2.11,2.25,5.82,5,11.09,6.76c5.25,1.79,11.93,2.56,19.25,1.87c7.33-0.54,15.29-2.21,23.82-2.66
						c8.49-0.5,16.85,1.08,23.23,4.95c1.6,0.94,3.01,2.1,4.31,3.29c1.23,1.26,2.38,2.55,3.22,3.97c1.81,2.79,2.7,5.76,3.77,8.32
						c1.04,2.56,2.18,4.84,3.72,6.41c1.51,1.59,3.19,2.57,4.65,3.04c1.47,0.47,2.71,0.41,3.5,0.25
						C580.17,234.35,580.56,234.14,580.57,234.18z"/>
				</g>
			</g>
			<g>
				<g>
					<g>
						<g>
							<g>
								<g>
									<g>
										<g>
											<g>
												<g>
													<g>
														<g>
															<g>
																<g>
																	<g>
																		<path fill="#FFBE9D" d="M423.29,120.49c-3.88-0.1-7.19,2.79-7.62,6.64l0,0l-8.09,84.21
																			c-1.4,11.84,14.09,37.23,26.78,38.63l0,0c12.82,1.41,14.07-4.8,15.73-16.02c2.78-18.75,3.71-25.8,3.7-25.69
																			c0,0,16.5-0.55,22.62-21.18c3.04-10.26,4.78-27.51,5.75-41.67c0.87-12.75-5.46-29.36-18.23-29.68L423.29,120.49z"
																			/>
																	</g>
																</g>
															</g>
														</g>
													</g>
												</g>
											</g>
											<g>
												<g>
													<g>
														<g>
															<g>
																<g>
																	<g>
																		<g>
																			<path fill="#263238" d="M476.58,156.59c-0.14,1.43-1.46,2.5-2.97,2.38c-1.5-0.12-2.6-1.37-2.46-2.8
																				c0.14-1.43,1.46-2.5,2.96-2.38C475.62,153.9,476.72,155.16,476.58,156.59z"/>
																		</g>
																	</g>
																</g>
															</g>
														</g>
													</g>
												</g>
												<g>
													<g>
														<g>
															<g>
																<g>
																	<g>
																		<g>
																			<g>
																				<path fill="#263238" d="M477.73,151.14c-0.31,0.38-2.48-1-5.4-0.79c-2.93,0.17-4.97,1.82-5.31,1.49
																					c-0.17-0.15,0.13-0.81,1.02-1.56c0.87-0.74,2.4-1.51,4.22-1.63c1.82-0.12,3.4,0.45,4.33,1.07
																					C477.53,150.35,477.88,150.97,477.73,151.14z"/>
																			</g>
																		</g>
																	</g>
																</g>
															</g>
														</g>
													</g>
												</g>
											</g>
											<g>
												<g>
													<g>
														<g>
															<g>
																<g>
																	<g>
																		<g>
																			<g>
																				<path fill="#263238" d="M450.85,158.11c-0.35,0.35-2.37-1.24-5.3-1.32c-2.93-0.12-5.12,1.33-5.43,0.96
																					c-0.15-0.16,0.21-0.8,1.17-1.45c0.94-0.65,2.53-1.27,4.36-1.21c1.83,0.06,3.34,0.78,4.21,1.49
																					C450.73,157.31,451.02,157.96,450.85,158.11z"/>
																			</g>
																		</g>
																	</g>
																</g>
															</g>
														</g>
													</g>
												</g>
											</g>
											<g>
												<g>
													<g>
														<g>
															<g>
																<g>
																	<g>
																		<g>
																			<path fill="#263238" d="M456.31,173.6c0.01-0.17,1.86-0.24,4.84-0.23c0.75,0.02,1.48-0.03,1.67-0.52
																				c0.25-0.51,0.04-1.35-0.21-2.27c-0.46-1.89-0.94-3.87-1.45-5.94c-1.99-8.45-3.32-15.36-2.98-15.44
																				c0.34-0.08,2.23,6.71,4.22,15.16c0.47,2.08,0.93,4.07,1.35,5.96c0.17,0.88,0.53,1.9,0,2.96
																				c-0.27,0.53-0.87,0.86-1.36,0.92c-0.49,0.08-0.91,0.04-1.28,0.01C458.13,173.99,456.3,173.76,456.31,173.6z"/>
																		</g>
																	</g>
																</g>
															</g>
														</g>
													</g>
												</g>
											</g>
											<g>
												<g>
													<g>
														<g>
															<g>
																<g>
																	<g>
																		<path fill="#EB996E" d="M453.79,208.27c0,0-14.3-0.95-27.23-11.24c0,0,5.21,15.43,26.56,16.23L453.79,208.27z"/>
																	</g>
																</g>
															</g>
														</g>
													</g>
												</g>
											</g>
										</g>
									</g>
								</g>
								<g>
									<g>
										<g>
											<g>
												<g>
													<g>
														<g>
															<path fill="#263238" d="M451.26,153.1c-0.46,0.71-3.23-0.32-6.67-0.71c-3.44-0.45-6.37-0.1-6.65-0.9
																c-0.12-0.38,0.52-1,1.79-1.5c1.26-0.5,3.15-0.81,5.22-0.56c2.06,0.25,3.83,1,4.93,1.78
																C450.99,152,451.47,152.76,451.26,153.1z"/>
														</g>
													</g>
												</g>
											</g>
										</g>
									</g>
								</g>
								<g>
									<g>
										<g>
											<g>
												<g>
													<g>
														<g>
															<path fill="#263238" d="M477.29,147.21c-0.48,0.69-2.53,0.1-4.96,0.2c-2.43,0.01-4.46,0.68-4.97,0
																c-0.22-0.33,0.07-1.01,0.93-1.69c0.85-0.67,2.31-1.26,3.98-1.3c1.67-0.03,3.15,0.5,4.02,1.14
																C477.19,146.21,477.5,146.88,477.29,147.21z"/>
														</g>
													</g>
												</g>
											</g>
										</g>
									</g>
								</g>
							</g>
						</g>
					</g>
				</g>
				<path fill="#EB996E" d="M449.23,178.91c1.33-0.9,3.01-1.25,4.58-0.96c0.8,0.15,1.61,0.48,2.13,1.11
					c0.69,0.82,0.77,1.98,0.74,3.06c-0.02,0.64-0.06,1.3-0.28,1.9c-0.22,0.6-0.64,1.16-1.22,1.43c-0.6,0.28-1.3,0.21-1.96,0.1
					c-1.09-0.18-2.18-0.49-3.09-1.12c-0.91-0.62-1.62-1.6-1.73-2.7c-0.1-1.1,0.51-2.28,1.55-2.66"/>
				<g>
					<path fill="#263238" d="M457.12,185.33c-0.22,0.08-0.6-0.56-1.3-1.44c-0.7-0.88-1.77-1.99-3.21-2.81
						c-1.44-0.82-2.94-1.18-4.05-1.33c-1.11-0.16-1.86-0.16-1.9-0.39c-0.05-0.2,0.65-0.59,1.92-0.72c1.25-0.13,3.08,0.09,4.81,1.08
						c1.72,0.98,2.85,2.44,3.38,3.59C457.3,184.47,457.32,185.27,457.12,185.33z"/>
				</g>
			</g>
			<path fill="#263238" d="M406.45,205.56c6.94-1.38,12.3-7.35,14.69-14.02c2.39-6.66,2.27-13.95,1.63-21
				c-0.08-0.91-0.23-1.92-0.95-2.48c-1.05-0.81-2.56-0.15-3.69,0.54c-4.38,2.67-8.58,5.62-12.58,8.84c-3.72,3-7.4,6.45-8.83,11
				c-2.19,6.99,2.44,15.34,9.53,17.19"/>
			<g>
				<path fill="#FFBE9D" d="M566.21,203.93l-32.78-52.68l-9.05-18.54c0,0-2.89-3.83-5.89-7.1c-4.93-5.37-9.79-1.2-9.79-1.2
					s-0.71-2.05-3.29-2.03c-3.08,0.03-4.53,2.31-4.53,2.31s-1.34-1.49-5.06-1.72c-0.8-0.05-1.6,0.26-2.36,0.76
					c-1.22-1.07-3.45-2.62-5.61-1.83c-1.68,0.61-11.87,8.36-14.38,12.26c-1.24,1.93,1.06,4.43,4.16,3.26
					c1.36-0.52,2.73-0.93,3.72-1.51c1.66-0.97,2.52-2.03,2.52-2.03s-2.57,4.5-0.01,5.29c1.07,0.33,3.34,0.09,4.82-1.17
					c0.98-0.83,2.11-1.9,3.18-2.94c-0.04,0.06-0.09,0.12-0.13,0.18c-1.42,2.1,2.28,5.21,4.08,3.95c0.9-0.63,1.69-1.27,2.39-1.89
					c4.16,3.02-1.62,6.89-4.06,6.69c-3.78-0.31-8.2-0.29-11.28-0.04c-2.12,0.18-4.02,0.68-5.16,1.86c-1.38,1.42,0.07,4.4,2.02,4.7
					c3.59,0.55,8.17,1.35,12.93,2.58c5.61,1.44,20.27,6.21,20.27,6.21l1.43,1.16l19.94,48.61l-34.13,7.23l-7.62,43.24l61.6-16.71
					C568.03,235.6,574.61,217.13,566.21,203.93z"/>
				<g>
					<path fill="#EB996E" d="M512.93,159.29c-0.01,0.02-0.27-0.05-0.78-0.19c-0.55-0.16-1.29-0.37-2.21-0.63
						c-1.97-0.58-4.72-1.4-8.1-2.41c-1.71-0.52-3.58-1.08-5.59-1.69c-2.01-0.62-4.15-1.26-6.44-1.84c-2.28-0.58-4.69-1.16-7.22-1.49
						c-1.23-0.19-2.62-0.07-3.92-0.71c-0.32-0.16-0.63-0.36-0.88-0.66c-0.12-0.15-0.23-0.31-0.3-0.54l-0.08-0.53
						c-0.08-0.69-0.09-1.41,0.13-2.12c0.23-0.72,0.79-1.31,1.42-1.64c0.62-0.35,1.28-0.55,1.91-0.76c1.31-0.42,2.66-0.49,3.95-0.49
						c2.6,0.03,5.05,0.39,7.39,0.3c1.17-0.04,2.31-0.14,3.39-0.33c1.09-0.2,2.13-0.48,3.15-0.74c2.02-0.54,4.01-0.93,5.83-0.74
						c1.81,0.15,3.38,0.66,4.7,1.2c1.32,0.54,2.4,1.12,3.28,1.61c0.87,0.49,1.53,0.9,1.98,1.17c0.44,0.28,0.67,0.44,0.66,0.45
						s-0.26-0.11-0.72-0.36c-0.51-0.27-1.18-0.63-2.02-1.09c-0.89-0.46-1.97-1.01-3.29-1.52c-1.31-0.51-2.86-0.98-4.62-1.1
						c-1.76-0.16-3.67,0.24-5.69,0.79c-1.01,0.27-2.06,0.57-3.18,0.78c-1.12,0.21-2.27,0.32-3.46,0.36
						c-2.39,0.11-4.87-0.24-7.41-0.27c-1.27,0-2.57,0.08-3.79,0.47c-1.22,0.4-2.62,0.83-2.99,2.07c-0.19,0.59-0.18,1.25-0.11,1.9
						l0.06,0.46c0.03,0.1,0.11,0.23,0.19,0.33c0.19,0.22,0.44,0.39,0.71,0.52c1.12,0.56,2.46,0.47,3.75,0.66
						c2.57,0.34,4.99,0.94,7.27,1.53c2.29,0.6,4.44,1.25,6.44,1.89c2,0.63,3.86,1.21,5.57,1.75c3.36,1.07,6.1,1.95,8.06,2.57
						c0.91,0.3,1.64,0.54,2.18,0.72C512.68,159.17,512.93,159.27,512.93,159.29z"/>
				</g>
				<g>
					<path fill="#EB996E" d="M487.66,121.98c0.05,0.08-1.54,1.01-3.9,2.79c-1.18,0.89-2.53,2.02-3.92,3.4
						c-1.4,1.36-2.87,2.96-4.61,4.45c-0.85,0.72-1.65,1.5-1.85,2.47c-0.1,0.47-0.06,0.96,0.17,1.34c0.22,0.39,0.61,0.65,1.03,0.8
						c0.87,0.29,1.8,0.21,2.64,0.05c0.84-0.16,1.61-0.39,2.29-0.66c2.73-1.11,3.99-2.56,4.06-2.46c0.02,0.02-0.27,0.38-0.9,0.93
						c-0.63,0.55-1.63,1.27-3.02,1.87c-0.69,0.3-1.48,0.56-2.35,0.74c-0.86,0.18-1.86,0.3-2.88-0.02c-0.5-0.16-1.01-0.49-1.31-1
						c-0.31-0.5-0.36-1.13-0.25-1.7c0.23-1.18,1.16-2.04,2.01-2.76c1.71-1.47,3.18-3.04,4.61-4.4c1.43-1.37,2.82-2.48,4.04-3.35
						c1.21-0.87,2.25-1.49,2.97-1.91C487.24,122.16,487.65,121.95,487.66,121.98z"/>
				</g>
				<g>
					<path fill="#EB996E" d="M500.17,126.12c0.03,0.02-0.39,0.51-1.16,1.38c-0.83,0.92-1.94,2.14-3.29,3.62
						c-1.42,1.54-3.09,3.33-4.93,5.32c-0.95,1.02-2.08,1.97-3.46,2.64c-0.69,0.33-1.46,0.58-2.29,0.57
						c-0.82-0.02-1.68-0.26-2.3-0.92c-0.33-0.34-0.49-0.8-0.55-1.25c-0.04-0.45,0.03-0.88,0.13-1.29c0.23-0.81,0.61-1.52,1.06-2.19
						l0.01-0.01l0.02-0.02c1.76-1.87,3.4-3.63,4.88-5.25c1.5-1.59,2.94-2.89,4.11-4c0.58-0.55,1.12-1.07,1.71-1.38
						c0.61-0.31,1.18-0.3,1.62-0.35c0.88-0.06,1.4,0.02,1.36,0.11c0.02-0.04-0.47-0.05-1.34,0.06c-0.42,0.08-1,0.1-1.51,0.4
						c-0.53,0.3-1.03,0.82-1.61,1.39c-1.14,1.14-2.55,2.46-4.02,4.06c-1.44,1.62-3.08,3.41-4.84,5.31l0.02-0.03
						c-0.41,0.6-0.77,1.3-0.97,2.02c-0.1,0.36-0.14,0.74-0.12,1.1c0.05,0.35,0.17,0.69,0.41,0.95c0.46,0.5,1.23,0.74,1.92,0.75
						c0.72,0.01,1.42-0.21,2.07-0.52c1.29-0.62,2.41-1.54,3.33-2.51c1.87-1.96,3.57-3.73,5.01-5.25c1.4-1.43,2.55-2.62,3.41-3.51
						c0.37-0.37,0.69-0.68,0.95-0.94C500.03,126.21,500.15,126.11,500.17,126.12z"/>
				</g>
				<g>
					<path fill="#EB996E" d="M515.49,130.94c0.05,0.04-0.05,0.3-0.4,0.58c-0.34,0.27-0.96,0.53-1.66,0.41
						c-0.7-0.12-1.2-0.57-1.42-0.95c-0.23-0.38-0.24-0.66-0.17-0.68c0.07-0.03,0.2,0.19,0.46,0.45c0.26,0.26,0.69,0.57,1.22,0.66
						c0.53,0.09,1.04-0.05,1.37-0.21C515.23,131.06,515.43,130.89,515.49,130.94z"/>
				</g>
				<g>
					<path fill="#EB996E" d="M516.69,135.53c-0.11,0.09-0.86-0.66-1.52-1.78c-0.66-1.12-0.96-2.14-0.83-2.19
						c0.14-0.06,0.64,0.84,1.28,1.93C516.25,134.57,516.8,135.44,516.69,135.53z"/>
				</g>
				<g>
					<path fill="#EB996E" d="M518.9,153.41c-0.05,0.03-0.5-0.74-0.95-2.08c-0.45-1.34-0.85-3.29-0.82-5.47
						c0.03-2.18,0.48-4.11,0.97-5.44c0.48-1.33,0.95-2.08,1-2.06c0.17,0.05-1.42,3.24-1.45,7.51
						C517.56,150.13,519.06,153.36,518.9,153.41z"/>
				</g>
				<g>
					<path fill="#EB996E" d="M545.82,222.7c-0.1,0.01-0.2-1.06-0.72-2.69c-0.25-0.82-0.65-1.75-1.18-2.75
						c-0.55-0.98-1.24-2.01-2.09-2.99c-0.86-0.97-1.8-1.79-2.7-2.46c-0.92-0.65-1.79-1.17-2.57-1.53c-1.55-0.73-2.6-0.96-2.57-1.06
						c0.01-0.04,0.27,0,0.75,0.1c0.48,0.09,1.16,0.3,1.97,0.62c0.82,0.32,1.74,0.82,2.7,1.47c0.95,0.67,1.92,1.51,2.81,2.51
						c0.88,1.01,1.58,2.09,2.12,3.11c0.52,1.04,0.9,2.02,1.11,2.87c0.22,0.85,0.34,1.55,0.36,2.03
						C545.85,222.43,545.85,222.7,545.82,222.7z"/>
				</g>
			</g>
			<g>
				<path fill="#FFBE9D" d="M431.44,319.01c-4.37-0.91-8.32,1.06-8.32,1.06c-4.45-1.97-9.94,1.43-9.94,1.43
					c-1.61-0.77-11.31,5.57-11.31,5.57l-12.08,5.7l-64.53-47.95l18.29-19.03l-25.63-26.67l-30.04,30.91
					c-3.74,3.86-5.63,9.07-5.99,14.55c-0.76,11.75,5.94,22.72,16.44,28.04l76.04,39c0,0,8.06-0.28,17.29-2.69
					c6.56-1.71,17.77-6.69,17.77-6.69s-0.03,0.34,1.97,4.22c3.61,6.99,8.9-0.55,8.9-0.55s1.08,2.48,2.05,3.42
					c4.57,4.43,7.74-1.52,7.74-1.52s1.37,2.39,5.46,0.61c4.07-1.77-0.59-14.06-0.59-14.06s1.37,2.67,4.02-0.71
					C441.62,330.27,435.81,319.92,431.44,319.01z"/>
				<g>
					<path fill="#EB996E" d="M422.31,320.69c-0.01-0.02,0.27-0.18,0.84-0.32c0.56-0.15,1.44-0.19,2.45,0.07
						c1.01,0.26,2.14,0.82,3.23,1.65c0.55,0.42,1.09,0.87,1.61,1.44c0.51,0.57,0.9,1.25,1.26,1.95c1.39,2.8,2.36,5.46,2.95,7.41
						c0.3,0.98,0.5,1.78,0.63,2.33c0.12,0.56,0.17,0.87,0.14,0.88c-0.08,0.02-0.44-1.19-1.11-3.1c-0.68-1.91-1.7-4.52-3.07-7.29
						c-0.34-0.68-0.72-1.32-1.18-1.85c-0.47-0.52-1-0.99-1.52-1.39c-1.04-0.82-2.1-1.38-3.04-1.68
						C423.57,320.19,422.32,320.82,422.31,320.69z"/>
				</g>
				<g>
					<path fill="#EB996E" d="M430.08,347.81c-0.03,0.01-0.23-0.38-0.56-1.11c-0.38-0.82-0.85-1.85-1.41-3.06
						c-1.19-2.59-2.93-6.12-4.59-10.16c-0.81-2.02-1.55-3.95-2.63-5.46c-1.05-1.53-2.44-2.52-3.71-3.1
						c-1.27-0.59-2.44-0.67-3.2-0.57c-0.77,0.1-1.17,0.31-1.2,0.26c-0.01-0.02,0.09-0.07,0.28-0.17c0.19-0.1,0.49-0.21,0.89-0.29
						c0.79-0.17,2.03-0.13,3.38,0.43c1.34,0.55,2.84,1.57,3.96,3.15c1.14,1.56,1.91,3.54,2.72,5.55c1.65,4.01,3.34,7.57,4.45,10.21
						c0.56,1.31,0.99,2.39,1.26,3.14C429.98,347.37,430.11,347.8,430.08,347.81z"/>
				</g>
				<g>
					<path fill="#EB996E" d="M400.46,332.38c-0.01-0.03,0.35-0.24,1.03-0.57c0.78-0.38,1.74-0.84,2.88-1.39
						c0.62-0.29,1.27-0.61,2.02-0.93c0.77-0.31,1.66-0.46,2.59-0.38c0.93,0.09,1.89,0.42,2.71,1.04c0.82,0.63,1.43,1.48,1.99,2.37
						c0.55,0.89,0.98,1.82,1.4,2.69c0.43,0.87,0.87,1.69,1.3,2.47c0.87,1.55,1.69,2.95,2.3,4.16c0.61,1.21,1.03,2.23,1.28,2.95
						c0.25,0.72,0.35,1.12,0.32,1.14c-0.09,0.03-0.63-1.56-1.93-3.91c-0.64-1.18-1.49-2.55-2.39-4.1c-0.45-0.78-0.9-1.6-1.34-2.48
						c-0.44-0.88-0.86-1.78-1.39-2.64c-0.53-0.86-1.13-1.67-1.85-2.23c-0.73-0.56-1.61-0.87-2.45-0.97
						c-0.85-0.09-1.68,0.03-2.39,0.3c-0.72,0.29-1.4,0.6-2.02,0.86c-1.17,0.49-2.15,0.9-2.95,1.24
						C400.87,332.27,400.47,332.42,400.46,332.38z"/>
				</g>
				<g>
					<path fill="#EB996E" d="M401.86,327.07c0.02,0.03-0.3,0.23-0.88,0.56c-0.58,0.33-1.43,0.79-2.49,1.35
						c-2.11,1.12-5.05,2.63-8.31,4.27c-3.26,1.64-6.22,3.1-8.38,4.14c-1.08,0.52-1.96,0.93-2.57,1.2c-0.61,0.27-0.96,0.41-0.97,0.37
						c-0.02-0.03,0.3-0.23,0.88-0.56c0.58-0.33,1.43-0.79,2.49-1.35c2.11-1.12,5.05-2.63,8.31-4.27c3.26-1.64,6.22-3.1,8.38-4.14
						c1.08-0.52,1.95-0.93,2.57-1.2C401.5,327.17,401.85,327.03,401.86,327.07z"/>
				</g>
				<g>
					<path fill="#EB996E" d="M326.11,284.93c-0.03,0.17-3.41-0.77-7.62-0.25c-4.21,0.47-7.29,2.18-7.35,2.02
						c-0.03-0.05,0.69-0.55,1.98-1.12c1.29-0.57,3.16-1.17,5.31-1.42c2.14-0.25,4.11-0.11,5.49,0.14
						C325.31,284.56,326.12,284.87,326.11,284.93z"/>
				</g>
			</g>
			<g>
				<path fill="#263238" d="M468.62,111.71c-15.97-0.22-31.96,1.47-47.53,5.02c-3.61,0.82-7.43,1.88-9.87,4.67
					c-2.58,2.94-3.04,7.14-3.38,11.04c-0.41,4.75-0.82,9.5-1.24,14.25c-0.69,1.19-1.46,2.33-2.28,3.4c-3.76,4.91-8.55,9-11.97,14.16
					c-3.42,5.15-5.31,12-2.52,17.52c1.68,3.34,4.81,5.7,7.09,8.66c3.87,5.03,5.13,11.51,7.39,17.44
					c2.26,5.93,6.34,11.97,12.57,13.16c2.97,0.57,6.06-0.06,9.05,0.38c4.47,0.65,8.23,3.58,11.79,6.37
					c3.56,2.79,7.41,5.64,11.9,6.08c4.5,0.45,9.65-2.6,9.74-7.12c-3.3,1.92-7.68,1.79-10.87-0.31c-2.62-1.72-4.31-4.52-6.56-6.71
					c-5.52-5.36-14.43-7.06-18.27-13.73c-3.04-5.28-1.83-11.88-0.45-17.81c1.2-5.14,2.41-10.72,0.93-15.66
					c0.11-0.79,0.18-1.6,0.18-2.4c0.04-5.26-2.05-10.9,0.4-15.55c3.24-6.16,12.58-6.93,15.85-13.07c1.9-3.57,1.23-8.13,3.31-11.59
					c1.96-3.26,5.86-4.76,9.58-5.57c3.71-0.81,7.63-1.18,10.92-3.1C467.67,119.32,470.11,115.2,468.62,111.71z"/>
				<g>
					<path fill="#263238" d="M480.74,219c0.01,0.01-0.04,0.09-0.15,0.25c-0.13,0.18-0.29,0.41-0.49,0.7c-0.45,0.6-1.2,1.42-2.3,2.33
						c-1.12,0.88-2.64,1.79-4.56,2.45c-1.91,0.66-4.25,1.06-6.81,0.79c-2.55-0.21-5.31-1.25-7.66-3.14
						c-2.38-1.83-4.5-4.26-7.19-6.19c-1.35-0.95-2.89-1.71-4.58-1.92c-1.7-0.24-3.43,0.25-5.1,0.92c-1.68,0.66-3.37,1.51-5.3,1.83
						c-1.93,0.34-3.95-0.13-5.69-1.01c-1.77-0.87-3.32-2.04-4.81-3.19c-1.49-1.16-2.95-2.33-4.22-3.67c-1.28-1.32-2.38-2.83-3-4.53
						c-0.66-1.69-0.69-3.53-0.34-5.2c0.33-1.68,0.94-3.21,1.51-4.69c0.58-1.48,1.08-2.92,1.52-4.34c0.86-2.84,1.46-5.55,1.85-8.04
						c0.78-4.99,0.78-9.11,0.65-11.93c-0.06-1.41-0.15-2.51-0.23-3.25c-0.03-0.35-0.06-0.63-0.07-0.84
						c-0.01-0.19-0.02-0.29-0.01-0.29c0.01,0,0.03,0.09,0.06,0.28c0.03,0.22,0.07,0.49,0.13,0.84c0.11,0.74,0.23,1.83,0.33,3.25
						c0.19,2.83,0.25,6.96-0.48,12c-0.37,2.51-0.95,5.24-1.8,8.11c-0.44,1.43-0.93,2.9-1.51,4.38c-0.56,1.48-1.15,3-1.47,4.62
						c-0.32,1.61-0.29,3.33,0.34,4.93c0.59,1.61,1.65,3.05,2.9,4.34c1.25,1.3,2.69,2.46,4.17,3.61c1.48,1.15,3.01,2.29,4.72,3.13
						c1.69,0.85,3.58,1.28,5.39,0.97c1.81-0.29,3.49-1.12,5.19-1.79c1.69-0.68,3.53-1.2,5.34-0.94c1.8,0.23,3.42,1.05,4.8,2.02
						c2.75,2,4.85,4.43,7.18,6.25c2.29,1.87,4.94,2.88,7.43,3.11c2.49,0.29,4.79-0.08,6.68-0.7c1.9-0.62,3.41-1.49,4.53-2.33
						C479.9,220.37,480.67,218.93,480.74,219z"/>
				</g>
				<g>
					<path fill="#455A64" d="M380.83,187.2c0,0-0.31-0.35-0.8-1.1c-0.47-0.76-1.06-1.97-1.41-3.64c-0.36-1.67-0.41-3.8,0.1-6.18
						c0.53-2.36,1.58-4.99,3.46-7.42c1.84-2.44,4.34-4.71,7.22-6.83c2.87-2.14,6.13-4.12,9.38-6.44c3.22-2.33,6.52-5.03,8.9-8.65
						c1.2-1.79,2.05-3.83,2.7-5.97c0.65-2.14,1.09-4.38,1.6-6.64c0.51-2.26,1.1-4.5,2.02-6.58c0.9-2.09,2.24-3.99,3.93-5.43
						c1.69-1.44,3.66-2.46,5.67-3.12c2.01-0.68,4.07-1.03,6.08-1.2c4.03-0.35,7.85,0.1,11.4,0.36c3.55,0.29,6.86,0.45,9.86,0.13
						c3-0.29,5.62-1.19,7.73-2.3c2.1-1.14,3.69-2.5,4.74-3.82c1.05-1.31,1.62-2.51,1.91-3.35c0.28-0.84,0.39-1.3,0.42-1.29
						c0,0-0.06,0.47-0.32,1.33c-0.27,0.85-0.81,2.09-1.86,3.44c-1.03,1.36-2.64,2.77-4.76,3.95c-2.13,1.15-4.78,2.09-7.83,2.41
						c-3.03,0.35-6.38,0.21-9.93-0.06c-3.55-0.25-7.35-0.67-11.32-0.31c-1.98,0.18-4,0.53-5.96,1.2c-1.97,0.65-3.87,1.64-5.5,3.04
						c-1.63,1.39-2.91,3.22-3.79,5.26c-0.9,2.03-1.48,4.24-1.99,6.49c-0.52,2.25-0.96,4.5-1.61,6.67c-0.65,2.17-1.54,4.27-2.77,6.1
						c-2.44,3.7-5.8,6.42-9.05,8.76c-3.28,2.32-6.54,4.29-9.4,6.4c-2.87,2.08-5.35,4.31-7.18,6.7c-1.86,2.37-2.92,4.94-3.47,7.26
						c-0.52,2.33-0.51,4.43-0.18,6.08C379.48,185.75,380.95,187.15,380.83,187.2z"/>
				</g>
				<g>
					<path fill="#455A64" d="M383.76,192.45c0,0-1.24-0.9-3.07-2.95c-0.9-1.03-1.96-2.38-2.67-4.24c-0.34-0.92-0.57-1.99-0.46-3.13
						c0.1-1.13,0.57-2.29,1.35-3.28c1.62-1.98,4.3-3.05,7.11-3.64c1.42-0.3,2.89-0.53,4.36-0.89c1.47-0.36,2.97-0.87,4.26-1.77
						c1.28-0.92,2.33-2.2,3.1-3.67c0.79-1.47,1.34-3.11,1.92-4.77c0.58-1.66,1.16-3.38,2.04-5.01c0.85-1.64,2.12-3.14,3.75-4.15
						c1.63-1.01,3.44-1.57,5.21-2.03c1.77-0.46,3.52-0.83,5.17-1.39c3.34-1.05,5.96-3.34,7.94-5.85c2.01-2.51,3.48-5.22,4.93-7.71
						c1.44-2.49,2.87-4.79,4.49-6.66c1.59-1.89,3.39-3.29,5.13-4.19c1.75-0.91,3.42-1.32,4.79-1.45c1.38-0.11,2.46,0.06,3.15,0.26
						c0.7,0.19,1.04,0.36,1.04,0.36c-0.01,0.03-0.37-0.11-1.06-0.26c-0.69-0.16-1.76-0.29-3.11-0.16c-1.35,0.15-2.97,0.59-4.67,1.5
						c-1.7,0.91-3.44,2.3-4.99,4.17c-1.57,1.85-2.98,4.14-4.4,6.64c-1.43,2.49-2.89,5.23-4.93,7.79c-1.01,1.28-2.17,2.51-3.53,3.57
						c-1.35,1.07-2.93,1.91-4.63,2.47c-1.69,0.58-3.45,0.95-5.2,1.41c-1.75,0.46-3.51,1.01-5.06,1.97
						c-1.55,0.96-2.75,2.37-3.58,3.96c-0.85,1.58-1.43,3.27-2.01,4.93c-0.58,1.66-1.14,3.32-1.96,4.84c-0.8,1.52-1.9,2.87-3.27,3.84
						c-1.37,0.95-2.93,1.46-4.43,1.82c-1.5,0.36-2.98,0.58-4.38,0.87c-2.77,0.56-5.37,1.59-6.91,3.45c-0.75,0.92-1.2,2.01-1.31,3.08
						c-0.12,1.07,0.08,2.1,0.4,2.99c0.66,1.8,1.69,3.16,2.55,4.2c0.88,1.04,1.63,1.79,2.14,2.3c0.24,0.23,0.43,0.42,0.59,0.57
						C383.7,192.37,383.77,192.44,383.76,192.45z"/>
				</g>
			</g>
		</g>
		<g>
			<path fill="#EB996E" d="M506.86,127.85c0.03,0.02-0.16,0.3-0.52,0.77c-0.36,0.48-0.9,1.15-1.58,1.97
				c-1.36,1.64-3.32,3.84-5.62,6.15c-1.14,1.11-2.21,2.38-3.68,2.84c-0.71,0.22-1.47,0.23-2.11-0.02c-0.65-0.25-1.09-0.75-1.36-1.24
				c-0.54-1.01-0.45-1.96-0.38-2.54c0.09-0.6,0.21-0.91,0.24-0.9c0.04,0.01-0.01,0.34-0.04,0.92c-0.01,0.57-0.03,1.47,0.49,2.34
				c0.26,0.43,0.65,0.83,1.19,1.02c0.53,0.19,1.19,0.18,1.81-0.03c1.27-0.41,2.31-1.62,3.46-2.75c2.29-2.3,4.28-4.45,5.71-6.02
				C505.92,128.78,506.8,127.8,506.86,127.85z"/>
		</g>
		<g>
			<path fill="#EB996E" d="M514.5,127.85c0.03,0.02-0.19,0.3-0.6,0.78c-0.41,0.48-1.02,1.16-1.78,1.99c-0.8,0.86-1.7,1.84-2.69,2.91
				c-0.51,0.55-1.05,1.12-1.6,1.71c-0.56,0.59-1.15,1.21-1.88,1.73c-0.72,0.52-1.56,0.91-2.44,0.97c-0.87,0.08-1.8-0.29-2.27-0.99
				c-0.24-0.34-0.38-0.75-0.37-1.16c0.01-0.41,0.17-0.77,0.34-1.07c0.37-0.6,0.75-1.06,1.08-1.52c0.67-0.91,1.22-1.64,1.6-2.14
				c0.39-0.5,0.62-0.76,0.65-0.74c0.03,0.02-0.14,0.33-0.48,0.86c-0.34,0.53-0.84,1.3-1.47,2.23c-0.3,0.47-0.69,0.98-1,1.52
				c-0.32,0.54-0.37,1.2,0.04,1.74c0.39,0.54,1.1,0.83,1.85,0.76c0.75-0.05,1.5-0.4,2.17-0.88c0.67-0.48,1.25-1.08,1.81-1.66
				c0.56-0.58,1.1-1.14,1.62-1.68c1.02-1.04,1.95-1.99,2.77-2.83c0.79-0.8,1.44-1.44,1.9-1.88S514.47,127.83,514.5,127.85z"/>
		</g>
	</g>
</g>
<g id="Plants">
	<g>
		<path fill="#E8505B" d="M618.91,434c1.71-3.72,5.32-6.5,9.35-7.2c4.03-0.7,8.37,0.71,11.23,3.64c-1.95,3.47-5.45,5.78-9.21,7.07
			C625.86,439.03,621.05,437.24,618.91,434"/>
		<g>
			<path fill="#263238" d="M611.81,435.64c-0.02-0.06,1.07-0.46,2.87-0.9c1.81-0.44,4.32-0.94,7.12-1.4
				c2.79-0.46,5.34-0.81,7.18-1.02c1.84-0.22,2.99-0.3,3-0.23c0.01,0.07-1.12,0.29-2.95,0.6c-1.99,0.33-4.44,0.73-7.15,1.17
				c-2.79,0.46-5.31,0.9-7.13,1.24C612.94,435.45,611.83,435.71,611.81,435.64z"/>
		</g>
	</g>
	<g>
		<path fill="#E8505B" d="M261.48,370.69c4.24,3.49,6.57,9.18,5.98,14.65c-0.59,5.46-4.07,10.53-8.96,13.04
			C254.83,388.97,253.42,378.84,261.48,370.69"/>
		<g>
			<path fill="#E8505B" d="M275.39,377.91c0.39,7.1,4.54,13.89,10.69,17.46c6.15,3.57,14.1,3.83,20.46,0.65
				C299.55,384.98,290.07,375.75,275.39,377.91"/>
			<g>
				<path fill="#263238" d="M243.52,343.13c0.01-0.01,0.17,0.16,0.46,0.5c0.32,0.38,0.73,0.88,1.25,1.49
					c1.07,1.31,2.61,3.2,4.57,5.49c3.9,4.6,9.41,10.86,15.9,17.39c3.25,3.26,6.44,6.27,9.41,8.93c2.99,2.64,5.76,4.93,8.15,6.75
					c2.42,1.79,4.42,3.19,5.89,4.01c1.45,0.86,2.31,1.21,2.29,1.27c-0.01,0.02-0.22-0.07-0.63-0.24c-0.41-0.18-1.02-0.42-1.75-0.85
					c-1.51-0.77-3.55-2.13-6.01-3.89c-2.44-1.79-5.23-4.06-8.25-6.69c-2.99-2.65-6.2-5.66-9.46-8.92
					c-6.5-6.54-11.98-12.85-15.81-17.52c-1.92-2.33-3.43-4.25-4.45-5.6c-0.48-0.64-0.87-1.15-1.17-1.55
					C243.64,343.34,243.51,343.14,243.52,343.13z"/>
			</g>
		</g>
		<g>
			<path fill="#263238" d="M260.71,384.91c-0.09-0.02,0.25-1.41,0.53-3.68c0.29-2.27,0.45-5.44,0.1-8.91
				c-0.37-3.47-1.18-6.54-1.93-8.7c-0.75-2.16-1.36-3.45-1.28-3.49c0.03-0.02,0.21,0.29,0.51,0.87c0.31,0.57,0.69,1.42,1.11,2.5
				c0.85,2.15,1.73,5.25,2.11,8.77c0.36,3.52,0.13,6.74-0.25,9.02c-0.19,1.14-0.39,2.06-0.57,2.68
				C260.85,384.59,260.74,384.92,260.71,384.91z"/>
		</g>
	</g>
	<g>
		<path fill="#E8505B" d="M702.02,182.54c-2.47-3.27-3.2-7.77-1.9-11.65c1.3-3.88,4.59-7.04,8.53-8.16
			c2.13,3.36,2.5,7.53,1.86,11.46C709.75,178.81,705.89,182.19,702.02,182.54"/>
		<g>
			<path fill="#263238" d="M700.1,189.57c-0.07-0.01,0.1-1.16,0.58-2.96c0.47-1.8,1.23-4.25,2.15-6.93c0.92-2.68,1.82-5.08,2.5-6.8
				c0.68-1.72,1.15-2.77,1.22-2.75c0.07,0.03-0.28,1.12-0.87,2.88c-0.66,1.91-1.46,4.25-2.36,6.85c-0.92,2.67-1.73,5.1-2.29,6.86
				C700.46,188.48,700.17,189.59,700.1,189.57z"/>
		</g>
	</g>
	<g>
		<g>
			<path fill="#E8505B" d="M657.95,256.94c-2.06-7.64-0.13-16.25,5.01-22.27c5.14-6.02,13.33-9.3,21.2-8.47
				c1.39,7.56-0.96,15.32-4.95,21.9C674.5,255.84,665.14,259.12,657.95,256.94"/>
			<g>
				<path fill="#263238" d="M628.41,286.54c-0.01-0.01,0.13-0.2,0.42-0.54c0.33-0.38,0.76-0.86,1.29-1.47
					c1.15-1.26,2.82-3.06,4.92-5.26c4.19-4.4,10.05-10.41,16.57-17.01c6.52-6.6,12.46-12.53,16.78-16.81
					c2.14-2.1,3.88-3.81,5.14-5.04c0.58-0.56,1.05-1.01,1.42-1.35c0.33-0.3,0.51-0.46,0.52-0.45s-0.14,0.19-0.44,0.52
					c-0.34,0.36-0.79,0.83-1.35,1.42c-1.23,1.26-2.93,3.01-5.02,5.16c-4.3,4.37-10.18,10.33-16.67,16.92
					c-6.49,6.58-12.37,12.54-16.68,16.9c-2.09,2.14-3.8,3.88-5.04,5.14c-0.56,0.58-1.02,1.04-1.36,1.4
					C628.6,286.39,628.43,286.55,628.41,286.54z"/>
			</g>
			<g opacity="0.3">
				<path d="M657.95,256.94c-2.06-7.64-0.13-16.25,5.01-22.27c5.14-6.02,13.33-9.3,21.2-8.47c1.39,7.56-0.96,15.32-4.95,21.9
					C674.5,255.84,665.14,259.12,657.95,256.94"/>
			</g>
		</g>
		<g>
			<path fill="#E8505B" d="M644.29,259.91c-4.32-2.22-7.43-6.66-8.04-11.48c-0.61-4.82,1.28-9.89,4.91-13.12
				c4.01,2.49,6.56,6.77,7.9,11.29C650.63,251.94,648.25,257.55,644.29,259.91"/>
			<g opacity="0.3">
				<path d="M644.29,259.91c-4.32-2.22-7.43-6.66-8.04-11.48c-0.61-4.82,1.28-9.89,4.91-13.12c4.01,2.49,6.56,6.77,7.9,11.29
					C650.63,251.94,648.25,257.55,644.29,259.91"/>
			</g>
			<g>
				<path fill="#263238" d="M645.85,268.43c-0.03,0.01-0.14-0.32-0.31-0.91c-0.17-0.6-0.36-1.47-0.57-2.55
					c-0.42-2.17-0.86-5.18-1.26-8.52c-0.4-3.34-0.68-6.37-0.84-8.56c-0.17-2.2-0.22-3.56-0.15-3.56c0.07-0.01,0.25,1.34,0.51,3.53
					c0.27,2.33,0.61,5.28,0.99,8.54c0.4,3.33,0.78,6.34,1.11,8.52C645.66,267.08,645.93,268.41,645.85,268.43z"/>
			</g>
		</g>
	</g>
	<g>
		<path fill="#E8505B" d="M457.04,375.81c3.05-7.19,9.87-12.65,17.55-14.05c7.68-1.4,15.99,1.31,21.37,6.96
			C484.62,377.52,471.39,383.52,457.04,375.81"/>
		<g opacity="0.3">
			<path d="M457.04,375.81c3.05-7.19,9.87-12.65,17.55-14.05c7.68-1.4,15.99,1.31,21.37,6.96
				C484.62,377.52,471.39,383.52,457.04,375.81"/>
		</g>
		<g>
			<path fill="#263238" d="M450.63,379.33c-0.02-0.03,0.3-0.28,0.9-0.7c0.6-0.43,1.49-1,2.62-1.66c2.26-1.33,5.54-2.93,9.35-4.19
				c3.81-1.25,7.4-1.91,10.01-2.19c1.3-0.14,2.36-0.21,3.1-0.22c0.73-0.02,1.14-0.01,1.14,0.03c0,0.09-1.61,0.19-4.19,0.56
				c-2.58,0.37-6.11,1.08-9.89,2.32c-3.77,1.25-7.04,2.78-9.33,4.02C452.04,378.52,450.68,379.4,450.63,379.33z"/>
		</g>
	</g>
	<g>
		<path fill="#E8505B" d="M193.43,245.51c5.46-2.55,12.2-2.16,17.33,1.01c5.13,3.17,8.5,9.01,8.67,15.04
			C208.38,260.74,197.69,257.35,193.43,245.51"/>
		<g opacity="0.3">
			<path d="M193.43,245.51c5.46-2.55,12.2-2.16,17.33,1.01c5.13,3.17,8.5,9.01,8.67,15.04
				C208.38,260.74,197.69,257.35,193.43,245.51"/>
		</g>
		<g>
			<path fill="#263238" d="M187.94,244.22c0.01-0.04,0.32-0.02,0.88,0.04c0.56,0.05,1.38,0.18,2.37,0.38
				c1.99,0.4,4.7,1.16,7.54,2.41c2.84,1.25,5.24,2.73,6.87,3.93c0.82,0.6,1.46,1.11,1.88,1.49c0.43,0.38,0.65,0.59,0.63,0.62
				c-0.05,0.07-1.04-0.7-2.72-1.81c-1.68-1.11-4.07-2.52-6.87-3.76c-2.8-1.23-5.46-2.04-7.41-2.53
				C189.16,244.51,187.93,244.3,187.94,244.22z"/>
		</g>
	</g>
	<g>
		<path fill="#E8505B" d="M551.76,363.56c-0.65-5.35,1.56-10.97,5.68-14.45c4.12-3.48,10.03-4.72,15.2-3.19
			C568.87,355.09,563.01,363.24,551.76,363.56"/>
		<g>
			<path fill="#263238" d="M549.13,367.87c-0.05-0.03,0.36-1.07,1.25-2.66c0.89-1.58,2.29-3.68,4.15-5.75
				c1.86-2.07,3.79-3.69,5.26-4.75c1.48-1.06,2.47-1.58,2.5-1.53c0.04,0.07-0.88,0.7-2.28,1.82c-1.41,1.12-3.27,2.76-5.1,4.8
				c-1.83,2.04-3.26,4.07-4.22,5.59C549.74,366.92,549.21,367.9,549.13,367.87z"/>
		</g>
	</g>
	<g>
		<path fill="#E8505B" d="M630.45,311.61c-1.64-5.14-0.53-11.07,2.86-15.26c3.39-4.19,8.96-6.52,14.33-5.99
			C645.66,300.08,641.44,309.18,630.45,311.61"/>
		<g opacity="0.3">
			<path d="M630.45,311.61c-1.64-5.14-0.53-11.07,2.86-15.26c3.39-4.19,8.96-6.52,14.33-5.99
				C645.66,300.08,641.44,309.18,630.45,311.61"/>
		</g>
		<g>
			<path fill="#263238" d="M628.68,316.34c-0.06-0.02,0.15-1.12,0.73-2.84c0.57-1.72,1.56-4.05,2.99-6.43
				c1.43-2.38,3.03-4.34,4.28-5.65c1.25-1.32,2.13-2.02,2.17-1.97c0.06,0.06-0.73,0.85-1.9,2.22c-1.17,1.36-2.69,3.33-4.11,5.68
				c-1.41,2.35-2.43,4.61-3.09,6.29C629.1,315.29,628.76,316.36,628.68,316.34z"/>
		</g>
	</g>
	<g>
		<path fill="#E8505B" d="M37.28,240.1c1.17-5.27,5.12-9.83,10.16-11.74c5.04-1.91,11.03-1.12,15.39,2.05
			C56.24,237.8,48,243.54,37.28,240.1"/>
		<g>
			<path fill="#263238" d="M33.37,243.29c-0.04-0.04,0.69-0.89,2.06-2.09c1.36-1.2,3.39-2.71,5.82-4.04
				c2.44-1.33,4.8-2.22,6.54-2.73c1.74-0.51,2.86-0.67,2.87-0.61c0.02,0.08-1.06,0.37-2.76,0.96c-1.7,0.59-4,1.52-6.41,2.83
				c-2.4,1.32-4.43,2.76-5.84,3.87C34.26,242.6,33.43,243.35,33.37,243.29z"/>
		</g>
	</g>
</g>
<g id="Speech_Bubble">
	<g>
		<g>
			<g>
				<g>
					<path fill="#FFFFFF" d="M494.37,109.6l8.04-14.49c-3.67-5.84-5.83-12.73-5.9-20.13c-0.2-21.28,16.88-38.7,38.17-38.91
						c21.28-0.2,38.7,16.88,38.91,38.17c0.2,21.28-16.88,38.7-38.17,38.91c-8.89,0.09-17.09-2.85-23.66-7.84l0.01,0.02L494.37,109.6
						z"/>
					<g>
						<path fill="#263238" d="M494.37,109.6c0.9-0.23,6.34-1.61,17.36-4.4l-0.07,0.21l-0.01-0.02l-0.61-0.78l0.79,0.59
							c2.21,1.66,4.85,3.28,7.94,4.62c3.1,1.32,6.63,2.38,10.52,2.85c1.94,0.22,3.97,0.35,6.05,0.23c1.04-0.07,2.1-0.11,3.16-0.21
							c1.06-0.17,2.13-0.35,3.22-0.53c4.31-0.91,8.7-2.6,12.79-5.2c4.08-2.59,7.85-6.09,10.86-10.37c3-4.27,5.25-9.32,6.28-14.78
							c1.01-5.46,0.86-11.3-0.63-16.93c-1.5-5.61-4.24-11.09-8.31-15.57l-1.57-1.7c-0.52-0.57-1.13-1.04-1.69-1.56
							c-0.58-0.49-1.11-1.05-1.74-1.49l-1.84-1.35c-0.6-0.47-1.25-0.85-1.9-1.23l-1.94-1.15c-0.68-0.32-1.36-0.64-2.03-0.96
							c-0.68-0.31-1.34-0.67-2.05-0.89c-5.55-2.14-11.45-2.93-17.09-2.47c-5.64,0.45-11.02,2.12-15.63,4.76
							c-4.63,2.62-8.52,6.11-11.52,9.99c-3.01,3.88-5.12,8.16-6.42,12.42c-1.29,4.27-1.62,8.51-1.58,12.43
							c0.27,7.9,2.94,14.38,5.8,18.95l0.04,0.06l-0.04,0.06C497.33,104.36,494.81,108.83,494.37,109.6
							c0.42-0.78,2.88-5.28,7.93-14.55l0,0.13c-2.91-4.58-5.64-11.1-5.94-19.07c-0.05-3.96,0.26-8.24,1.55-12.56
							c1.3-4.3,3.42-8.63,6.45-12.57c3.02-3.94,6.96-7.47,11.64-10.13c4.66-2.69,10.12-4.38,15.82-4.84
							c5.71-0.47,11.69,0.32,17.32,2.49c0.72,0.22,1.39,0.59,2.08,0.9c0.68,0.32,1.37,0.65,2.06,0.98l1.97,1.17
							c0.66,0.39,1.33,0.77,1.93,1.25l1.86,1.37c0.64,0.44,1.17,1.01,1.76,1.51c0.57,0.53,1.19,1,1.71,1.58l1.59,1.72
							c4.13,4.55,6.91,10.09,8.42,15.79c1.5,5.71,1.65,11.63,0.62,17.16c-1.04,5.54-3.33,10.65-6.38,14.96
							c-3.05,4.33-6.87,7.86-11.01,10.47c-4.14,2.62-8.59,4.32-12.95,5.23c-1.1,0.18-2.18,0.35-3.25,0.52
							c-1.08,0.1-2.15,0.14-3.2,0.21c-2.1,0.12-4.15-0.02-6.11-0.25c-3.93-0.48-7.49-1.57-10.6-2.92c-3.11-1.37-5.76-3.02-7.97-4.71
							l0.18-0.18l0.01,0.02l0.12,0.16l-0.2,0.05C500.74,108.09,495.27,109.39,494.37,109.6z"/>
					</g>
				</g>
			</g>
		</g>
		<g>
			<g>
				<path fill="#E8505B" d="M524.36,68.01l5.01-0.05c0,0-0.04-4.21,4.33-4.33c2.27-0.06,3.46,1.42,3.95,2.55
					c0.57,1.32,0.41,2.83-0.32,4.06c-0.84,1.41-2.69,2.7-6.07,2.14l0.11,11.31l4.96-0.05l-0.06-6.62c0,0,6.94-1.86,6.86-9.53
					c-0.07-7.33-6.66-8.97-9.48-8.94C531.51,58.58,524.18,59.17,524.36,68.01z"/>
				
					<rect x="531.41" y="86" transform="matrix(1 -9.598890e-03 9.598890e-03 1 -0.8235 5.1292)" fill="#E8505B" width="5.03" height="4.7"/>
			</g>
		</g>
	</g>
</g>
</svg>
