<?xml version="1.0" encoding="iso-8859-1"?>
<!-- Generator: Adobe Illustrator 21.0.0, SVG Export Plug-In . SVG Version: 6.00 Build 0)  -->
<svg xmlns="http://www.w3.org/2000/svg" xmlns:xlink="http://www.w3.org/1999/xlink" version="1.1" id="Capa_1" x="0px" y="0px" viewBox="0 0 511.953 511.953" style="enable-background:new 0 0 511.953 511.953;" xml:space="preserve" width="512" height="512">
<g>
	<g>
		<g>
			<path style="fill:#FDDB33;" d="M48.218,258.953c-8.095,19.792-15.204,41.761-18.093,67.5c-11.103,98.919,65.031,178,164.5,178     S374.73,423.759,374.73,324.219c0-18.372-8.615-44.528-8.615-44.528c-7.857,52.089-51.07,81.573-51.07,81.573     c26.517-69.779,12.481-132.824-19.642-178.871C222.727,78.215,241.387,7.453,241.387,7.453     c-97.229,86.487-91.336,181.82-91.336,181.82c-8.926-57.82-81.926-80.82-81.926-80.82c24.079,40.858,15.416,72.521-0.744,107.5     C55.599,241.453,48.218,258.953,48.218,258.953z"/>
		</g>
		<g>
			<path style="fill:#F9C032;" d="M150.099,183.953L150.099,183.953c-11-53-81.974-75.5-81.974-75.5     c6.276,10.65,10.311,20.671,12.585,30.293C104.099,145.953,150.099,183.953,150.099,183.953z"/>
			<path style="fill:#F9C032;" d="M255.403,182.393c32.123,46.047,65.697,86.56,59.697,178.56l0,0c8-21,14-49,13.861-71.569     c0.232-40.859-12.935-77.428-33.558-106.99C222.727,78.215,241.387,7.453,241.387,7.453     c-16.362,14.555-29.793,29.359-40.834,43.918C204.278,82.239,217.254,127.708,255.403,182.393z"/>
			<path style="fill:#F9C032;" d="M366.115,279.691c-4.385,29.073-19.783,51.1-32.536,64.894     c-9.375,83.403-75.617,149.571-159.018,158.764c6.567,0.721,13.258,1.104,20.064,1.104c99.469,0,180.105-80.693,180.105-180.234     C374.73,305.847,366.115,279.691,366.115,279.691z"/>
		</g>
		<path style="fill:#FF7373;" d="M239.279,383.952c6.889,14.278,11.826,27.656,11.826,36.678c0,29.855-24.202,54.057-54.057,54.057    s-54.057-24.202-54.057-54.057c0-29.855,54.057-107.412,54.057-107.412s12.447,17.858,25.396,39.735L239.279,383.952z"/>
	</g>
	<g>
		<path d="M365.483,272.217c-3.46,0.292-6.268,2.922-6.785,6.355c-3.805,25.225-16.688,44.962-28.133,58.066    c6.123-25.128,7.498-50.169,4.077-74.744c-4.137-29.719-15.579-58.694-33.088-83.793c-36.365-52.127-48.806-95.274-52.839-122.291    c-4.355-29.168-0.112-46.304-0.076-46.446c1.847-7-6.822-12.332-12.237-7.516c-51.519,45.827-74.285,94.214-84.311,126.736    c-3.128,10.146-5.251,19.4-6.688,27.467c-23.902-38.213-72.482-53.952-75.024-54.753c-6.401-2.019-12.126,5.175-8.715,10.961    c22.893,38.847,13.026,68.571-1.144,100.663c-3.908,8.849,9.815,14.906,13.722,6.059c13.13-29.735,23.487-59.604,9.376-95.9    c20.922,10.354,53.55,31.899,59.021,67.335c1.413,9.148,15.468,7.632,14.898-1.607c-0.054-0.866-4.096-82.754,74.175-161.86    c-0.709,29.262,6.429,86.47,57.54,159.735c20.336,29.15,49.817,90.248,18.782,171.916c-2.542,6.689,5.322,12.898,11.238,8.859    c1.524-1.041,31.019-21.536,46.406-58.593c0.917,5.266,1.551,10.619,1.551,15.353c0,95.245-77.43,172.733-172.604,172.733    c-47.034,0-90.968-18.97-120.538-52.044C45.606,413.052,32.64,371.281,37.578,327.29c3.122-27.808,11.529-50.698,17.582-65.498    c3.661-8.953-10.22-14.631-13.884-5.678c-6.392,15.628-15.274,39.836-18.604,69.502c-5.42,48.292,8.868,94.208,40.232,129.291    c32.412,36.253,80.422,57.046,131.721,57.046c103.445,0,187.604-84.217,187.604-187.733c0-19.353-8.625-45.76-8.991-46.875    C372.151,274.047,368.956,271.937,365.483,272.217z"/>
		<path d="M316.089,44.929h22.476v22.476c0,9.673,15,9.673,15,0V44.929h22.477c9.673,0,9.673-15,0-15h-22.477V7.453    c0-9.673-15-9.673-15,0v22.477h-22.476C306.416,29.929,306.416,44.929,316.089,44.929z"/>
		<path d="M483.151,80.559h-22.477V58.083c0-9.673-15-9.673-15,0v22.476h-22.477c-9.673,0-9.673,15,0,15h22.477v22.477    c0,9.673,15,9.673,15,0V95.559h22.477C492.824,95.559,492.824,80.559,483.151,80.559z"/>
		<path d="M407.967,151.357H385.49V128.88c0-4.143-3.357-7.5-7.5-7.5s-7.5,3.357-7.5,7.5v22.477h-22.476c-9.673,0-9.673,15,0,15    h22.476v22.476c0,9.673,15,9.673,15,0v-22.476h22.477C417.64,166.357,417.64,151.357,407.967,151.357z"/>
		<path d="M215.99,356.773c4.926,8.327,17.835,0.683,12.908-7.641c-12.942-21.865-25.182-39.464-25.697-40.203    c-2.924-4.194-9.381-4.196-12.306,0c-5.671,8.137-55.404,80.394-55.404,111.701c0,33.942,27.614,61.557,61.557,61.557    s61.557-27.614,61.557-61.557c0-9.344-4.112-22.407-12.571-39.938c-4.205-8.711-17.713-2.192-13.51,6.52    c9.159,18.979,11.081,28.648,11.081,33.418c0,25.672-20.885,46.557-46.557,46.557s-46.557-20.885-46.557-46.557    c0-19.845,29.48-68.353,46.541-94.036C201.826,333.829,208.853,344.715,215.99,356.773z"/>
	</g>
</g>















</svg>
