<svg id="Capa_1" enable-background="new 0 0 512 512" height="512" viewBox="0 0 512 512" width="512" xmlns="http://www.w3.org/2000/svg"><g><g><path d="m257.476 136.857c-38.28-69.079-90.244-126.857-90.244-126.857s-129.582 143.541-129.582 242.803c0 71.566 58.016 129.582 129.582 129.582" fill="#ffda8f"/><path d="m474.354 348.604c0 84.718-68.678 153.396-153.396 153.396s-153.396-68.678-153.396-153.396c0-117.503 153.396-287.424 153.396-287.424s153.396 169.921 153.396 287.424z" fill="#ffcd69"/><g><ellipse cx="363.292" cy="392.252" fill="#ffe6b4" rx="61.795" ry="37.527" transform="matrix(.707 -.707 .707 .707 -170.959 371.773)"/></g></g><g><path d="m474.352 358.32c-4.183 0-7.995-2.709-9.405-6.636-1.389-3.867-.203-8.327 2.936-10.986 3.284-2.781 8.09-3.124 11.745-.864 3.501 2.165 5.339 6.397 4.534 10.436-.92 4.614-5.103 8.05-9.81 8.05z"/><path d="m339.687 453.378c-10.652 0-20.162-3.359-27.162-10.359-18.845-18.845-11.307-55.906 17.16-84.374 12.948-12.948 28.35-22.1 43.368-25.769 16.788-4.104 31.353-1.046 41.007 8.609 18.845 18.844 11.307 55.905-17.16 84.373v.001c-17.894 17.893-39.187 27.519-57.213 27.519zm47.324-102.265c-3.47 0-6.779.598-9.211 1.192-11.346 2.772-23.728 10.238-33.973 20.483-21.583 21.583-26.366 46.883-17.16 56.089s34.506 4.425 56.09-17.16v.001c21.583-21.585 26.366-46.884 17.16-56.089-3.472-3.473-8.327-4.516-12.906-4.516zm2.817 67.675h.01z"/><path d="m471.667 379.025c-5.338-1.438-10.82 1.722-12.258 7.055l-.089.33c-16.944 62.17-73.841 105.59-138.362 105.59-79.068 0-143.396-64.327-143.396-143.396 0-97.695 113.028-236.632 143.396-272.191 26.567 31.102 116.401 141.317 138.483 234.026 1.279 5.373 6.672 8.692 12.045 7.411 5.372-1.28 8.69-6.672 7.41-12.045-11.402-47.872-40.239-104.761-85.71-169.087-33.662-47.621-63.551-80.848-64.807-82.239-1.896-2.101-4.594-3.299-7.423-3.299s-5.526 1.199-7.423 3.299c-.306.339-24.521 27.268-53.519 66.616-37.456-64.258-83.308-115.515-85.346-117.782-1.895-2.106-4.594-3.311-7.426-3.313h-.01c-2.829 0-5.526 1.199-7.423 3.299-1.343 1.487-33.25 36.974-65.673 85.308-44.116 65.768-66.486 121.011-66.486 164.196 0 75.719 60.604 137.55 135.854 139.533 19.169 68.931 82.498 119.664 157.454 119.664 73.517 0 138.349-49.482 157.664-120.35l.1-.368c1.436-5.332-1.723-10.82-7.055-12.257zm-424.017-126.222c0-80.785 92.371-195.503 119.567-227.523 15.315 18.118 51.366 62.769 79.96 113.645-3.722 5.294-7.474 10.747-11.221 16.333-52.019 77.545-78.394 142.596-78.394 193.347 0 7.984.576 15.836 1.688 23.517-62.23-4.122-111.6-56.064-111.6-119.319z"/></g></g></svg>