<?xml version="1.0" encoding="utf-8"?>
<!-- Generator: Adobe Illustrator 24.3.0, SVG Export Plug-In . SVG Version: 6.00 Build 0)  -->
<svg version="1.1" xmlns="http://www.w3.org/2000/svg" xmlns:xlink="http://www.w3.org/1999/xlink" x="0px" y="0px"
	 viewBox="0 0 1080 1080" enable-background="new 0 0 1080 1080" xml:space="preserve">
<g id="Layer_1">
</g>
<g id="Layer_3">
</g>
<g id="Layer_2">
	<circle fill="#FFFFFF" cx="540" cy="540.01" r="424.11"/>
	<g>
		<path fill="#EE4D34" d="M658.69,463.54c17.08,3.57,30.06,18.7,30.15,36.77l0.56,111.31c0.09,18.74-13.69,34.47-31.68,37.46
			l-0.57-114.1l-8.23,0.04l0.58,114.58l-10.09,0.05l-0.58-114.58l-8.23,0.04l0.58,114.58l-10.09,0.05l-0.58-114.58l-8.23,0.04
			l0.58,114.56c-20.45-0.35-37.12-17.06-37.22-37.55l-0.56-111.31c-0.1-20.77,16.86-37.86,37.69-37.97l3.11-0.02l-7.54-291.73
			c-22.76-4.18-46.22-6.31-70.21-6.19c-207.1,1.1-374.15,169.89-373.11,376.99c0.85,168.24,112.36,310.02,265.2,356.71l7.05-258.42
			c-30.6-12.1-53.18-51.81-53.41-99.05c-0.29-57.01,32.07-103.4,72.27-103.62c40.2-0.21,73.03,45.83,73.31,102.84
			c0.23,45.94-20.74,84.98-49.93,98.52l7.73,272.35c17.85,2.51,36.1,3.77,54.66,3.67c207.1-1.1,374.15-169.89,373.11-376.99
			c-0.82-162.54-104.92-300.36-249.8-351.63L658.69,463.54z"/>
	</g>
</g>
</svg>
