<svg id="Capa_1" enable-background="new 0 0 512 512" height="512" viewBox="0 0 512 512" width="512" xmlns="http://www.w3.org/2000/svg"><g><g><path d="m287.627 308.32-63.254-104.64h-186.873c-3.507 0-6.871.608-10 1.714l-5 263.413 263.413-5c1.106-3.128 1.714-6.493 1.714-10z" fill="#c1e4fa"/><path d="m27.5 449.598v-244.204c-11.651 4.119-20 15.225-20 28.286v220.127c0 16.569 13.431 30 30 30h220.127c13.061 0 24.167-8.349 28.286-20h-244.204c-7.847 0-14.209-6.361-14.209-14.209z" fill="#91b5f9"/><path d="m236.373 296.32 266.413-8c1.106-3.129 1.714-6.493 1.714-10v-220.127c0-16.569-13.431-30-30-30h-220.127c-3.507 0-6.871.608-10 1.714z" fill="#f7f9fa"/><path d="m287.627 308.32h186.873c13.061 0 24.167-8.349 28.286-20h-215.159l-43.255-84.641v-173.772c-11.651 4.119-20 15.225-20 28.286v145.487z" fill="#dce6eb"/><path d="m257.627 203.68h-13.255l-5 89.641 48.255-5v-54.641c0-16.569-13.431-30-30-30z" fill="#dce6eb"/><path d="m254.373 308.32h33.255v-20h-29.046c-7.847 0-14.209-6.361-14.209-14.209v-70.431h-20v74.641c0 16.568 13.431 29.999 30 29.999z" fill="#b9c3cd"/></g><g><path d="m257.627 491.307h-220.127c-20.678 0-37.5-16.822-37.5-37.5v-33.563c0-4.142 3.358-7.5 7.5-7.5s7.5 3.358 7.5 7.5v33.563c0 12.407 10.093 22.5 22.5 22.5h220.127c12.407 0 22.5-10.093 22.5-22.5v-115.487c0-4.142 3.358-7.5 7.5-7.5s7.5 3.358 7.5 7.5v115.487c0 20.678-16.822 37.5-37.5 37.5zm-137.993-93.563c-4.142 0-7.5-3.358-7.5-7.5v-81.655c0-4.142 3.358-7.5 7.5-7.5s7.5 3.358 7.5 7.5v24.324l31.349-28.815c3.05-2.803 7.794-2.604 10.597.446s2.604 7.794-.446 10.597l-35.448 32.583 38.479 37.123c2.981 2.876 3.066 7.624.19 10.605-2.876 2.98-7.624 3.066-10.605.19l-34.116-32.914v27.517c0 4.141-3.358 7.499-7.5 7.499zm-112.134 0c-4.142 0-7.5-3.358-7.5-7.5v-156.564c0-20.678 16.822-37.5 37.5-37.5h179.373v-137.987c0-20.678 16.822-37.5 37.5-37.5h220.127c20.678 0 37.5 16.822 37.5 37.5v33.689c0 4.142-3.358 7.5-7.5 7.5s-7.5-3.358-7.5-7.5v-33.689c0-12.407-10.093-22.5-22.5-22.5h-220.127c-12.407 0-22.5 10.093-22.5 22.5v137.987h25.755c20.678 0 37.5 16.822 37.5 37.5v67.141h179.372c12.407 0 22.5-10.093 22.5-22.5v-156.439c0-4.142 3.358-7.5 7.5-7.5s7.5 3.358 7.5 7.5v156.438c0 20.678-16.822 37.5-37.5 37.5h-220.127c-20.678 0-37.5-16.822-37.5-37.5v-44.783c0-4.142 3.358-7.5 7.5-7.5s7.5 3.358 7.5 7.5v44.783c0 12.407 10.093 22.5 22.5 22.5h25.755v-67.14c0-12.407-10.093-22.5-22.5-22.5h-220.128c-12.407 0-22.5 10.093-22.5 22.5v156.564c0 4.142-3.358 7.5-7.5 7.5zm439.651-186.706c-3.727 0-6.818-2.718-7.401-6.279-5.65 3.956-12.523 6.279-19.93 6.279-19.206 0-34.831-15.625-34.831-34.831s15.625-34.831 34.831-34.831c7.406 0 14.279 2.323 19.93 6.279.583-3.562 3.675-6.279 7.401-6.279 4.142 0 7.5 3.358 7.5 7.5v54.662c0 4.142-3.358 7.5-7.5 7.5zm-27.331-54.663c-10.935 0-19.831 8.896-19.831 19.831s8.896 19.831 19.831 19.831 19.831-8.896 19.831-19.831-8.896-19.831-19.831-19.831zm-82.47 54.663c-26.648 0-48.328-21.68-48.328-48.328s21.68-48.328 48.328-48.328c9.684 0 19.029 2.856 27.026 8.258 3.432 2.319 4.334 6.981 2.016 10.414s-6.98 4.334-10.413 2.016c-5.507-3.721-11.949-5.688-18.628-5.688-18.377 0-33.328 14.951-33.328 33.328s14.951 33.328 33.328 33.328c6.934 0 12.794-2.088 17.419-6.208.899-.801 1.759-1.688 2.557-2.639 2.662-3.173 7.393-3.588 10.566-.925s3.587 7.393.925 10.566c-1.263 1.505-2.633 2.918-4.073 4.2-7.349 6.546-16.822 10.006-27.395 10.006z"/></g></g></svg>