<svg id="Capa_1" enable-background="new 0 0 511.98 511.98" height="512" viewBox="0 0 511.98 511.98" width="512" xmlns="http://www.w3.org/2000/svg"><g><g><path d="m443.816 68.163c-80.885-80.885-212.027-80.885-292.912 0-4.409 4.409-8.639 8.95-12.707 13.611-86.514 122.204-75.653 305.278-75.653 305.278-4.574-.376-9.023-.564-13.083-.564-8.201 0-15.846 1.576-22.309 4.674-7.421 7.421-12.651 19.43-12.651 25.021 0 24.17 23.107 35.015 46.281 35.015 0 23.174 10.846 46.281 35.015 46.281 5.424 0 16.478-3.823 24.748-12.093 3.279-6.58 4.947-14.429 4.947-22.867 0-4.061-.188-8.509-.564-13.083 0 0 192.345 2.976 305.274-75.649 4.662-4.069 9.205-8.301 13.615-12.711 80.885-80.886 80.885-212.027-.001-292.913z" fill="#d8ab8c"/><path d="m430.201 373.787c-75.065 65.528-182.261 87.25-305.274 75.649 0 0-.33-2.984-.724-6.645-.693-6.423 4.599-11.891 11.043-11.43 92.741 6.634 215.314-7.598 294.955-57.574zm-359.42 67.412c-23.174 0-46.281-10.846-46.281-35.015 0-5.591.951-10.703 2.651-15.021-11.802 5.656-19.651 16.404-19.651 32.021 0 24.17 20.107 38.015 43.281 38.015 0 23.174 13.846 43.281 38.015 43.281 15.369 0 26.022-7.603 31.748-19.093-4.299 1.375-9.324 2.093-14.748 2.093-24.17 0-35.015-23.107-35.015-46.281zm9.84-64.465c-6.622-92.73 7.601-215.315 57.576-294.96-65.529 75.068-87.235 182.281-75.653 305.278 0 0 2.985.33 6.647.725 6.423.692 11.89-4.599 11.43-11.043z" fill="#c38778"/><path d="m227.972 362.231c7.731 5.408 18.14.399 24.811-6.272 2.543-2.543 5.093-5.08 7.455-7.423l-100.475-70.282c-7.731-5.408-18.228-4.487-24.899 2.184-6.701 6.702-18.986 18.986-18.986 18.986z" fill="#e27f86"/><path d="m252.783 355.958c-6.671 6.671-17.08 7.68-24.811 2.272l-87.192-60.99c-7.732-5.408-18.23-4.487-24.902 2.185l100.559 70.341c7.731 5.408 18.228 4.487 24.899-2.184 9.21-9.211 11.447-11.624 11.447-11.624z" fill="#d16161"/><path d="m315.955 274.279c7.731 5.408 18.14.399 24.811-6.272 2.543-2.543 5.093-5.08 7.455-7.423l-100.475-70.282c-7.731-5.408-18.228-4.487-24.899 2.184-6.701 6.702-18.986 18.986-18.986 18.986z" fill="#e27f86"/><path d="m340.767 268.007c-6.671 6.671-17.08 7.68-24.811 2.272l-87.192-60.99c-7.732-5.408-18.23-4.487-24.902 2.185l100.559 70.341c7.731 5.408 18.228 4.487 24.899-2.184 9.209-9.211 11.447-11.624 11.447-11.624z" fill="#d16161"/><path d="m403.777 186.458c7.731 5.408 18.14.399 24.811-6.272 2.543-2.543 5.093-5.08 7.455-7.423l-100.474-70.282c-7.731-5.408-18.228-4.487-24.899 2.184-6.702 6.702-18.986 18.986-18.986 18.986z" fill="#e27f86"/><path d="m428.588 180.186c-6.671 6.671-17.08 7.68-24.811 2.272l-87.192-60.99c-7.732-5.408-18.23-4.487-24.902 2.185l100.559 70.341c7.731 5.408 18.228 4.487 24.899-2.184 9.209-9.212 11.447-11.624 11.447-11.624z" fill="#d16161"/></g><g><path d="m88.796 511.98c-24.196 0-42.305-17.977-45.131-43.666-25.688-2.826-43.665-20.935-43.665-45.13 0-26.435 19.876-44.195 49.46-44.195 1.583 0 3.202.026 4.852.079-5.285-64.516-1.166-123.039 12.263-174.073 14.954-56.83 41.542-104.651 79.026-142.134 36.747-36.748 85.507-58.9 137.299-62.377 51.294-3.441 102.084 11.557 143.008 42.238 3.314 2.485 3.986 7.186 1.502 10.5-2.485 3.313-7.186 3.986-10.5 1.502-38.054-28.53-85.287-42.481-133.006-39.274-48.168 3.234-93.519 23.838-127.697 58.017-35.581 35.581-60.857 81.118-75.126 135.345-13.58 51.607-17.304 111.339-11.07 177.537.208 2.209-.573 4.396-2.132 5.975-1.56 1.578-3.738 2.384-5.949 2.203-4.35-.357-8.545-.539-12.469-.539-16.659 0-34.46 7.669-34.46 29.195 0 14.697 11.197 30.515 35.781 30.515 4.142 0 7.5 3.358 7.5 7.5 0 24.584 15.818 35.781 30.516 35.781 21.526 0 29.195-17.801 29.195-34.461 0-3.918-.181-8.114-.539-12.469-.181-2.211.625-4.39 2.204-5.949s3.768-2.342 5.975-2.131c66.197 6.242 125.932 2.521 177.543-11.063 54.219-14.27 99.753-39.549 135.338-75.134 77.832-77.832 77.832-204.474 0-282.306-2.929-2.929-2.929-7.678 0-10.606 2.929-2.929 7.678-2.929 10.606 0 40.536 40.536 62.861 94.432 62.861 151.759s-22.325 111.223-62.861 151.759c-37.488 37.488-85.306 64.079-142.127 79.033-51.039 13.433-109.563 17.55-174.08 12.257.053 1.65.079 3.269.079 4.85 0 29.585-17.761 49.462-44.196 49.462zm138.867-131.381c-5.368 0-10.767-1.604-15.446-4.877l-100.559-70.34c-1.817-1.271-2.979-3.281-3.172-5.49-.194-2.209.6-4.39 2.168-5.958l18.986-18.987c9.26-9.26 23.771-10.533 34.501-3.026l94.062 65.796c.876-3.306.317-6.935-1.764-9.91l-60.991-87.193c-7.506-10.731-6.233-25.241 3.027-34.501l18.985-18.986c9.262-9.26 23.771-10.532 34.502-3.026l31.369 21.942c3.394 2.374 4.221 7.05 1.847 10.444-2.374 3.395-7.052 4.221-10.444 1.847l-31.369-21.942c-4.757-3.328-11.191-2.763-15.297 1.342l-12.663 12.663 93.23 65.215c4.758 3.329 11.191 2.764 15.297-1.342l12.663-12.663-37.453-26.199c-3.394-2.374-4.221-7.05-1.847-10.444 2.374-3.395 7.051-4.221 10.444-1.847l38.284 26.779c.876-3.306.317-6.935-1.763-9.91l-60.991-87.193c-7.506-10.73-6.234-25.24 3.026-34.501l18.987-18.986c9.261-9.26 23.771-10.533 34.501-3.026l100.559 70.34c1.817 1.271 2.979 3.281 3.172 5.49.194 2.209-.6 4.39-2.168 5.958l-18.986 18.986c-9.261 9.261-23.771 10.533-34.501 3.027l-94.062-65.796c-.876 3.306-.317 6.935 1.764 9.91l60.991 87.193c7.506 10.731 6.233 25.241-3.027 34.501l-18.986 18.986c-9.261 9.26-23.771 10.532-34.501 3.026l-94.062-65.796c-.876 3.306-.317 6.936 1.764 9.91l60.991 87.193c7.506 10.73 6.234 25.24-3.026 34.501l-18.986 18.986c-5.223 5.222-12.115 7.904-19.056 7.904zm-100.08-82.383 93.231 65.215c4.758 3.329 11.192 2.764 15.297-1.342l12.663-12.663-93.231-65.215c-4.757-3.328-11.191-2.764-15.296 1.342zm175.643-175.643 93.231 65.215c4.757 3.328 11.191 2.764 15.296-1.342l12.664-12.663-93.231-65.215c-4.759-3.329-11.191-2.764-15.297 1.342z"/></g></g></svg>