<?xml version="1.0" encoding="utf-8"?>
<!-- Generator: Adobe Illustrator 24.3.0, SVG Export Plug-In . SVG Version: 6.00 Build 0)  -->
<svg version="1.1" xmlns="http://www.w3.org/2000/svg" xmlns:xlink="http://www.w3.org/1999/xlink" x="0px" y="0px"
	 viewBox="0 0 500 500" enable-background="new 0 0 500 500" xml:space="preserve">
<g id="BACKGROUND">
</g>
<g id="OBJECTS">
	<g>
		<defs>
			<path id="SVGID_1_" d="M247.57,489.13c56.09,0,107.29-22.13,146.25-58.58H101.32C140.28,466.99,191.48,489.13,247.57,489.13z"/>
		</defs>
		<clipPath id="SVGID_2_">
			<use xlink:href="#SVGID_1_"  overflow="visible"/>
		</clipPath>
		<g clip-path="url(#SVGID_2_)">
			<defs>
				<path id="SVGID_3_" d="M438.8,489.02H56.05c12-21.97,27.28-41.67,45.13-58.37h292.49C411.52,447.36,426.8,467.05,438.8,489.02z"
					/>
			</defs>
			<clipPath id="SVGID_4_">
				<use xlink:href="#SVGID_3_"  overflow="visible"/>
			</clipPath>
			<g clip-path="url(#SVGID_4_)">
				<rect x="-2.58" y="430.65" fill="#D06824" width="500" height="58.37"/>
				<g opacity="0.4">
					<defs>
						<rect id="SVGID_5_" x="-2.58" y="430.65" opacity="0.4" width="500" height="58.37"/>
					</defs>
					<clipPath id="SVGID_6_">
						<use xlink:href="#SVGID_5_"  overflow="visible"/>
					</clipPath>
					<g clip-path="url(#SVGID_6_)">
						<path fill="#FFF1E5" d="M-1.78,472.59c21.16,2.26,42.52,0.64,63.45-2.66c20.98-3.24,41.61-8.4,62.37-12.95
							c10.39-2.27,20.82-4.41,31.35-6.01c10.52-1.63,21.11-2.84,31.73-3.62c21.24-1.56,42.61-1.49,63.83,0.42
							c10.61,0.98,21.17,2.47,31.64,4.42c10.47,1.94,20.85,4.32,31.18,6.83c20.66,5.04,41.18,10.54,62.05,14.33
							c20.85,3.86,42.11,5.43,63.32,4.88c21.21-0.46,42.4-3.11,63.05-8.17c-41.15,10.68-84.68,12.12-126.63,4.8
							c-21.01-3.57-41.57-9.14-62.21-14.08c-10.32-2.48-20.68-4.81-31.1-6.72c-10.42-1.92-20.93-3.35-31.48-4.31
							c-21.1-1.95-42.37-2.09-63.52-0.59c-10.57,0.75-21.12,1.92-31.6,3.52c-10.48,1.59-20.9,3.63-31.29,5.8
							c-20.78,4.36-41.48,9.37-62.55,12.41C40.78,473.89,19.35,475.18-1.78,472.59z"/>
						<path fill="#FFF1E5" d="M498.36,479.07c-41.09,10.92-84.72,12.18-126.57,4.24c-10.47-1.96-20.83-4.37-31.17-6.81
							c-10.34-2.43-20.69-4.77-31.12-6.74c-5.2-1.06-10.44-1.89-15.66-2.83l-7.86-1.22l-3.93-0.61l-3.94-0.53
							c-10.5-1.5-21.06-2.53-31.63-3.42c-21.14-1.63-42.4-2.09-63.55-0.64c-21.18,1.24-42.12,4.84-62.75,9.85
							c-10.33,2.45-20.64,5.06-31.05,7.28c-10.4,2.25-20.92,4.02-31.51,5.11c-21.18,2.12-42.57,1.95-63.68-0.54
							c21.14,2.16,42.5,2,63.57-0.44c10.54-1.2,20.99-3.03,31.34-5.37c10.36-2.3,20.63-5,30.96-7.54
							c10.32-2.53,20.71-4.95,31.25-6.55l3.94-0.66l3.96-0.52c2.64-0.34,5.28-0.72,7.92-1.03c5.3-0.49,10.59-1.13,15.91-1.41
							c21.25-1.51,42.6-1.11,63.83,0.47c10.61,0.92,21.2,1.98,31.73,3.52l3.95,0.54l3.94,0.62l7.88,1.25
							c5.24,0.95,10.49,1.81,15.7,2.88c20.93,3.96,41.44,9.69,62.23,13.83c20.79,4.16,42.04,5.93,63.25,5.49
							C456.54,486.85,477.75,484.29,498.36,479.07z"/>
						<path fill="#FFF1E5" d="M62,488.92c11.86,0.31,23.67-1.1,35.25-3.45c11.61-2.27,23.04-5.37,34.56-8.18
							c5.76-1.42,11.55-2.74,17.4-3.82c5.85-1.06,11.73-1.97,17.64-2.62c11.82-1.32,23.71-1.88,35.59-1.76
							c11.88,0.17,23.75,0.97,35.55,2.35c11.8,1.38,23.51,3.35,35.16,5.54c11.65,2.17,23.28,4.46,34.93,6.56
							c5.82,1.08,11.66,2.06,17.51,2.98c5.85,0.89,11.72,1.68,17.61,2.35c-23.65-1.82-46.98-6.42-70.32-10.4
							c-11.68-1.96-23.35-3.92-35.1-5.22c-11.75-1.31-23.55-2.04-35.37-2.15c-11.81-0.14-23.63,0.33-35.37,1.58
							c-5.87,0.62-11.71,1.49-17.52,2.51c-5.81,1.06-11.58,2.32-17.36,3.62c-11.54,2.62-23.04,5.56-34.73,7.65
							C85.75,488.47,73.85,489.69,62,488.92z"/>
						<path fill="#FFF1E5" d="M373.8,465.32c-5.25-1.64-10.48-3.54-15.14-6.54c-1.16-0.74-2.26-1.59-3.27-2.54
							c-1-0.95-1.94-1.99-2.6-3.23c-0.66-1.23-1.01-2.63-0.94-4.04c0.06-1.4,0.53-2.77,1.28-3.95c0.75-1.18,1.76-2.18,2.87-3.02
							c1.14-0.8,2.37-1.48,3.68-1.97c2.6-1.03,5.38-1.46,8.15-1.62c5.57-0.28,11.12,0.77,16.41,2.41c5.32,1.67,10.26,4.24,15.3,6.36
							c5.03,2.16,10.25,3.79,15.65,4.35c10.84,1.21,21.77-0.97,32.89-1.18c2.78-0.04,5.58,0.05,8.37,0.36
							c2.78,0.31,5.58,0.8,8.28,1.76c1.35,0.46,2.66,1.06,3.91,1.78c1.25,0.72,2.45,1.57,3.48,2.69c1,1.09,1.88,2.59,1.84,4.32
							c-0.02,0.42-0.11,0.84-0.22,1.24c-0.17,0.37-0.28,0.8-0.51,1.11c-0.21,0.34-0.42,0.67-0.69,0.96
							c-0.24,0.31-0.52,0.56-0.81,0.82c-1.14,1.01-2.43,1.71-3.75,2.27c-1.32,0.56-2.67,0.99-4.02,1.36
							c-2.72,0.72-5.46,1.18-8.21,1.55c-5.5,0.72-11.02,1.04-16.52,1.34c-2.76,0.14-5.48,0.33-8.24,0.52
							c-1.38,0.1-2.76,0.17-4.14,0.21c-1.38,0.06-2.76,0.07-4.14,0.08c-5.52,0.02-11.04-0.31-16.53-0.85
							C395.2,470.75,384.33,468.6,373.8,465.32z M373.8,465.32c10.55,3.19,21.43,5.24,32.4,6.25c5.48,0.49,11,0.64,16.49,0.51
							c1.37-0.03,2.75-0.08,4.12-0.17c1.37-0.06,2.74-0.17,4.11-0.3c2.73-0.25,5.5-0.5,8.24-0.71c5.49-0.43,10.98-0.87,16.39-1.7
							c2.7-0.42,5.39-0.94,7.99-1.69c2.56-0.77,5.16-1.74,7.04-3.4c0.9-0.83,1.61-1.87,1.62-2.92c0.02-1.06-0.56-2.15-1.41-3.05
							c-0.85-0.91-1.93-1.67-3.06-2.31c-1.14-0.64-2.36-1.18-3.62-1.6c-2.51-0.87-5.18-1.32-7.87-1.59
							c-2.69-0.27-5.41-0.33-8.14-0.28c-10.89,0.1-21.93,2.21-33.12,0.88c-5.59-0.64-10.96-2.5-15.99-4.79
							c-5.06-2.26-9.89-4.91-15.07-6.66c-5.17-1.73-10.61-2.89-16.07-2.73c-2.72,0.09-5.46,0.46-8.02,1.41
							c-1.28,0.46-2.5,1.09-3.63,1.84c-1.11,0.79-2.09,1.76-2.83,2.9c-0.74,1.13-1.2,2.45-1.27,3.81c-0.08,1.35,0.25,2.72,0.88,3.92
							c0.63,1.21,1.55,2.25,2.53,3.2c0.99,0.95,2.08,1.8,3.23,2.55C363.35,461.68,368.57,463.63,373.8,465.32z"/>
						<path fill="#FFF1E5" d="M498.87,461.84c-5.63,0.7-11.44-0.87-16.31-3.86c-1.22-0.75-2.39-1.59-3.48-2.54
							c-1.1-0.95-2.09-1.96-3.08-2.97c-1.98-2.02-3.89-4.05-6.09-5.68c-4.38-3.32-9.83-4.78-15.35-5.12
							c-5.53-0.41-11.13-0.02-16.76,0.3c-2.82,0.15-5.65,0.28-8.49,0.3c-2.84,0.02-5.71-0.04-8.55-0.4
							c-5.69-0.64-11.26-2.18-16.54-4.29c-5.29-2.09-10.31-4.71-15.33-7.25c-2.51-1.27-5.01-2.6-7.58-3.67
							c-1.3-0.51-2.64-0.92-4.02-1.13c-1.37-0.22-2.81-0.22-4.15,0.21c1.31-0.53,2.78-0.64,4.19-0.51c1.42,0.13,2.81,0.48,4.16,0.93
							c2.69,0.96,5.23,2.15,7.82,3.29c5.13,2.34,10.22,4.75,15.47,6.68c5.25,1.9,10.66,3.35,16.18,3.86
							c5.51,0.6,11.12,0.29,16.73-0.02c5.62-0.28,11.3-0.67,17.02-0.19c2.85,0.24,5.72,0.73,8.48,1.66
							c2.77,0.87,5.38,2.31,7.66,4.11c2.28,1.8,4.21,3.94,6.09,6.02c0.95,1.04,1.89,2.07,2.89,3.01c1.01,0.94,2.11,1.79,3.25,2.57
							c2.28,1.57,4.8,2.82,7.48,3.62C493.23,461.61,496.05,461.93,498.87,461.84z"/>
						<path fill="#FFF1E5" d="M354.9,426.58c-3.58,0.35-7.13,1.19-10.4,2.66c-1.63,0.74-3.2,1.63-4.58,2.75
							c-1.36,1.13-2.6,2.47-3.23,4.11c-0.65,1.63-0.77,3.44-1.25,5.22c-0.24,0.89-0.59,1.77-1.11,2.57c-0.52,0.8-1.22,1.46-1.98,2
							c-1.55,1.07-3.33,1.7-5.13,2.06c-1.81,0.36-3.64,0.49-5.46,0.49c-3.65,0-7.27-0.52-10.83-1.22
							c-3.56-0.73-7.04-1.61-10.55-2.45c-7.01-1.7-13.99-3.45-21.04-4.86c-7.04-1.43-14.14-2.46-21.29-3.06
							c-7.15-0.57-14.33-0.71-21.51-0.54c-14.36,0.34-28.67,2.01-42.87,4.24c-14.22,2.2-28.36,4.98-42.56,7.49
							c-7.1,1.25-14.22,2.45-21.37,3.46c-7.15,1-14.32,1.9-21.56,2.3c-7.23,0.42-14.53,0.27-21.71-0.82
							c-7.18-1.06-14.22-2.96-20.97-5.57c-6.76-2.61-13.19-6.01-19.25-9.93c-6.08-3.9-11.77-8.35-17.42-12.82
							c5.78,4.3,11.58,8.59,17.71,12.37c6.12,3.78,12.57,7.02,19.31,9.46c6.73,2.48,13.71,4.28,20.81,5.23
							c7.1,0.99,14.28,1.04,21.43,0.54c28.67-2.3,56.77-9.18,85.28-13.69c14.27-2.19,28.67-3.8,43.14-4.08
							c7.23-0.15,14.48,0.03,21.69,0.63c3.61,0.34,7.21,0.73,10.79,1.28c3.58,0.56,7.13,1.24,10.67,1.99
							c7.07,1.51,14.05,3.35,21.03,5.14c3.49,0.88,6.98,1.81,10.47,2.57c3.5,0.73,7.05,1.27,10.61,1.34
							c1.78,0.03,3.56-0.05,5.29-0.36c1.73-0.31,3.43-0.87,4.87-1.83c1.47-0.93,2.45-2.43,2.91-4.12c0.5-1.68,0.66-3.53,1.38-5.25
							c0.71-1.74,2.04-3.11,3.46-4.23c1.44-1.12,3.05-2,4.72-2.7C347.73,427.57,351.31,426.83,354.9,426.58z"/>
						<path fill="#FFF1E5" d="M-9.09,467.66c10.82-0.23,21.63-0.32,32.45-0.29c5.41-0.02,10.8,0.12,16.14-0.28
							c2.67-0.2,5.32-0.47,7.91-1.01c2.58-0.52,5.1-1.33,7.26-2.63c1.05-0.67,2.04-1.44,2.69-2.41c0.66-0.96,0.99-2.07,0.93-3.21
							c-0.14-2.33-1.69-4.54-3.54-6.26c-1.89-1.75-4.15-3.18-6.46-4.5c-2.33-1.31-4.73-2.52-7.14-3.75
							c-9.72-4.77-19.01-10.91-26.18-19.06c1.94,1.89,3.98,3.66,6.09,5.33c2.12,1.66,4.33,3.21,6.6,4.65
							c4.52,2.93,9.29,5.39,14.18,7.67c2.44,1.15,4.9,2.3,7.31,3.62c2.4,1.32,4.77,2.74,6.89,4.64c1.06,0.95,2.01,2.05,2.78,3.3
							c0.75,1.25,1.34,2.68,1.43,4.25c0.1,1.56-0.37,3.17-1.25,4.44c-0.87,1.29-2.06,2.22-3.27,2.99c-2.49,1.48-5.21,2.31-7.92,2.85
							c-2.72,0.54-5.45,0.83-8.18,0.98c-5.46,0.29-10.89,0.11-16.28-0.05C12.52,468.63,1.72,468.21-9.09,467.66z"/>
						<path fill="#FFF1E5" d="M-9.54,458.57c4.23,0.39,8.44,0.91,12.66,1.36c4.22,0.49,8.41,1.05,12.6,1.26
							c4.17,0.17,8.4,0.1,12.33-1.03c1.95-0.56,3.89-1.32,5.43-2.47c0.76-0.57,1.41-1.26,1.71-1.98c0.31-0.72,0.2-1.44-0.22-2.2
							c-0.42-0.76-1.09-1.48-1.84-2.13c-0.75-0.66-1.58-1.27-2.45-1.84l-1.29-0.87l-1.34-0.81c-0.88-0.55-1.8-1.05-2.72-1.56
							c-3.67-2.04-7.51-3.81-11.32-5.68c-3.82-1.85-7.64-3.75-11.28-5.99c-1.79-1.17-3.57-2.36-5.18-3.77
							c-1.68-1.33-3.06-3-4.25-4.75c2.68,3.31,6.23,5.69,9.93,7.67c3.71,2,7.58,3.69,11.45,5.42c3.88,1.7,7.76,3.45,11.56,5.43
							c0.95,0.49,1.89,1.01,2.81,1.57l1.39,0.83l1.35,0.9c0.91,0.59,1.79,1.22,2.64,1.96c0.84,0.74,1.67,1.56,2.29,2.66
							c0.3,0.55,0.54,1.19,0.61,1.88c0.05,0.34-0.01,0.7-0.03,1.05c-0.08,0.33-0.15,0.68-0.28,0.98c-0.53,1.24-1.44,2.1-2.37,2.8
							c-0.93,0.7-1.94,1.23-2.96,1.66c-1.02,0.44-2.07,0.8-3.14,1.07c-4.28,1.11-8.67,1.11-12.93,0.76
							c-4.28-0.35-8.46-1.13-12.64-1.85C-1.2,460.12-5.38,459.41-9.54,458.57z"/>
						<path fill="#FFF1E5" d="M-7.09,447.52c4.59,2.52,9.57,4.04,14.61,5.04c2.53,0.48,5.08,0.83,7.64,1.01
							c2.22,0.35,6.14-0.37,3.88-0.66c-4.43-2.67-8.92-5.39-13.31-8.19c-4.41-2.8-8.78-5.65-13.04-8.68
							c4.69,2.31,9.29,4.79,13.84,7.34c4.57,2.54,9.05,5.15,13.57,7.84c0.3,0.2,0.62,0.4,0.96,0.74c0.17,0.18,0.35,0.39,0.49,0.73
							c0.15,0.33,0.15,0.83,0,1.19c-0.32,0.76-0.86,1-1.24,1.18c-0.4,0.17-0.78,0.27-1.14,0.34c-1.43,0.26-2.86,0.22-4.17,0.05
							c-2.63-0.29-5.25-0.7-7.81-1.38C2.08,452.77-2.94,450.75-7.09,447.52z"/>
						<path fill="#FFF1E5" d="M148.08,428.36c-7.95,3.25-16.22,5.73-24.61,7.65c-8.39,1.89-16.93,3.33-25.59,3.57
							c-4.32,0.11-8.69-0.16-12.96-0.85c-4.28-0.65-8.51-1.6-12.67-2.83c-4.15-1.26-8.22-2.8-12.12-4.72
							c-3.91-1.89-7.66-4.16-11.13-6.81l1.37-1.15c1.59,2.9,3.91,5.4,6.53,7.53c2.63,2.12,5.54,3.92,8.6,5.43
							c6.11,3.05,12.71,5.12,19.41,6.53c6.72,1.39,13.59,2.07,20.46,2c6.87-0.05,13.7-1,20.43-2.47c6.73-1.48,13.38-3.4,20.05-5.31
							c6.66-1.93,13.41-3.68,20.21-5.1c6.8-1.45,13.66-2.56,20.54-3.45c3.44-0.43,6.89-0.81,10.35-1.13
							c3.46-0.31,6.92-0.53,10.38-0.72c-6.91,0.62-13.79,1.43-20.64,2.48c-6.84,1.06-13.64,2.38-20.39,3.91
							c-6.75,1.53-13.41,3.37-20.04,5.41c-6.63,2-13.27,4.09-20.09,5.59c-6.8,1.52-13.77,2.53-20.78,2.62
							c-7,0.11-14.01-0.54-20.87-1.93c-6.86-1.38-13.61-3.52-19.89-6.71c-3.14-1.58-6.16-3.46-8.92-5.71
							c-2.74-2.25-5.22-4.93-6.95-8.13l-2.06-3.8l3.42,2.65c3.34,2.58,6.97,4.81,10.78,6.68c3.8,1.89,7.78,3.43,11.84,4.68
							c4.06,1.27,8.21,2.28,12.41,2.98c4.2,0.75,8.43,1.08,12.7,1.04c8.53-0.09,17.04-1.42,25.45-3.04
							C131.71,433.58,140,431.29,148.08,428.36z"/>
						<path fill="#FFF1E5" d="M417.44,464.93c-3.77-0.19-7.53-0.46-11.29-0.84c-3.76-0.37-7.51-0.81-11.23-1.45
							c-7.42-1.28-14.9-3-21.66-6.64c-0.83-0.47-1.68-0.92-2.46-1.48c-0.79-0.54-1.62-1.03-2.35-1.77
							c-0.36-0.36-0.71-0.78-0.95-1.32c-0.26-0.52-0.3-1.34,0.08-1.93c0.76-1.1,1.89-1.4,2.88-1.59c2.04-0.32,3.99-0.04,5.89,0.34
							c1.91,0.44,3.69,0.95,5.52,1.48c7.27,2.11,14.4,4.54,21.72,6.07c7.29,1.64,14.77,2.05,22.29,2.07l11.31-0.04
							c1.89-0.01,3.78-0.01,5.67,0.02c1.89,0.02,3.8,0.07,5.71,0.3c1.88,0.26,3.89,0.64,5.51,1.9c0.38,0.32,0.83,0.67,0.99,1.35
							c0.06,0.35-0.07,0.72-0.27,0.96c-0.2,0.23-0.42,0.4-0.64,0.53c-0.91,0.51-1.84,0.73-2.78,0.94c-3.75,0.74-7.53,0.9-11.3,1.08
							c-3.77,0.16-7.55,0.2-11.32,0.2C424.98,465.12,421.21,465.09,417.44,464.93z M417.44,464.93c7.54,0.23,15.1,0.16,22.63-0.3
							c3.75-0.26,7.54-0.57,11.18-1.41c0.89-0.23,1.81-0.49,2.54-0.94c0.18-0.11,0.33-0.24,0.43-0.37c0.09-0.14,0.12-0.24,0.1-0.36
							c-0.06-0.26-0.37-0.58-0.72-0.83c-1.43-1.04-3.3-1.36-5.13-1.55c-1.84-0.17-3.71-0.15-5.6-0.11
							c-1.88,0.03-3.76,0.09-5.65,0.16c-3.77,0.13-7.54,0.33-11.33,0.39c-3.79,0.06-7.59,0.04-11.39-0.23
							c-3.8-0.29-7.6-0.81-11.33-1.61c-7.47-1.6-14.63-4.12-21.8-6.39c-1.79-0.54-3.61-1.15-5.37-1.61
							c-1.77-0.42-3.62-0.71-5.33-0.5c-0.83,0.1-1.67,0.43-2.01,0.91c-0.32,0.37,0.03,1.13,0.64,1.76c0.57,0.64,1.36,1.15,2.11,1.69
							c0.73,0.57,1.54,1.03,2.34,1.51c3.21,1.89,6.71,3.31,10.28,4.47c3.58,1.15,7.24,2.05,10.94,2.76
							C402.37,463.8,409.91,464.49,417.44,464.93z"/>
					</g>
				</g>
			</g>
		</g>
	</g>
	<path fill="#F8F5FC" d="M468.45,255.42c0-129.07-98.89-233.71-220.88-233.71c-121.99,0-220.88,104.64-220.88,233.71
		c0,42.53,10.74,82.41,29.51,116.76h382.76C457.71,337.83,468.45,297.95,468.45,255.42z"/>
	<g>
		<defs>
			<path id="SVGID_7_" d="M438.86,372.1H56.1c12,21.97,27.28,41.67,45.13,58.37h292.49C411.58,413.76,426.86,394.06,438.86,372.1z"
				/>
		</defs>
		<clipPath id="SVGID_8_">
			<use xlink:href="#SVGID_7_"  overflow="visible"/>
		</clipPath>
		<g clip-path="url(#SVGID_8_)">
			<rect x="-2.52" y="372.1" fill="#D06824" width="500" height="58.37"/>
			<g opacity="0.4">
				<defs>
					<rect id="SVGID_9_" x="-2.52" y="372.1" opacity="0.4" width="500" height="58.37"/>
				</defs>
				<clipPath id="SVGID_10_">
					<use xlink:href="#SVGID_9_"  overflow="visible"/>
				</clipPath>
				<g clip-path="url(#SVGID_10_)">
					<path fill="#FFF1E5" d="M-1.72,388.52c21.13-2.59,42.56-1.3,63.6,1.7c21.07,3.05,41.77,8.06,62.55,12.41
						c10.39,2.17,20.81,4.21,31.29,5.8c10.48,1.6,21.03,2.76,31.6,3.52c21.15,1.49,42.42,1.36,63.52-0.59
						c10.55-0.96,21.06-2.4,31.48-4.31c10.43-1.9,20.78-4.24,31.1-6.72c20.64-4.94,41.21-10.51,62.21-14.08
						c41.95-7.32,85.48-5.87,126.63,4.8c-20.64-5.06-41.84-7.71-63.05-8.17c-21.21-0.55-42.46,1.02-63.32,4.88
						c-20.87,3.79-41.4,9.29-62.05,14.33c-10.33,2.51-20.71,4.88-31.18,6.83c-10.47,1.95-21.04,3.44-31.64,4.42
						c-21.23,1.9-42.6,1.98-63.83,0.42c-10.62-0.78-21.21-1.99-31.73-3.62c-10.53-1.6-20.96-3.74-31.35-6.01
						c-20.77-4.55-41.39-9.71-62.37-12.95C40.79,387.88,19.44,386.26-1.72,388.52z"/>
					<path fill="#FFF1E5" d="M498.41,382.05c-20.61-5.22-41.82-7.79-63.03-8.22c-21.21-0.44-42.46,1.33-63.25,5.49
						c-20.8,4.14-41.31,9.87-62.23,13.83c-5.21,1.07-10.46,1.93-15.7,2.88l-7.88,1.25l-3.94,0.62l-3.95,0.54
						c-10.53,1.54-21.13,2.6-31.73,3.52c-21.23,1.58-42.58,1.98-63.83,0.47c-5.32-0.28-10.61-0.91-15.91-1.41
						c-2.64-0.31-5.28-0.69-7.92-1.03l-3.96-0.52l-3.94-0.66c-10.54-1.6-20.93-4.02-31.25-6.55c-10.33-2.54-20.6-5.23-30.96-7.54
						c-10.35-2.34-20.8-4.17-31.34-5.37c-21.07-2.44-42.43-2.6-63.57-0.44c21.11-2.49,42.5-2.66,63.68-0.54
						c10.59,1.09,21.11,2.86,31.51,5.11c10.41,2.22,20.72,4.83,31.05,7.28c20.63,5.01,41.57,8.61,62.75,9.85
						c21.16,1.45,42.41,0.98,63.55-0.64c10.57-0.88,21.13-1.91,31.63-3.42l3.94-0.53l3.93-0.61l7.86-1.22
						c5.22-0.93,10.46-1.77,15.66-2.83c10.43-1.97,20.77-4.31,31.12-6.74c10.34-2.44,20.7-4.85,31.17-6.81
						C413.69,369.86,457.32,371.13,498.41,382.05z"/>
					<path fill="#FFF1E5" d="M62.06,372.2c11.84-0.77,23.75,0.44,35.43,2.47c11.69,2.09,23.2,5.02,34.73,7.65
						c5.77,1.3,11.55,2.56,17.36,3.62c5.81,1.02,11.65,1.89,17.52,2.51c11.74,1.26,23.56,1.72,35.37,1.58
						c11.81-0.11,23.62-0.84,35.37-2.15c11.75-1.3,23.42-3.26,35.1-5.22c23.33-3.98,46.66-8.58,70.32-10.4
						c-5.89,0.67-11.76,1.46-17.61,2.35c-5.85,0.92-11.69,1.9-17.51,2.98c-11.66,2.09-23.28,4.39-34.93,6.56
						c-11.65,2.19-23.36,4.16-35.16,5.54c-11.8,1.38-23.66,2.18-35.55,2.35c-11.88,0.12-23.78-0.44-35.59-1.76
						c-5.91-0.66-11.79-1.56-17.64-2.62c-5.85-1.08-11.64-2.4-17.4-3.82c-11.52-2.81-22.95-5.91-34.56-8.18
						C85.73,373.29,73.91,371.89,62.06,372.2z"/>
					<path fill="#FFF1E5" d="M373.86,395.8c-5.23,1.69-10.45,3.64-15.06,6.66c-1.15,0.75-2.24,1.6-3.23,2.55
						c-0.98,0.95-1.9,1.99-2.53,3.2c-0.63,1.2-0.96,2.57-0.88,3.92c0.07,1.35,0.54,2.67,1.27,3.81c0.74,1.14,1.72,2.11,2.83,2.9
						c1.13,0.75,2.34,1.39,3.63,1.84c2.56,0.95,5.3,1.32,8.02,1.41c5.47,0.16,10.91-1,16.07-2.73c5.18-1.75,10.01-4.4,15.07-6.66
						c5.03-2.29,10.41-4.15,15.99-4.79c11.19-1.33,22.22,0.78,33.12,0.88c2.73,0.05,5.45-0.01,8.14-0.28
						c2.69-0.28,5.36-0.72,7.87-1.59c1.26-0.42,2.48-0.96,3.62-1.6c1.14-0.64,2.21-1.4,3.06-2.31c0.85-0.91,1.42-1.99,1.41-3.05
						c-0.01-1.05-0.71-2.09-1.62-2.92c-1.88-1.66-4.48-2.62-7.04-3.4c-2.6-0.75-5.28-1.27-7.99-1.69c-5.41-0.83-10.9-1.27-16.39-1.7
						c-2.74-0.2-5.51-0.46-8.24-0.71c-1.37-0.13-2.74-0.23-4.11-0.3c-1.37-0.09-2.74-0.14-4.12-0.17
						c-5.5-0.13-11.01,0.02-16.49,0.51C395.29,390.56,384.41,392.6,373.86,395.8z M373.86,395.8c10.52-3.28,21.39-5.43,32.37-6.54
						c5.49-0.54,11-0.88,16.53-0.85c1.38,0,2.76,0.01,4.14,0.08c1.38,0.03,2.76,0.11,4.14,0.21c2.76,0.19,5.49,0.38,8.24,0.52
						c5.5,0.31,11.02,0.62,16.52,1.34c2.75,0.37,5.5,0.83,8.21,1.55c1.36,0.37,2.7,0.8,4.02,1.36c1.32,0.56,2.61,1.26,3.75,2.27
						c0.28,0.26,0.56,0.51,0.81,0.82c0.26,0.28,0.48,0.61,0.69,0.96c0.23,0.32,0.35,0.74,0.51,1.11c0.11,0.4,0.2,0.83,0.22,1.24
						c0.04,1.73-0.83,3.23-1.84,4.32c-1.02,1.12-2.23,1.96-3.48,2.69c-1.25,0.72-2.56,1.31-3.91,1.78c-2.7,0.96-5.5,1.45-8.28,1.76
						c-2.79,0.31-5.59,0.39-8.37,0.36c-11.12-0.21-22.05-2.39-32.89-1.18c-5.39,0.56-10.62,2.19-15.65,4.35
						c-5.04,2.12-9.98,4.69-15.3,6.36c-5.29,1.64-10.84,2.7-16.41,2.41c-2.77-0.16-5.56-0.6-8.15-1.62c-1.3-0.5-2.53-1.17-3.68-1.97
						c-1.11-0.84-2.12-1.84-2.87-3.02c-0.75-1.18-1.22-2.55-1.28-3.95c-0.07-1.4,0.29-2.81,0.94-4.04c0.66-1.24,1.6-2.28,2.6-3.23
						c1.01-0.95,2.11-1.79,3.27-2.54C363.37,399.34,368.61,397.44,373.86,395.8z"/>
					<path fill="#FFF1E5" d="M498.93,399.28c-2.82-0.1-5.64,0.23-8.3,1.05c-2.67,0.8-5.2,2.05-7.48,3.62
						c-1.14,0.78-2.24,1.63-3.25,2.57c-1,0.93-1.95,1.97-2.89,3.01c-1.88,2.08-3.81,4.21-6.09,6.02c-2.28,1.8-4.89,3.23-7.66,4.11
						c-2.76,0.93-5.63,1.42-8.48,1.66c-5.73,0.49-11.41,0.09-17.02-0.19c-5.61-0.31-11.22-0.61-16.73-0.02
						c-5.53,0.51-10.94,1.96-16.18,3.86c-5.25,1.93-10.33,4.34-15.47,6.68c-2.59,1.14-5.13,2.33-7.82,3.29
						c-1.35,0.45-2.74,0.8-4.16,0.93c-1.41,0.13-2.88,0.02-4.19-0.51c1.35,0.43,2.78,0.43,4.15,0.21c1.38-0.21,2.72-0.62,4.02-1.13
						c2.57-1.07,5.07-2.41,7.58-3.67c5.02-2.55,10.04-5.16,15.33-7.25c5.28-2.11,10.84-3.65,16.54-4.29
						c2.84-0.36,5.71-0.42,8.55-0.4c2.84,0.02,5.68,0.15,8.49,0.3c5.63,0.32,11.23,0.71,16.76,0.3c5.51-0.34,10.97-1.8,15.35-5.12
						c2.2-1.63,4.11-3.66,6.09-5.68c0.99-1.01,1.99-2.02,3.08-2.97c1.09-0.94,2.26-1.78,3.48-2.54
						C487.48,400.14,493.3,398.58,498.93,399.28z"/>
					<path fill="#FFF1E5" d="M354.96,434.54c-3.59-0.25-7.17-0.99-10.52-2.38c-1.67-0.7-3.28-1.58-4.72-2.7
						c-1.42-1.13-2.74-2.5-3.46-4.23c-0.72-1.72-0.88-3.56-1.38-5.25c-0.46-1.7-1.44-3.19-2.91-4.12c-1.44-0.96-3.14-1.52-4.87-1.83
						c-1.74-0.31-3.52-0.4-5.29-0.36c-3.56,0.07-7.11,0.61-10.61,1.34c-3.49,0.76-6.99,1.69-10.47,2.57
						c-6.98,1.79-13.96,3.63-21.03,5.14c-3.53,0.76-7.09,1.43-10.67,1.99c-3.58,0.56-7.18,0.95-10.79,1.28
						c-7.22,0.61-14.46,0.78-21.69,0.63c-14.47-0.28-28.87-1.9-43.14-4.08c-28.51-4.52-56.61-11.39-85.28-13.69
						c-7.15-0.5-14.34-0.45-21.43,0.54c-7.1,0.96-14.08,2.75-20.81,5.23c-6.74,2.45-13.19,5.69-19.31,9.46
						c-6.13,3.77-11.92,8.07-17.71,12.37c5.65-4.47,11.34-8.91,17.42-12.82c6.06-3.92,12.49-7.32,19.25-9.93
						c6.76-2.61,13.8-4.5,20.97-5.57c7.18-1.09,14.48-1.24,21.71-0.82c7.24,0.4,14.41,1.29,21.56,2.3
						c7.15,1.02,14.27,2.21,21.37,3.46c14.2,2.51,28.34,5.3,42.56,7.49c14.2,2.24,28.51,3.9,42.87,4.24
						c7.18,0.17,14.36,0.03,21.51-0.54c7.15-0.6,14.25-1.62,21.29-3.06c7.04-1.41,14.03-3.16,21.04-4.86
						c3.51-0.84,6.99-1.72,10.55-2.45c3.56-0.69,7.17-1.21,10.83-1.22c1.82,0,3.66,0.13,5.46,0.49c1.8,0.36,3.59,0.99,5.13,2.06
						c0.76,0.54,1.47,1.2,1.98,2c0.52,0.79,0.87,1.68,1.11,2.57c0.48,1.78,0.6,3.59,1.25,5.22c0.63,1.64,1.87,2.98,3.23,4.11
						c1.38,1.12,2.95,2.02,4.58,2.75C347.83,433.35,351.37,434.19,354.96,434.54z"/>
					<path fill="#FFF1E5" d="M-9.04,393.45c10.81-0.55,21.61-0.97,32.42-1.26c5.4-0.16,10.83-0.35,16.28-0.05
						c2.73,0.15,5.46,0.44,8.18,0.98c2.71,0.54,5.43,1.36,7.92,2.85c1.21,0.78,2.4,1.7,3.27,2.99c0.88,1.27,1.35,2.88,1.25,4.44
						c-0.09,1.56-0.68,3-1.43,4.25c-0.77,1.25-1.72,2.35-2.78,3.3c-2.12,1.89-4.49,3.32-6.89,4.64c-2.4,1.31-4.86,2.46-7.31,3.62
						c-4.89,2.28-9.66,4.74-14.18,7.67c-2.27,1.44-4.47,2.99-6.6,4.65c-2.11,1.68-4.15,3.45-6.09,5.33
						c7.17-8.15,16.46-14.29,26.18-19.06c2.41-1.23,4.82-2.44,7.14-3.75c2.31-1.32,4.58-2.75,6.46-4.5
						c1.84-1.72,3.39-3.93,3.54-6.26c0.05-1.15-0.27-2.26-0.93-3.21c-0.65-0.97-1.64-1.74-2.69-2.41c-2.15-1.3-4.68-2.11-7.26-2.63
						c-2.58-0.53-5.24-0.81-7.91-1.01c-5.34-0.4-10.73-0.26-16.14-0.28C12.6,393.78,1.78,393.68-9.04,393.45z"/>
					<path fill="#FFF1E5" d="M-9.49,402.54c4.16-0.84,8.34-1.55,12.52-2.32c4.18-0.72,8.36-1.5,12.64-1.85
						c4.26-0.35,8.65-0.35,12.93,0.76c1.07,0.27,2.11,0.63,3.14,1.07c1.02,0.44,2.03,0.96,2.96,1.66c0.92,0.7,1.83,1.56,2.37,2.8
						c0.13,0.31,0.21,0.65,0.28,0.98c0.02,0.35,0.07,0.7,0.03,1.05c-0.07,0.69-0.31,1.33-0.61,1.88c-0.62,1.1-1.45,1.93-2.29,2.66
						c-0.85,0.74-1.74,1.37-2.64,1.96l-1.35,0.9l-1.39,0.83c-0.92,0.56-1.86,1.08-2.81,1.57c-3.8,1.99-7.68,3.73-11.56,5.43
						c-3.87,1.73-7.74,3.42-11.45,5.42c-3.7,1.99-7.25,4.36-9.93,7.67c1.19-1.75,2.58-3.42,4.25-4.75c1.61-1.41,3.39-2.61,5.18-3.77
						c3.64-2.24,7.47-4.14,11.28-5.99c3.81-1.87,7.65-3.64,11.32-5.68c0.92-0.51,1.84-1.01,2.72-1.56l1.34-0.81l1.29-0.87
						c0.87-0.57,1.7-1.18,2.45-1.84c0.75-0.65,1.42-1.37,1.84-2.13c0.42-0.76,0.53-1.49,0.22-2.2c-0.3-0.72-0.95-1.41-1.71-1.98
						c-1.54-1.16-3.48-1.91-5.43-2.47c-3.93-1.13-8.16-1.2-12.33-1.03c-4.19,0.21-8.39,0.77-12.6,1.26
						C-1.05,401.63-5.26,402.15-9.49,402.54z"/>
					<path fill="#FFF1E5" d="M-7.04,413.59c4.15-3.23,9.17-5.25,14.27-6.55c2.56-0.67,5.18-1.08,7.81-1.38
						c1.31-0.17,2.74-0.21,4.17,0.05c0.37,0.07,0.74,0.17,1.14,0.34c0.37,0.18,0.92,0.42,1.24,1.18c0.15,0.35,0.14,0.85,0,1.19
						c-0.14,0.34-0.32,0.56-0.49,0.73c-0.34,0.34-0.65,0.55-0.96,0.74c-4.53,2.69-9,5.3-13.57,7.84c-4.56,2.54-9.15,5.03-13.84,7.34
						c4.27-3.03,8.64-5.88,13.04-8.68c4.39-2.8,8.88-5.52,13.31-8.19c2.27-0.29-1.65-1.01-3.88-0.66c-2.56,0.18-5.11,0.53-7.64,1.01
						C2.53,409.55-2.45,411.07-7.04,413.59z"/>
					<path fill="#FFF1E5" d="M148.13,432.76c-8.07-2.93-16.37-5.22-24.77-6.9c-8.41-1.63-16.92-2.96-25.45-3.04
						c-4.27-0.04-8.5,0.29-12.7,1.04c-4.2,0.7-8.35,1.71-12.41,2.98c-4.06,1.25-8.04,2.79-11.84,4.68
						c-3.81,1.86-7.44,4.09-10.78,6.68l-3.42,2.65l2.06-3.8c1.73-3.2,4.21-5.88,6.95-8.13c2.76-2.24,5.77-4.12,8.92-5.71
						c6.29-3.19,13.03-5.33,19.89-6.71c6.87-1.39,13.87-2.04,20.87-1.93c7.01,0.09,13.98,1.1,20.78,2.62
						c6.82,1.5,13.46,3.59,20.09,5.59c6.62,2.03,13.28,3.88,20.04,5.41c6.75,1.52,13.55,2.84,20.39,3.91
						c6.85,1.05,13.73,1.86,20.64,2.48c-3.46-0.19-6.92-0.41-10.38-0.72c-3.45-0.32-6.9-0.7-10.35-1.13
						c-6.88-0.89-13.75-2-20.54-3.45c-6.8-1.42-13.54-3.17-20.21-5.1c-6.67-1.91-13.32-3.83-20.05-5.31
						c-6.73-1.47-13.57-2.42-20.43-2.47c-6.86-0.07-13.74,0.61-20.46,2c-6.71,1.42-13.3,3.49-19.41,6.53
						c-3.06,1.52-5.96,3.32-8.6,5.43c-2.62,2.13-4.94,4.63-6.53,7.53l-1.37-1.15c3.47-2.65,7.21-4.92,11.13-6.81
						c3.9-1.91,7.97-3.46,12.12-4.72c4.16-1.23,8.39-2.19,12.67-2.83c4.27-0.69,8.64-0.96,12.96-0.85
						c8.66,0.24,17.2,1.68,25.59,3.57C131.91,427.03,140.18,429.5,148.13,432.76z"/>
					<path fill="#FFF1E5" d="M417.49,396.18c-7.53,0.44-15.06,1.13-22.47,2.56c-3.7,0.71-7.37,1.61-10.94,2.76
						c-3.57,1.16-7.07,2.58-10.28,4.47c-0.79,0.49-1.6,0.94-2.34,1.51c-0.75,0.55-1.54,1.06-2.11,1.69
						c-0.6,0.62-0.95,1.39-0.64,1.76c0.34,0.48,1.18,0.82,2.01,0.91c1.71,0.21,3.57-0.08,5.33-0.5c1.76-0.46,3.58-1.07,5.37-1.61
						c7.17-2.27,14.33-4.79,21.8-6.39c3.72-0.81,7.53-1.33,11.33-1.61c3.8-0.27,7.61-0.29,11.39-0.23
						c3.79,0.06,7.56,0.25,11.33,0.39c1.88,0.07,3.77,0.13,5.65,0.16c1.88,0.04,3.75,0.06,5.6-0.11c1.82-0.19,3.7-0.51,5.13-1.55
						c0.35-0.25,0.66-0.57,0.72-0.83c0.02-0.12-0.01-0.23-0.1-0.36c-0.11-0.13-0.25-0.26-0.43-0.37c-0.73-0.45-1.65-0.71-2.54-0.94
						c-3.64-0.84-7.42-1.15-11.18-1.41C432.59,396.03,425.03,395.95,417.49,396.18z M417.49,396.18c3.77-0.16,7.54-0.19,11.32-0.18
						c3.77,0.01,7.55,0.04,11.32,0.2c3.77,0.18,7.55,0.33,11.3,1.08c0.93,0.21,1.87,0.43,2.78,0.94c0.23,0.13,0.45,0.3,0.64,0.53
						c0.19,0.24,0.33,0.61,0.27,0.96c-0.16,0.68-0.6,1.03-0.99,1.35c-1.63,1.25-3.63,1.64-5.51,1.9c-1.91,0.24-3.82,0.28-5.71,0.3
						c-1.89,0.03-3.78,0.03-5.67,0.02l-11.31-0.04c-7.52,0.02-15,0.43-22.29,2.07c-7.32,1.53-14.45,3.97-21.72,6.07
						c-1.83,0.53-3.61,1.04-5.52,1.48c-1.91,0.38-3.86,0.65-5.89,0.34c-1-0.19-2.12-0.49-2.88-1.59c-0.38-0.58-0.34-1.41-0.08-1.93
						c0.24-0.55,0.59-0.96,0.95-1.32c0.73-0.75,1.56-1.23,2.35-1.77c0.78-0.56,1.63-1.01,2.46-1.48c6.76-3.63,14.24-5.36,21.66-6.64
						c3.72-0.64,7.48-1.09,11.23-1.45C409.96,396.64,413.72,396.38,417.49,396.18z"/>
				</g>
			</g>
		</g>
	</g>
	<path fill="#F8C6AC" d="M250.59,215.54c0,0,16.3,4.78,20.56,19.88c4.26,15.1,17.81,137.48,17.81,137.48l-25.17,0.77l-18.98-62.74
		L250.59,215.54z"/>
	<path fill="#181818" d="M252.73,184.46c1.25,5.54,3.03,10.94,5.3,16.07c3.1-0.38,6.2-0.86,9.26-1.5
		c-0.93-3.69-1.61-7.45-2.02-11.25c2.14,3.4,4.28,6.8,6.42,10.2c4.59-1.24,9.07-2.91,13.31-5.25c-7.28-8.96-13.79-17.69-16.46-34.68
		c-1.87-11.92,1.14-61.93-18.46-82.3c-10.96-11.39-52.09-28.51-80.53-1.06c-9.49,9.16-13.76,23.37-19.05,36.21
		c-7.37,17.88-13.32,27.33-33.54,45.16c6.96,5.5,17.28,12.69,24.7,17.22c2.66-3.23,5.29-6.5,7.85-9.83
		c-0.76,4.34-1.66,8.64-2.67,12.91c1.82,1.05,3.66,2.05,5.51,3.04c1.51-2.43,3.01-4.85,4.52-7.28c-0.26,3.01-0.74,5.99-1.4,8.92
		c30.25,15.48,63.29,22.85,96.35,20.13C252.12,195.59,252.42,190.02,252.73,184.46z"/>
	<path fill="#AC7CEC" d="M239.95,150.46c3,0,6.02,0.99,8.52,2.96c2.48,1.95,4.47,4.95,5.04,8.52c0.28,1.77,0.22,3.66-0.26,5.51
		c-0.48,1.84-1.38,3.62-2.64,5.15c-1.26,1.53-2.88,2.79-4.72,3.67c-1.84,0.87-3.9,1.33-5.93,1.33c-2.04,0-4.1-0.45-5.94-1.32
		c-1.84-0.87-3.47-2.13-4.73-3.66c-1.27-1.52-2.16-3.31-2.65-5.15c-0.48-1.85-0.54-3.75-0.26-5.52c0.57-3.57,2.57-6.58,5.05-8.52
		C233.93,151.45,236.95,150.47,239.95,150.46z M239.95,150.46c-3.02-0.02-5.97,1.46-7.71,3.77c-0.88,1.14-1.46,2.47-1.73,3.8
		c-0.27,1.34-0.21,2.68,0.06,3.91c0.58,2.49,2.11,4.37,3.82,5.56c1.74,1.2,3.64,1.73,5.56,1.74c1.92-0.01,3.83-0.53,5.58-1.73
		c1.71-1.19,3.25-3.08,3.83-5.58c0.27-1.23,0.33-2.58,0.05-3.92c-0.27-1.33-0.86-2.66-1.74-3.8
		C245.92,151.92,242.97,150.44,239.95,150.46z"/>
	<path fill="#F8C6AC" d="M250.51,115.73c-1.58,23.22-12.13,70.69-46.53,67.72s-39.12-50.21-37.55-73.42
		c1.58-23.22,21.07-27.36,44.28-25.78C233.93,85.82,252.08,92.51,250.51,115.73z"/>
	<path fill="#181818" d="M165.04,132.35c5.58-1.42,9.84-5.98,12.84-10.89c4.27-6.99,6.65-15.12,6.81-23.31
		c1.22,1.7,8.26,3.32,8.26,3.32s-3.52-4.55-4.4-7.58c15.89,11.01,35.97,16.79,55.29,16.12c5.49-0.19,11.08-0.91,16.04-3.28
		c-8.71-14.79-23.93-25.69-40.83-28.7c-6.27-1.12-12.69-1.23-19.04-0.73c-5.84,0.46-11.76,1.47-16.92,4.24
		c-8.37,4.5-13.82,13.24-16.44,22.38C164.05,113.05,165.16,122.84,165.04,132.35z"/>
	<g>
		<path fill="#F8C6AC" d="M154.81,128.52c-0.32,4.56,1.5,9.23,4.87,12.48c1.05,1.02,2.28,1.92,3.72,2.32
			c3.23,0.9,6.77-1.07,8.43-3.88c1.66-2.8,1.81-6.21,1.47-9.42c-0.43-4.16-2-8.75-5.94-10.53
			C161.01,116.63,155.21,122.87,154.81,128.52z"/>
		<path fill="#F8C6AC" d="M168.11,140.27c-1.34-0.71-2.47-1.79-3.22-3.08c-0.15-0.26-0.29-0.54-0.27-0.84
			c0.03-0.57,0.57-0.96,1.07-1.26c1-0.62,2-1.24,3-1.86c0.2-0.12,0.41-0.26,0.52-0.46c0.12-0.22,0.1-0.49,0.08-0.74
			c-0.28-3.19-0.67-6.65-2.98-8.97c-0.62-0.63-1.39-1.15-2.27-1.35c-1.3-0.29-2.69,0.19-3.74,0.98c-1.05,0.79-1.82,1.87-2.55,2.94
			c0,0-2.1,6.28,1.69,11.09C163.23,141.55,168.11,140.27,168.11,140.27z"/>
		<path fill="#181818" d="M157.75,125.64c0.56-1.24,1.24-2.46,2.35-3.45c1.1-0.94,2.67-1.62,4.36-1.24
			c0.82,0.18,1.54,0.59,2.14,1.08c0.6,0.5,1.11,1.06,1.55,1.69c0.87,1.26,1.35,2.69,1.67,4.07c0.29,1.4,0.41,2.79,0.5,4.14
			c0.01,0.17,0.03,0.42-0.03,0.76c-0.04,0.33-0.29,0.79-0.54,0.99c-0.51,0.42-0.72,0.46-1.03,0.66c-0.58,0.34-1.18,0.66-1.77,0.97
			c-0.58,0.32-1.27,0.64-1.52,0.89c-0.13,0.14-0.17,0.14-0.16,0.32c0.02,0.18,0.18,0.5,0.32,0.77c0.57,1.13,1.45,2.13,2.52,2.98
			c-1.31-0.42-2.5-1.27-3.42-2.38c-0.22-0.29-0.44-0.54-0.63-1c-0.22-0.46-0.08-1.2,0.23-1.58c0.29-0.41,0.62-0.64,0.92-0.86
			l0.83-0.59c0.55-0.39,1.1-0.78,1.66-1.15c0.25-0.17,0.66-0.43,0.65-0.46c0-0.03-0.09,0.12-0.08,0.12c0,0-0.01-0.09-0.03-0.25
			c-0.15-1.33-0.28-2.63-0.57-3.86c-0.24-1.24-0.64-2.41-1.26-3.4c-0.59-1.01-1.46-1.89-2.42-2.26c-0.95-0.36-2.21-0.15-3.27,0.47
			C159.62,123.66,158.7,124.66,157.75,125.64z"/>
	</g>
	<path fill="#181818" d="M219.74,127.72c0.52,2.07,0.94,4.15,1.31,6.23c0.38,2.09,0.71,4.18,1,6.28c0.32,2.1,0.54,4.2,0.79,6.3
		c0.21,2.11,0.44,4.21,0.58,6.32l0.06,0.82l-0.76,0.16c-2.07,0.45-4.18,0.64-6.28,0.59c-2.1-0.04-4.18-0.34-6.17-0.93
		c2.07,0.02,4.11-0.07,6.11-0.3c2.01-0.24,3.97-0.63,5.9-1.16l-0.7,0.98c-0.32-2.09-0.55-4.19-0.8-6.29
		c-0.21-2.1-0.45-4.2-0.59-6.31c-0.18-2.11-0.3-4.22-0.39-6.33C219.72,131.98,219.69,129.86,219.74,127.72z"/>
	<path fill="#181818" d="M187.2,122.81c1.28-1.96,2.93-3.69,4.75-5.25l1.43-1.1l1.5-1.01l1.58-0.89l1.64-0.8
		c0.56-0.24,1.12-0.48,1.68-0.74l1.72-0.67c0.59-0.18,1.19-0.34,1.79-0.46c0.61-0.09,1.23-0.14,1.85-0.16
		c0.62,0.02,1.24,0.05,1.86,0.11c0.62,0.1,1.23,0.2,1.83,0.36c0.6,0.17,1.19,0.39,1.77,0.61c0.57,0.29,1.13,0.57,1.66,0.95
		l-0.07,0.41c-0.61,0.24-1.19,0.38-1.76,0.52c-0.57,0.16-1.13,0.31-1.67,0.41c-0.55,0.16-1.08,0.28-1.61,0.38
		c-0.53,0.14-1.06,0.25-1.58,0.35c-0.52,0.13-1.04,0.23-1.56,0.3c-0.52,0.1-1.05,0.16-1.58,0.2l-1.61,0.2
		c-0.53,0.1-1.06,0.21-1.59,0.33l-1.56,0.47l-1.54,0.57l-1.52,0.63l-1.49,0.73c-1.99,1-3.84,2.31-5.59,3.8L187.2,122.81z"/>
	<path fill="#181818" d="M244.3,126.86c-1.07-1.46-2.27-2.76-3.59-3.86l-1-0.8l-1.05-0.73l-1.07-0.68l-1.1-0.61
		c-0.38-0.17-0.76-0.35-1.15-0.5l-1.18-0.38c-0.39-0.12-0.78-0.23-1.15-0.4c-0.38-0.14-0.74-0.31-1.1-0.51
		c-1.46-0.77-2.92-1.54-4.63-2.77l0.02-0.41c1.89-1.06,3.99-1.12,5.94-0.74c0.48,0.12,0.96,0.26,1.42,0.44
		c0.45,0.2,0.88,0.45,1.31,0.71l1.2,0.88c0.38,0.32,0.77,0.62,1.15,0.92l1.1,0.95l1.03,1.01l0.94,1.1l0.86,1.15
		c1.07,1.58,1.92,3.28,2.42,5.06L244.3,126.86z"/>
	<path fill="#181818" d="M205.54,129.39c-0.37,2.25-1.89,3.87-3.38,3.62c-1.5-0.25-2.41-2.27-2.04-4.52
		c0.37-2.25,1.89-3.87,3.38-3.62C204.99,125.12,205.91,127.14,205.54,129.39z"/>
	<path fill="#181818" d="M236.08,132.25c-0.37,2.25-1.89,3.87-3.38,3.62c-1.5-0.25-2.41-2.27-2.04-4.52
		c0.37-2.25,1.89-3.87,3.38-3.62C235.54,127.98,236.45,130,236.08,132.25z"/>
	<g>
		<path fill="#FD8524" d="M212.32,165.76c1.46,0.2,2.79,0.2,4.02,0.04c-4.26-3.78-9.63-6.31-15.26-7.17
			C202.39,161.01,205.5,164.8,212.32,165.76z"/>
		<path fill="#181818" d="M227.1,158.4c-8.89,1.86-18.29,1.24-26.86-1.77c0,0,0.21,0.83,0.85,2c5.63,0.86,11,3.38,15.26,7.17
			C223.77,164.87,227.1,158.4,227.1,158.4z"/>
	</g>
	<path fill="#F8C6AC" d="M216.5,190.5c-0.77-7.26,0.1-15.98,0.1-15.98l-29.93-7.02c0,0-2.47,9.39-5.21,17.72
		C192.24,190.44,204.65,192.29,216.5,190.5z"/>
	<path fill="#AC7CEC" d="M250.59,215.54c0,0-27.63-9.3-31.7-14.84c-1.27-1.73-2.05-6.89-2.4-10.2c-11.85,1.8-24.25-0.06-35.05-5.27
		c-1.36,4.14-3.72,11.86-4.94,14.19c-3.7,7.02-42.24,20.81-53.77,28.32c-11.53,7.51,11.09,50.99,11.82,64.3
		c0.74,13.3-15.52,79.82-15.52,79.82h124.53v-44.34c0,0,16.63-13.67,19.95-28.08C266.85,285.01,250.59,215.54,250.59,215.54z"/>
	<path fill="#181818" d="M216.75,182.18c-5.57,1.12-11.15,1.25-16.74,0.26c-5.6-1-15.7-7.55-15.7-7.55s11.67,15.1,31.91,11.89"/>
	<path fill="#AC7CEC" d="M165.84,142.03c3,0,6.02,0.99,8.52,2.96c2.48,1.95,4.47,4.95,5.04,8.52c0.28,1.77,0.22,3.66-0.26,5.51
		c-0.48,1.84-1.38,3.62-2.64,5.15c-1.26,1.53-2.88,2.79-4.72,3.67c-1.84,0.87-3.9,1.33-5.93,1.33c-2.04,0-4.1-0.45-5.94-1.32
		c-1.84-0.87-3.47-2.13-4.73-3.66c-1.27-1.52-2.16-3.31-2.65-5.15c-0.48-1.85-0.54-3.75-0.26-5.52c0.57-3.57,2.57-6.58,5.05-8.52
		C159.82,143.02,162.84,142.03,165.84,142.03z M165.84,142.03c-3.02-0.02-5.97,1.46-7.71,3.77c-0.88,1.14-1.46,2.47-1.73,3.8
		c-0.27,1.34-0.21,2.68,0.06,3.91c0.58,2.49,2.11,4.37,3.82,5.56c1.74,1.2,3.64,1.73,5.56,1.74c1.92-0.01,3.83-0.53,5.58-1.73
		c1.71-1.19,3.25-3.08,3.83-5.58c0.27-1.23,0.33-2.58,0.05-3.92c-0.27-1.33-0.86-2.66-1.74-3.8
		C171.81,143.49,168.86,142.01,165.84,142.03z"/>
	<g opacity="0.42">
		<path fill="#FFFFFF" d="M169,117.38c0.45-0.66,0.9-1.32,1.36-1.96l1.29-2l1.23-2.03l1.15-2.08c1.47-2.8,2.77-5.68,3.82-8.66
			c1.08-2.97,1.91-6.02,2.56-9.11l0.44-2.33l0.34-2.35l0.28-2.37c0.06-0.79,0.12-1.58,0.2-2.38c0.03,0.8,0.06,1.59,0.07,2.39
			l-0.05,2.4l-0.2,2.39l-0.3,2.38c-0.47,3.17-1.3,6.29-2.37,9.32c-1.1,3.02-2.45,5.95-4.11,8.7l-1.28,2.03l-1.37,1.97l-1.49,1.88
			C170.06,116.19,169.53,116.79,169,117.38z"/>
		<path fill="#FFFFFF" d="M187.56,75.67c3.87,4.73,8.51,8.77,13.66,11.99c5.12,3.26,10.69,5.79,16.43,7.76
			c5.73,1.99,11.65,3.55,17.66,4.41c3,0.41,6.05,0.6,9.07,0.4c3.03-0.14,6.04-0.77,8.92-1.78c-2.8,1.23-5.82,1.97-8.88,2.28
			c-3.06,0.31-6.16,0.21-9.21-0.11c-3.06-0.31-6.08-0.94-9.06-1.65c-2.98-0.72-5.93-1.58-8.84-2.57c-2.9-1-5.74-2.2-8.51-3.52
			c-2.77-1.33-5.48-2.8-8.01-4.55c-2.54-1.73-5-3.59-7.21-5.72C191.37,80.47,189.33,78.17,187.56,75.67z"/>
		<path fill="#FFFFFF" d="M192.15,66.8c0.94,0.71,1.87,1.43,2.8,2.15l2.9,1.99l2.98,1.85l3.08,1.68c4.16,2.13,8.52,3.88,13.03,5.08
			c4.49,1.28,9.13,2.03,13.79,2.34l3.51,0.14l3.51-0.06l3.51-0.22c1.16-0.15,2.33-0.28,3.5-0.41c-1.15,0.24-2.31,0.46-3.47,0.68
			l-3.51,0.45l-3.54,0.2h-3.55c-4.74-0.15-9.45-0.91-14.03-2.14c-4.56-1.31-9-3.07-13.13-5.38l-3.05-1.82l-2.93-2l-2.78-2.19
			C193.89,68.39,193.01,67.6,192.15,66.8z"/>
		<path fill="#FFFFFF" d="M176.13,80.08c-0.18,1.31-0.45,2.61-0.71,3.91c-0.3,1.29-0.64,2.57-1,3.85c-0.73,2.55-1.65,5.05-2.7,7.49
			c-1.06,2.43-2.25,4.82-3.6,7.1c-0.69,1.14-1.39,2.26-2.12,3.37c-0.77,1.08-1.53,2.16-2.36,3.19c0.32-0.58,0.64-1.16,0.98-1.72
			l0.95-1.73c0.64-1.15,1.26-2.31,1.85-3.48c1.18-2.35,2.32-4.71,3.35-7.12c1.05-2.4,1.99-4.85,2.89-7.32
			c0.45-1.24,0.86-2.48,1.27-3.74l0.61-1.88C175.73,81.34,175.92,80.71,176.13,80.08z"/>
		<path fill="#FFFFFF" d="M257.35,118.61l-0.89,8c-0.31,2.66-0.6,5.32-0.83,7.99c-0.47,5.33-0.83,10.67-0.69,16
			c0.05,5.33,0.59,10.66,1.66,15.88c0.53,2.61,1.22,5.19,2.09,7.72c0.83,2.54,1.88,5,3.07,7.41c-1.39-2.29-2.54-4.74-3.54-7.24
			c-0.97-2.51-1.76-5.1-2.39-7.72c-1.25-5.25-1.79-10.65-1.92-16.04c-0.05-5.39,0.29-10.77,0.94-16.1c0.33-2.67,0.71-5.32,1.12-7.98
			C256.41,123.89,256.84,121.24,257.35,118.61z"/>
		<path fill="#FFFFFF" d="M268.41,183.99c-0.63-1.19-1.18-2.41-1.74-3.63c-0.53-1.23-1.03-2.48-1.52-3.73
			c-0.97-2.51-1.77-5.07-2.48-7.66c-0.69-2.6-1.28-5.22-1.7-7.87c-0.2-1.33-0.39-2.66-0.56-3.99c-0.12-1.34-0.26-2.67-0.31-4.01
			l0.81,3.93c0.26,1.31,0.54,2.61,0.84,3.91c0.6,2.6,1.21,5.19,1.92,7.76c0.68,2.57,1.45,5.12,2.23,7.67
			c0.39,1.27,0.81,2.54,1.24,3.81L268.41,183.99z"/>
		<path fill="#FFFFFF" d="M140.52,159.55l1.87-3.55c0.63-1.18,1.24-2.36,1.84-3.56c1.18-2.39,2.35-4.78,3.44-7.21
			c1.11-2.42,2.13-4.88,3.15-7.34c0.5-1.23,0.99-2.48,1.46-3.73l1.43-3.75c-0.27,1.32-0.62,2.61-0.95,3.91
			c-0.38,1.29-0.78,2.57-1.19,3.84c-0.84,2.55-1.85,5.04-2.95,7.49c-1.12,2.44-2.33,4.85-3.68,7.16c-0.68,1.16-1.38,2.3-2.1,3.43
			C142.07,157.37,141.33,158.48,140.52,159.55z"/>
		<path fill="#FFFFFF" d="M140.52,143.87l1.87-3.55c0.63-1.18,1.24-2.36,1.84-3.56c1.18-2.39,2.35-4.78,3.44-7.21
			c1.11-2.42,2.13-4.88,3.15-7.34c0.5-1.23,0.99-2.48,1.46-3.73l1.43-3.75c-0.27,1.32-0.62,2.61-0.95,3.91
			c-0.38,1.29-0.78,2.57-1.19,3.84c-0.84,2.55-1.85,5.04-2.95,7.49c-1.12,2.44-2.33,4.85-3.68,7.16c-0.68,1.16-1.38,2.3-2.1,3.43
			C142.07,141.69,141.33,142.8,140.52,143.87z"/>
	</g>
	<g>
		<g>
			<path fill="#FFFFFF" d="M387.99,388.18c0,1.05-7.21,1.9-16.1,1.9s-16.1-0.85-16.1-1.9c0-0.36,0-1.72,0-1.72s10.27-0.18,16.1-0.18
				c5.45,0,16.1,0.18,16.1,0.18S387.99,387.77,387.99,388.18z"/>
			<path fill="#4BD2E9" d="M347.32,289.96c-0.21,2.09-0.32,4.23-0.32,6.41c0,22.21,11.12,40.21,24.85,40.21s24.85-18,24.85-40.21
				c0-2.18-0.11-4.32-0.32-6.41H347.32z"/>
			<rect x="370.56" y="303.97" fill="#4BD2E9" width="2.58" height="82.32"/>
			<path fill="#AC7CEC" d="M351.46,311.6c3.25,13.07,11.15,22.3,20.39,22.3s17.14-9.23,20.39-22.3H351.46z"/>
			<ellipse fill="#4BD2E9" cx="371.89" cy="386.46" rx="16.1" ry="1.9"/>
		</g>
		<path fill="#FFFFFF" d="M353.3,292.95c1.45,3.46,2.47,6.85,3.45,10.19c0.96,3.34,1.86,6.63,2.85,9.74
			c0.27,0.75,0.49,1.55,0.81,2.25c0.14,0.36,0.27,0.73,0.42,1.09c0.17,0.36,0.34,0.72,0.5,1.09c0.67,1.46,1.43,2.9,2.25,4.34
			c1.66,2.88,3.58,5.71,5.77,8.73c-3.68-0.92-6.9-3.09-9.59-5.77c-1.34-1.35-2.52-2.88-3.55-4.52c-0.51-0.82-0.96-1.68-1.38-2.59
			c-0.43-0.9-0.72-1.8-1.06-2.71c-1.15-3.63-1.68-7.29-1.77-10.94C351.92,300.21,352.21,296.56,353.3,292.95z"/>
		<path opacity="0.4" fill="#FFFFFF" d="M396.38,289.96h-49.06c0,0,7.59,6.84,25.2,6.84C390.13,296.8,396.38,289.96,396.38,289.96z"
			/>
	</g>
	<g>
		<g>
			<path fill="#D1C6C6" d="M340.4,382.82c0,3.4-33.09,6.16-73.91,6.16c-40.82,0-73.91-2.76-73.91-6.16c0-0.35,0-2.59,0-2.59
				s37.33-3.57,73.91-3.57c36.61,0,73.91,3.57,73.91,3.57S340.4,382.46,340.4,382.82z"/>
			<path fill="#FFFFFF" d="M340.4,380.23c0,3.4-33.09,6.16-73.91,6.16c-40.82,0-73.91-2.76-73.91-6.16c0-3.4,33.09-6.16,73.91-6.16
				C307.31,374.07,340.4,376.82,340.4,380.23z"/>
		</g>
		<path fill="#FD995A" d="M313.45,377.44c-10.4,2.73-21.24,3.28-31.99,3.7c-21.77,0.85-43.85,1.19-65-4.02
			c-0.19-2.37,0.45-4.62,1.58-6.72c0.81-1.49,1.81-2.9,3.12-3.98c3.13-2.59,7.46-3,11.51-3.29c-0.66-6.04,0.85-12.18,4.45-17.07
			c3.6-4.89,8.87-8.47,14.65-10.35c3.44-1.12,7.11-1.66,10.68-1.09c3.57,0.56,7.02,2.3,9.26,5.13c4.13-2.11,9.24-2.23,13.61-0.69
			c4.37,1.54,8.06,4.93,9.96,9.16c3.22-0.43,6.71,1.73,9.16,3.86C311.75,358.43,313.67,367.75,313.45,377.44z"/>
		<path fill="#53813A" d="M277.67,333.93c0.47-1.48,1.63-2.69,3.02-3.39c1.66-0.84,3.75-0.96,5.35,0c0.57,0.34,1.06,0.8,1.47,1.32
			c1.45,1.84,1.84,4.5,0.84,6.61C285.13,345.29,275.59,340.47,277.67,333.93z"/>
		<path fill="#181818" d="M241.98,305.29c7.07,3.99,14.05,8.11,20.94,12.39c6.9,4.25,13.71,8.66,20.46,13.17
			c6.72,4.54,13.38,9.18,19.89,14.03c6.52,4.82,12.88,9.88,19.03,15.18l-20.1-13.67l-20.14-13.57l-20.14-13.59
			C255.21,314.68,248.55,310.05,241.98,305.29z"/>
		<g opacity="0.44">
			<path fill="#FD8524" d="M250.61,346.22c1.53-0.87,3.4-1.19,5.22-1.05c1.83,0.14,3.63,0.75,5.24,1.72
				c1.58,0.99,2.96,2.29,4.04,3.8c1.11,1.49,1.91,3.16,2.5,4.89l-1.53-0.67c1.15-0.49,2.42-0.85,3.72-1.03
				c1.32-0.18,2.56-0.09,3.85,0.05c1.3,0.21,2.55,0.66,3.61,1.41c1.06,0.72,1.93,1.76,2.32,2.92c-0.76-0.96-1.75-1.62-2.8-2.05
				c-1.06-0.41-2.17-0.63-3.27-0.63c-1.12,0-2.31,0.13-3.37,0.34c-1.08,0.22-2.1,0.65-3.17,1.1l-1.1,0.47l-0.43-1.14
				c-1.15-3.04-2.95-5.85-5.51-7.77C257.41,346.66,254.07,345.63,250.61,346.22z"/>
			<path fill="#FD8524" d="M235.98,368.89c1.01-1.37,2.59-2.33,4.28-2.84c1.71-0.49,3.55-0.56,5.33-0.17
				c1.77,0.37,3.42,1.18,4.9,2.17c1.45,1.04,2.76,2.25,3.86,3.62l-1.74-0.09c1.11-1.06,2.26-2.2,3.66-3.08
				c1.38-0.88,3-1.58,4.7-1.71c3.35-0.31,6.74,1.25,8.42,3.88c-1.2-0.97-2.54-1.67-3.96-1.99c-1.4-0.36-2.85-0.37-4.2-0.11
				c-1.34,0.29-2.58,0.9-3.71,1.74c-1.12,0.84-2.19,1.84-3.25,2.93l-0.89,0.92l-0.85-1.01c-1.02-1.21-2.12-2.35-3.38-3.27
				c-1.23-0.96-2.6-1.7-4.06-2.19c-1.45-0.47-3.03-0.66-4.6-0.49C238.93,367.38,237.37,367.92,235.98,368.89z"/>
			<path fill="#FD8524" d="M283.67,372.14c0.09-2.39,1.76-4.74,4.13-5.84c2.39-1.12,5.32-0.92,7.57,0.48l-1.66,0.67
				c0.52-1.6,1.6-2.96,2.94-3.81c1.34-0.85,2.93-1.25,4.4-1.02c-1.38,0.54-2.53,1.29-3.4,2.25c-0.88,0.94-1.49,2.05-1.76,3.21
				l-0.32,1.37l-1.34-0.7c-1.71-0.89-3.8-1.07-5.68-0.52C286.66,368.8,284.91,370.14,283.67,372.14z"/>
		</g>
		<path fill="#53813A" d="M293.52,382.06c8.89,0.32,17.95,0.62,26.5-1.84c0.74-1.27-0.32-3.02-0.88-4.38
			c-0.37-0.9-0.78-1.84-1.55-2.42c-0.78-0.58-2.05-0.62-2.6,0.18c-0.46-1.48-1.74-2.68-3.25-3.04c-1.51-0.36-3.19,0.15-4.26,1.27
			c-1.36-1.45-3.54-2.07-5.46-1.53c-1.91,0.54-3.46,2.2-3.87,4.14c-1.8-0.82-4.13-0.21-5.31,1.38
			C291.67,377.42,292.2,380.58,293.52,382.06z"/>
		<path fill="#53813A" d="M219.35,380.15c7.58,1.69,15.31,3.39,23.04,2.65c0.84-0.97,0.21-2.65-0.06-3.9
			c-0.18-0.83-0.37-1.7-0.95-2.32s-1.66-0.86-2.26-0.26c-0.16-1.35-1.07-2.58-2.3-3.12c-1.24-0.55-2.76-0.38-3.86,0.41
			c-0.93-1.46-2.71-2.34-4.44-2.18c-1.73,0.16-3.32,1.33-3.98,2.94c-1.42-0.99-3.52-0.84-4.78,0.34
			C218.5,375.87,218.45,378.67,219.35,380.15z"/>
		<g>
			<path fill="#FFEAE9" d="M262.74,375.16c-0.55,0.23-26.12,5.66-26.12,5.66s-1.05,4.45-4.37,3.42c-3.32-1.04-0.7-5.18-0.7-5.18
				s-3.95-0.73-2.47-3.64c1.86-3.66,6.43,0.39,6.43,0.39l26.18-7.46L262.74,375.16z"/>
			<path fill="#D06823" d="M275.06,383.83c6.04,0.07,12.09-3.14,15.12-8.36c3.03-5.22,2.71-12.29-1.04-17.02
				c-3.31-4.18-8.9-6.23-14.22-5.82c-5.32,0.4-10.31,3.06-14.12,6.78c-3.88,3.79-6.96,8.86-12.08,10.65c2.37,0.4,4.74,0.8,7.11,1.2
				c-1.85,0.92-3.49,2.24-4.78,3.85c2.06-0.19,4.35-0.11,6.29,0.6c-1.36,1.02-5,3.07-5,3.07s8.12,1.68,9.32,2.02
				C266.07,382,270.42,383.78,275.06,383.83z"/>
			<g>
				<path fill="#181818" d="M281.44,365.17c-0.41-0.49-0.44-0.92-0.39-1.33c0.09-0.4,0.27-0.79,0.83-1.11
					c0.41,0.49,0.44,0.92,0.39,1.33C282.17,364.46,281.99,364.85,281.44,365.17z"/>
				<path fill="#181818" d="M277.96,360.66c-0.57,0.38-1.06,0.38-1.54,0.3c-0.47-0.12-0.91-0.33-1.28-0.91
					c0.57-0.38,1.07-0.39,1.54-0.3C277.15,359.87,277.6,360.08,277.96,360.66z"/>
				<path fill="#181818" d="M272.2,363.84c-0.43-0.54-0.51-1.01-0.51-1.48c0.03-0.47,0.14-0.94,0.61-1.44
					c0.51,0.47,0.63,0.98,0.63,1.48C272.88,362.9,272.73,363.41,272.2,363.84z"/>
				<path fill="#181818" d="M267.66,361.38c-0.54,0.4-1.02,0.43-1.49,0.37c-0.46-0.1-0.9-0.29-1.27-0.85
					c0.54-0.4,1.02-0.43,1.49-0.37C266.84,360.63,267.28,360.82,267.66,361.38z"/>
				<path fill="#181818" d="M264.24,368.73c-0.32-0.59-0.28-1.05-0.16-1.49c0.16-0.43,0.41-0.83,1.02-1.11
					c0.32,0.59,0.28,1.06,0.16,1.49C265.09,368.05,264.84,368.45,264.24,368.73z"/>
				<path fill="#181818" d="M257.77,367.41c-0.33-0.45-0.36-0.71-0.31-0.96c0.08-0.24,0.24-0.45,0.76-0.67
					c0.45,0.34,0.5,0.69,0.43,1C258.54,367.06,258.33,367.34,257.77,367.41z"/>
				<path fill="#181818" d="M261.37,373.79c-0.49,0.41-0.92,0.44-1.33,0.39c-0.4-0.09-0.79-0.27-1.11-0.83
					c0.49-0.41,0.92-0.44,1.33-0.39C260.67,373.06,261.05,373.24,261.37,373.79z"/>
				<path fill="#181818" d="M262.37,379.33c-0.5-0.29-0.58-0.7-0.51-1.05c0.09-0.34,0.34-0.67,0.92-0.72c0.29,0.5,0.33,0.74,0.28,1
					C262.98,378.8,262.84,379.01,262.37,379.33z"/>
				<path fill="#181818" d="M270.36,377.63c-0.44,0.38-0.78,0.4-1.09,0.33c-0.3-0.11-0.57-0.3-0.74-0.86
					c0.44-0.38,0.78-0.4,1.09-0.33C269.91,376.88,270.19,377.08,270.36,377.63z"/>
				<path fill="#181818" d="M270.19,372.56c-0.35-0.48-0.34-0.83-0.25-1.15c0.13-0.31,0.34-0.59,0.92-0.74
					c0.35,0.48,0.34,0.83,0.25,1.15C270.97,372.13,270.76,372.41,270.19,372.56z"/>
				<path fill="#181818" d="M264.76,373.04c-0.17-0.55-0.1-0.82,0.03-1.06c0.16-0.22,0.38-0.39,0.95-0.47
					c0.33,0.48,0.26,0.85,0.09,1.13C265.63,372.91,265.33,373.13,264.76,373.04z"/>
				<path fill="#181818" d="M276.8,369.5c-0.48,0.37-0.85,0.37-1.19,0.29c-0.33-0.12-0.64-0.33-0.83-0.9
					c0.48-0.37,0.85-0.37,1.19-0.29C276.3,368.72,276.6,368.93,276.8,369.5z"/>
				<path fill="#181818" d="M275.51,377.27c-0.46-0.36-0.5-0.77-0.42-1.11c0.12-0.34,0.37-0.66,0.95-0.71
					c0.29,0.51,0.3,0.78,0.24,1.06C276.18,376.77,276.02,376.99,275.51,377.27z"/>
				<path fill="#181818" d="M283.08,375.74c-0.53,0.32-0.9,0.34-1.26,0.28c-0.36-0.09-0.68-0.25-1.04-0.77
					c0.43-0.46,0.88-0.51,1.29-0.44C282.49,374.92,282.88,375.14,283.08,375.74z"/>
				<path fill="#181818" d="M285.26,371.3c-0.16-0.59-0.02-0.94,0.19-1.24c0.24-0.28,0.55-0.5,1.16-0.48
					c0.16,0.59,0.02,0.95-0.19,1.24C286.18,371.09,285.87,371.31,285.26,371.3z"/>
				<path fill="#181818" d="M281,370.33c-0.18-0.6-0.11-0.97,0.04-1.32c0.18-0.33,0.41-0.63,1-0.87c0.35,0.53,0.29,1,0.12,1.4
					C281.95,369.92,281.63,370.26,281,370.33z"/>
				<path fill="#181818" d="M288.11,360.63c-0.7-0.03-1.09-0.19-1.48-0.4c-0.38-0.24-0.71-0.49-1.09-1.08
					c0.6-0.37,1.22-0.26,1.71,0.01C287.71,359.45,288.12,359.93,288.11,360.63z"/>
				<path fill="#181818" d="M275.83,356.69c-0.11-0.56-0.12-0.75-0.04-0.95c0.1-0.19,0.26-0.31,0.76-0.58
					c0.49,0.31,0.51,0.77,0.36,1.1C276.74,356.58,276.38,356.86,275.83,356.69z"/>
				<path fill="#181818" d="M268.69,357.26c-0.42-0.38-0.43-0.74-0.33-1.04c0.13-0.29,0.39-0.54,0.96-0.52
					c0.27,0.5,0.27,0.74,0.19,0.98C269.39,356.91,269.22,357.09,268.69,357.26z"/>
				<path fill="#181818" d="M276.64,381.93c0.18-0.56,0.39-0.75,0.64-0.9c0.27-0.11,0.55-0.15,1.1,0.05
					c0.03,0.59-0.25,0.89-0.57,1.06C277.49,382.29,277.09,382.32,276.64,381.93z"/>
			</g>
		</g>
	</g>
	<path fill="#FFFFFF" d="M178.01,195.4c2.62,0.44,5.27-1.03,6.25-3.19l0.97-2.14l0.06,2.4c0.03,1.16,0.48,2.27,1.17,3.15
		c0.69,0.88,1.68,1.48,2.72,1.63c2.11,0.37,4.42-1.03,5.16-2.94l1.08-2.82l0.77,2.94c0.48,1.82,2.13,3.54,3.88,3.82
		c1.83,0.27,3.92-0.77,4.82-2.45l0.92-1.72l0.68,1.78c0.64,1.68,2.27,3.14,4.1,3.15c1.85,0.06,3.8-1.17,4.59-3l0.39-0.9l0.26,0.9
		c0.19,0.66,0.46,1.31,0.85,1.9c0.39,0.57,0.88,1.12,1.56,1.38c-0.72-0.14-1.36-0.6-1.86-1.15c-0.5-0.56-0.9-1.2-1.2-1.9l0.65,0
		c-0.63,2.22-2.75,3.96-5.19,4.14c-1.25,0.08-2.49-0.34-3.48-1.04c-1.01-0.7-1.8-1.68-2.29-2.81l1.6,0.06
		c-1.19,2.44-3.91,3.95-6.66,3.59c-1.42-0.2-2.64-0.93-3.56-1.87c-0.92-0.95-1.61-2.1-1.94-3.42l1.85,0.12
		c-1.17,2.86-4.34,4.47-7.28,3.89c-1.48-0.32-2.75-1.26-3.56-2.44c-0.82-1.18-1.19-2.62-1.1-4.02l1.03,0.26
		c-0.73,1.27-1.93,2.17-3.22,2.65C180.7,195.83,179.25,195.87,178.01,195.4z"/>
	<path fill="#FFFFFF" d="M128.06,224.68c3.33,0.33,6.58,1.49,9.54,3.16c2.94,1.71,5.56,3.96,7.8,6.52
		c4.51,5.12,7.63,11.28,9.92,17.62c2.25,6.54,2.62,13.36,2.69,20.05c0.02,6.71-0.51,13.4-1.52,20.01c0.09-3.34,0.19-6.67,0.15-10
		c0.01-3.33-0.06-6.65-0.21-9.97c-0.18-3.31-0.38-6.62-0.85-9.88c-0.42-3.27-1.05-6.49-2.15-9.54c-2.19-6.19-5.13-12.17-9.22-17.29
		c-2.06-2.54-4.41-4.85-7.13-6.7C134.39,226.77,131.31,225.46,128.06,224.68z"/>
	<path fill="#FFFFFF" d="M246.14,214.26c1.8,5.7,3.48,11.43,5.04,17.2c1.58,5.76,3.05,11.54,4.5,17.33c1.41,5.8,2.8,11.6,4.07,17.43
		c1.3,5.83,2.48,11.68,3.53,17.57c-1.81-5.7-3.49-11.43-5.04-17.2c-1.58-5.76-3.05-11.54-4.5-17.33c-1.41-5.8-2.8-11.6-4.07-17.44
		C248.37,226.01,247.19,220.15,246.14,214.26z"/>
	<path fill="#020403" d="M276.84,282.86l-36.07-0.11c-1.6,0-2.57-1.32-2.18-2.94l17.37-70.89c0.4-1.62,2.01-2.93,3.61-2.92
		l36.07,0.11c1.6,0,2.57,1.32,2.18,2.94l-17.37,70.89C280.06,281.56,278.44,282.86,276.84,282.86z"/>
	<path fill="#DD0A0A" d="M279.01,282.86l-36.07-0.11c-1.6,0-2.57-1.32-2.18-2.94l17.37-70.89c0.4-1.62,2.01-2.92,3.61-2.92
		l36.07,0.11c1.6,0,2.57,1.32,2.18,2.94l-17.37,70.89C282.23,281.56,280.61,282.87,279.01,282.86z"/>
	<path fill="#020403" d="M274.02,218.76l-9.81-0.03c-2.3-0.01-3.71-1.9-3.14-4.23l0,0c0.57-2.33,2.9-4.21,5.2-4.21l9.81,0.03
		c2.3,0.01,3.71,1.9,3.14,4.23l0,0C278.65,216.88,276.32,218.76,274.02,218.76z"/>
	<path fill="#F1F0E9" d="M264.77,218.03C264.77,218.03,264.76,218.03,264.77,218.03c-0.95,0-1.75-0.37-2.27-1.04
		c-0.55-0.7-0.72-1.63-0.47-2.62c0.47-1.92,2.4-3.48,4.31-3.48c0,0,0.01,0,0.01,0c0.93,0,1.74,0.37,2.26,1.04
		c0.55,0.7,0.72,1.63,0.47,2.62C268.61,216.47,266.68,218.03,264.77,218.03z M266.34,211.56c-1.61,0-3.25,1.33-3.65,2.97
		c-0.19,0.79-0.07,1.51,0.35,2.05c0.39,0.5,1,0.78,1.73,0.78c0,0,0.01,0,0.01,0c1.61,0,3.25-1.33,3.65-2.97
		c0.19-0.79,0.07-1.51-0.35-2.05C267.68,211.84,267.07,211.56,266.34,211.56C266.34,211.56,266.34,211.56,266.34,211.56z"/>
	<path fill="#F1F0E9" d="M267.76,214.47c-0.3,1.24-1.54,2.23-2.76,2.23c-1.22,0-1.96-1.01-1.66-2.24c0.3-1.24,1.54-2.23,2.76-2.23
		C267.32,212.23,268.07,213.23,267.76,214.47z"/>
	<g>
		<g>
			<path fill="#F8C6AC" d="M122.74,227.74c0,0-18.75,11.12-12.1,51.4c6.65,40.28,24.29,89.39,38.7,95.3
				c14.41,5.91,57.28-53.58,62.45-59.86c5.17-6.28,23.65-29.56,23.65-29.56l-15.15-13.67c0,0-18.48,21.8-25.87,28.82
				c-7.39,7.02-34,27.34-34,27.34s-5.38-55.61-11.82-73.17C137.89,225.15,122.74,227.74,122.74,227.74z"/>
			<path fill="#181818" d="M143.36,343.69c1.42-2.55,3.14-4.91,5-7.14c1.85-2.24,3.9-4.32,6.04-6.29c2.17-1.94,4.44-3.77,6.85-5.4
				c2.4-1.64,4.92-3.11,7.59-4.28c-2.17,1.95-4.36,3.8-6.53,5.67c-2.16,1.88-4.31,3.74-6.41,5.67c-2.13,1.9-4.19,3.86-6.27,5.82
				C147.56,339.72,145.51,341.72,143.36,343.69z"/>
			<path fill="#F8C6AC" d="M220.29,271.34c0,0,8.09-10.3,13.22-15.65c5.14-5.35,12.37-6.18,12.37-6.18l-2.1,8.54
				c0,0,8.56-0.86,17.97-2.14c9.41-1.28,16.9-4.07,17.55-1.93c0.64,2.14-13.05,7.49-17.33,8.77c-4.28,1.28-14.98,2.78-14.98,2.78
				s14.55-0.21,23.32-1.07c8.77-0.86,17.12-2.78,19.04,1.07c1.93,3.85-17.33,15.62-32.95,17.33c-15.62,1.71-20.97,2.15-20.97,2.15
				L220.29,271.34z"/>
		</g>
		<g>
			<path fill="#181818" d="M288.5,264.44c-3.26,1.5-6.64,2.69-10.08,3.7c-3.43,1.02-6.93,1.8-10.45,2.45
				c-3.53,0.61-7.08,1.08-10.66,1.3c-3.57,0.24-7.16,0.29-10.74,0c3.53-0.64,7.04-1.18,10.54-1.74c3.5-0.58,6.99-1.13,10.46-1.77
				c3.48-0.6,6.95-1.28,10.43-1.94C281.49,265.76,284.96,265.05,288.5,264.44z"/>
			<path fill="#181818" d="M286.38,270.51c-3.05,1.37-6.2,2.46-9.4,3.41c-3.19,0.96-6.43,1.72-9.7,2.39
				c-3.27,0.62-6.56,1.15-9.88,1.47c-3.31,0.33-6.64,0.52-9.99,0.4c3.24-0.81,6.49-1.48,9.73-2.13l9.71-1.94l9.72-1.88
				C279.82,271.6,283.07,270.98,286.38,270.51z"/>
		</g>
	</g>
	<g>
		<g>
			<path fill="#020403" d="M277.18,226.98l8.42,10.3l8.34,10.36c2.77,3.46,5.68,6.82,8.26,10.42c2.59,3.6,5.12,7.24,7.39,11.09
				l-0.16,0.12c-3.14-3.18-6.01-6.56-8.82-9.99c-2.82-3.43-5.31-7.1-7.94-10.67l-7.86-10.73l-7.79-10.79L277.18,226.98z"/>
			<path fill="#020403" d="M283.51,223.65l10.51,7.17l10.45,7.26c3.48,2.43,7.05,4.72,10.39,7.34c3.35,2.61,6.64,5.28,9.74,8.22
				l-0.12,0.16c-3.75-2.05-7.3-4.38-10.8-6.77c-3.51-2.38-6.78-5.09-10.15-7.66l-10.1-7.74l-10.04-7.82L283.51,223.65z"/>
			<path fill="#020403" d="M288.72,218.94l10.44,2.9l10.41,3c3.46,1.01,6.98,1.86,10.38,3.09c3.4,1.22,6.77,2.52,10.04,4.14
				l-0.06,0.19c-3.61-0.57-7.11-1.46-10.59-2.43c-3.48-0.96-6.84-2.3-10.25-3.48l-10.22-3.57l-10.19-3.67L288.72,218.94z"/>
		</g>
		<g>
			<path fill="#020403" d="M333.17,240.61c-0.13-0.72-0.05-1.41,0.22-2.07c0.27-0.66,0.75-1.25,1.41-1.77
				c0.57-0.44,1.17-0.73,1.79-0.86s1.22-0.11,1.81,0.06c0.59,0.18,1.13,0.49,1.63,0.94l-2.19,1.69c-0.27-0.14-0.54-0.2-0.82-0.18
				c-0.28,0.02-0.54,0.12-0.77,0.3c-0.35,0.27-0.53,0.61-0.53,1.03c0,0.42,0.17,0.85,0.51,1.29c0.34,0.44,0.71,0.72,1.12,0.82
				c0.4,0.11,0.78,0.03,1.13-0.24c0.24-0.18,0.4-0.41,0.49-0.67c0.09-0.26,0.1-0.54,0.03-0.84l2.19-1.69
				c0.31,0.6,0.47,1.2,0.49,1.81c0.02,0.61-0.12,1.2-0.4,1.76c-0.29,0.56-0.72,1.07-1.29,1.51c-0.67,0.51-1.36,0.82-2.07,0.91
				c-0.71,0.09-1.4-0.01-2.06-0.32c-0.66-0.31-1.24-0.79-1.74-1.45C333.61,242.01,333.29,241.33,333.17,240.61z"/>
			<path fill="#020403" d="M346.81,243.02l2.35-0.93l0.73,1.85l-4.79,1.9l-3.09-7.78l2.44-0.97L346.81,243.02z"/>
			<path fill="#020403" d="M348.42,231.2l1.91,8.15l-2.55,0.6l-1.91-8.15L348.42,231.2z"/>
			<path fill="#020403" d="M350.99,236.41c0.07-0.72,0.33-1.37,0.78-1.93c0.45-0.56,1.06-1,1.84-1.31c0.67-0.27,1.33-0.38,1.96-0.34
				c0.63,0.04,1.2,0.23,1.72,0.56c0.52,0.33,0.95,0.78,1.31,1.35l-2.57,1.02c-0.22-0.21-0.47-0.34-0.74-0.4
				c-0.27-0.06-0.55-0.03-0.83,0.08c-0.41,0.16-0.67,0.45-0.79,0.85c-0.12,0.4-0.07,0.86,0.14,1.38c0.21,0.52,0.49,0.89,0.85,1.1
				c0.36,0.21,0.74,0.24,1.15,0.08c0.28-0.11,0.5-0.28,0.66-0.51c0.16-0.23,0.25-0.49,0.26-0.8l2.57-1.02
				c0.13,0.66,0.13,1.29-0.02,1.88c-0.15,0.59-0.44,1.12-0.87,1.59c-0.43,0.46-0.98,0.83-1.66,1.1c-0.78,0.31-1.53,0.41-2.24,0.31
				c-0.71-0.1-1.34-0.39-1.89-0.87c-0.55-0.48-0.98-1.1-1.28-1.87C351.03,237.88,350.92,237.13,350.99,236.41z"/>
			<path fill="#020403" d="M365.14,232.8l-4.26-0.99l2.48,2.65l-1.92,1.79l-5.71-6.12l1.92-1.79l2.4,2.57l-0.65-4.21l2.17-2.02
				l0.63,4.9l5.22,1.09L365.14,232.8z"/>
		</g>
		<g>
			<path fill="#020403" d="M309.67,203.86c0.32-0.65,0.79-1.17,1.4-1.54c0.61-0.37,1.34-0.57,2.18-0.59
				c0.72-0.02,1.38,0.1,1.95,0.36c0.58,0.26,1.05,0.63,1.42,1.12c0.37,0.49,0.62,1.06,0.76,1.72l-2.76,0.07
				c-0.13-0.27-0.32-0.48-0.55-0.63c-0.24-0.15-0.5-0.22-0.8-0.21c-0.44,0.01-0.79,0.18-1.03,0.52c-0.25,0.34-0.37,0.79-0.35,1.34
				c0.01,0.56,0.15,1,0.42,1.33c0.26,0.32,0.62,0.48,1.06,0.47c0.3-0.01,0.56-0.09,0.79-0.25c0.23-0.16,0.4-0.38,0.52-0.66
				l2.76-0.07c-0.1,0.66-0.33,1.25-0.67,1.75c-0.35,0.5-0.8,0.9-1.37,1.19c-0.56,0.29-1.21,0.44-1.93,0.45
				c-0.84,0.02-1.58-0.14-2.21-0.48c-0.63-0.34-1.12-0.83-1.47-1.47c-0.35-0.64-0.54-1.37-0.56-2.2
				C309.2,205.25,309.35,204.51,309.67,203.86z"/>
			<path fill="#020403" d="M319.27,213.86l2.45,0.63l-0.5,1.92l-4.99-1.29l2.1-8.1l2.54,0.66L319.27,213.86z"/>
			<path fill="#020403" d="M327.54,205.26l-3.27,7.7l-2.41-1.03l3.27-7.7L327.54,205.26z"/>
			<path fill="#020403" d="M326.54,210.99c0.49-0.54,1.08-0.91,1.77-1.1c0.69-0.19,1.45-0.18,2.26,0.03c0.7,0.18,1.3,0.48,1.78,0.88
				c0.48,0.41,0.84,0.89,1.06,1.46c0.22,0.57,0.31,1.19,0.26,1.86l-2.68-0.69c-0.05-0.3-0.17-0.55-0.36-0.76
				c-0.19-0.21-0.42-0.35-0.71-0.42c-0.43-0.11-0.81-0.04-1.14,0.22c-0.33,0.26-0.57,0.65-0.71,1.2c-0.14,0.54-0.13,1,0.04,1.39
				c0.16,0.38,0.46,0.63,0.89,0.74c0.29,0.08,0.57,0.07,0.83-0.02c0.26-0.09,0.49-0.25,0.68-0.49l2.68,0.69
				c-0.28,0.61-0.66,1.11-1.13,1.5c-0.47,0.39-1.02,0.65-1.64,0.77c-0.62,0.12-1.28,0.09-1.98-0.09c-0.82-0.21-1.48-0.57-1.99-1.07
				c-0.51-0.5-0.85-1.11-1.01-1.82c-0.16-0.71-0.14-1.46,0.07-2.26C325.71,212.2,326.06,211.53,326.54,210.99z"/>
			<path fill="#020403" d="M340.1,216.43l-2.85-3.31l0.43,3.6l-2.6,0.31l-1-8.31l2.6-0.31l0.42,3.5l1.96-3.78l2.94-0.35l-2.38,4.32
				l3.57,3.96L340.1,216.43z"/>
		</g>
	</g>
</g>
</svg>
